<svg width="86" height="86" viewBox="0 0 86 86" fill="none" xmlns="http://www.w3.org/2000/svg">
<g clip-path="url(#clip0)">
<rect width="85.8" height="85.8" fill="white"/>
<path d="M83.6 42.9C83.6 65.4 65.4 83.6 42.9 83.6C20.4 83.6 2.2 65.4 2.2 42.9C2.2 20.4 20.4 2.20001 42.9 2.20001C65.4 2.20001 83.6 20.4 83.6 42.9Z" fill="#00313F"/>
<path d="M43.6 79.8C43.4 79.8 43.2 79.6 43.2 79.4C43.2 79.2 43.4 79 43.6 79C44.1 79 44.6 79 45.1 78.9C45.3 78.9 45.5 79 45.5 79.2C45.5 79.4 45.4 79.6 45.2 79.6C44.6 79.7 44.1 79.7 43.6 79.8ZM41.6 79.7C41.1 79.7 40.6 79.7 40.1 79.6C39.9 79.6 39.7 79.4 39.8 79.2C39.8 79 40 78.8 40.2 78.9C40.7 78.9 41.2 79 41.7 79C41.9 79 42.1 79.2 42.1 79.4C42 79.6 41.8 79.7 41.6 79.7ZM47 79.5C46.8 79.5 46.7 79.4 46.6 79.2C46.6 79 46.7 78.8 46.9 78.8C47.4 78.7 47.9 78.7 48.3 78.6C48.5 78.6 48.7 78.7 48.7 78.9C48.7 79.1 48.6 79.3 48.4 79.3C48.1 79.4 47.6 79.5 47 79.5C47.1 79.5 47.1 79.5 47 79.5ZM38.2 79.5C37.7 79.4 37.2 79.4 36.7 79.3C36.5 79.3 36.4 79.1 36.4 78.9C36.4 78.7 36.6 78.6 36.8 78.6C37.3 78.7 37.8 78.8 38.2 78.8C38.4 78.8 38.5 79 38.5 79.2C38.5 79.3 38.4 79.5 38.2 79.5ZM50.4 79C50.2 79 50.1 78.9 50 78.7C50 78.5 50.1 78.3 50.3 78.3C50.8 78.2 51.3 78.1 51.7 78C51.9 78 52.1 78.1 52.1 78.3C52.2 78.5 52 78.7 51.8 78.7C51.5 78.8 51 78.9 50.4 79C50.5 79 50.5 79 50.4 79ZM34.8 78.9C34.8 78.9 34.7 78.9 34.8 78.9C34.2 78.8 33.7 78.7 33.3 78.5C33.1 78.4 33 78.2 33 78C33.1 77.8 33.3 77.7 33.5 77.7C34 77.8 34.4 77.9 34.9 78.1C35.1 78.1 35.2 78.3 35.2 78.5C35.1 78.7 35 78.9 34.8 78.9ZM53.8 78.1C53.6 78.1 53.5 78 53.4 77.8C53.3 77.6 53.4 77.4 53.6 77.3C54.1 77.2 54.5 77 55 76.8C55.2 76.7 55.4 76.8 55.5 77C55.6 77.2 55.5 77.4 55.3 77.5C54.8 77.7 54.4 77.8 53.9 78C53.8 78.1 53.8 78.1 53.8 78.1ZM31.5 77.9H31.4C30.9 77.7 30.5 77.6 30 77.4C29.8 77.3 29.7 77.1 29.8 76.9C29.9 76.7 30.1 76.6 30.3 76.7C30.8 76.9 31.2 77 31.7 77.2C31.9 77.3 32 77.5 31.9 77.7C31.8 77.8 31.6 77.9 31.5 77.9ZM57 76.9C56.9 76.9 56.7 76.8 56.7 76.7C56.6 76.5 56.7 76.3 56.9 76.2C57.3 76 57.8 75.8 58.2 75.6C58.4 75.5 58.6 75.6 58.7 75.8C58.8 76 58.7 76.2 58.5 76.3C58.1 76.5 57.6 76.7 57.1 76.9C57.1 76.9 57.1 76.9 57 76.9ZM28.3 76.7H28.2C27.7 76.5 27.3 76.3 26.8 76.1C26.6 76 26.5 75.8 26.6 75.6C26.7 75.4 26.9 75.3 27.1 75.4C27.5 75.6 28 75.8 28.4 76C28.6 76.1 28.7 76.3 28.6 76.5C28.5 76.6 28.4 76.7 28.3 76.7ZM60.1 75.5C60 75.5 59.8 75.4 59.8 75.3C59.7 75.1 59.8 74.9 59.9 74.8C60.3 74.6 60.8 74.3 61.2 74.1C61.4 74 61.6 74.1 61.7 74.2C61.8 74.4 61.7 74.6 61.6 74.7C61.2 75 60.7 75.2 60.3 75.4C60.2 75.4 60.2 75.5 60.1 75.5ZM25.2 75.2C25.1 75.2 25.1 75.2 25 75.2C24.6 75 24.1 74.7 23.7 74.4C23.5 74.3 23.5 74.1 23.6 73.9C23.7 73.7 23.9 73.7 24.1 73.8C24.5 74.1 24.9 74.3 25.4 74.5C25.6 74.6 25.6 74.8 25.5 75C25.4 75.1 25.3 75.2 25.2 75.2ZM63.1 73.7C63 73.7 62.9 73.6 62.8 73.5C62.7 73.3 62.7 73.1 62.9 73C63.3 72.7 63.7 72.5 64.1 72.2C64.3 72.1 64.5 72.1 64.6 72.3C64.7 72.5 64.7 72.7 64.5 72.8C64.1 73.1 63.7 73.4 63.3 73.7C63.2 73.7 63.1 73.7 63.1 73.7ZM22.2 73.4C22.1 73.4 22.1 73.4 22 73.3C21.6 73 21.2 72.7 20.8 72.4C20.6 72.3 20.6 72 20.7 71.9C20.8 71.7 21.1 71.7 21.2 71.8C21.6 72.1 22 72.4 22.4 72.7C22.6 72.8 22.6 73 22.5 73.2C22.5 73.3 22.4 73.4 22.2 73.4ZM65.8 71.7C65.7 71.7 65.6 71.7 65.5 71.6C65.4 71.4 65.4 71.2 65.6 71.1C66 70.8 66.4 70.5 66.7 70.2C66.9 70.1 67.1 70.1 67.2 70.2C67.3 70.4 67.3 70.6 67.2 70.7C66.8 71 66.4 71.3 66.1 71.7C66 71.6 65.9 71.7 65.8 71.7ZM19.5 71.3C19.4 71.3 19.3 71.3 19.3 71.2C18.9 70.9 18.5 70.6 18.2 70.2C18 70.1 18 69.8 18.2 69.7C18.3 69.5 18.6 69.5 18.7 69.7C19.1 70 19.4 70.3 19.8 70.7C20 70.8 20 71.1 19.8 71.2C19.7 71.2 19.6 71.3 19.5 71.3ZM68.4 69.4C68.3 69.4 68.2 69.4 68.1 69.3C68 69.2 68 68.9 68.1 68.8C68.4 68.5 68.8 68.1 69.1 67.8C69.2 67.7 69.5 67.6 69.6 67.8C69.7 67.9 69.8 68.2 69.6 68.3C69.3 68.7 68.9 69 68.6 69.4C68.6 69.3 68.5 69.4 68.4 69.4ZM17 68.9C16.9 68.9 16.8 68.9 16.7 68.8C16.3 68.4 16 68.1 15.7 67.7C15.6 67.5 15.6 67.3 15.7 67.2C15.9 67.1 16.1 67.1 16.2 67.2C16.5 67.6 16.9 67.9 17.2 68.3C17.3 68.4 17.3 68.7 17.2 68.8C17.1 68.9 17 68.9 17 68.9ZM70.8 66.8C70.7 66.8 70.6 66.8 70.6 66.7C70.4 66.6 70.4 66.3 70.6 66.2C70.9 65.8 71.2 65.4 71.5 65.1C71.6 64.9 71.9 64.9 72 65C72.2 65.1 72.2 65.4 72.1 65.5C71.8 65.9 71.5 66.3 71.2 66.7C71 66.8 70.9 66.8 70.8 66.8ZM14.6 66.4C14.5 66.4 14.4 66.4 14.3 66.3C14 65.9 13.7 65.5 13.4 65.1C13.3 64.9 13.3 64.7 13.5 64.6C13.7 64.5 13.9 64.5 14 64.7C14.3 65.1 14.6 65.5 14.9 65.9C15 66.1 15 66.3 14.8 66.4C14.8 66.3 14.7 66.4 14.6 66.4ZM72.9 64.1C72.8 64.1 72.8 64.1 72.7 64C72.5 63.9 72.5 63.7 72.6 63.5C72.9 63.1 73.1 62.7 73.4 62.3C73.5 62.1 73.7 62.1 73.9 62.2C74.1 62.3 74.1 62.5 74 62.7C73.7 63.1 73.5 63.5 73.2 63.9C73.1 64.1 73 64.1 72.9 64.1ZM12.6 63.6C12.5 63.6 12.4 63.5 12.3 63.4C12 63 11.8 62.6 11.5 62.1C11.4 61.9 11.4 61.7 11.6 61.6C11.8 61.5 12 61.5 12.1 61.7C12.4 62.1 12.6 62.5 12.9 62.9C13 63.1 13 63.3 12.8 63.4C12.7 63.6 12.7 63.6 12.6 63.6ZM74.7 61.2C74.6 61.2 74.6 61.2 74.5 61.2C74.3 61.1 74.3 60.9 74.4 60.7C74.6 60.3 74.9 59.8 75.1 59.4C75.2 59.2 75.4 59.1 75.6 59.2C75.8 59.3 75.9 59.5 75.8 59.7C75.6 60.1 75.3 60.6 75.1 61C75 61.1 74.8 61.2 74.7 61.2ZM10.8 60.7C10.7 60.7 10.5 60.6 10.5 60.5C10.3 60.1 10 59.6 9.8 59.2C9.7 59 9.8 58.8 10 58.7C10.2 58.6 10.4 58.7 10.5 58.9C10.7 59.3 10.9 59.8 11.2 60.2C11.3 60.4 11.2 60.6 11.1 60.7C10.9 60.6 10.9 60.7 10.8 60.7ZM76.3 58.1H76.2C76 58 75.9 57.8 76 57.6C76.2 57.2 76.4 56.7 76.6 56.2C76.6 56 76.8 56 77 56C77.2 56.1 77.3 56.3 77.2 56.5C77 57 76.8 57.4 76.6 57.9C76.5 58 76.4 58.1 76.3 58.1ZM9.3 57.6C9.2 57.6 9 57.5 9 57.4C8.8 56.9 8.6 56.5 8.4 56C8.3 55.8 8.4 55.6 8.6 55.5C8.8 55.4 9 55.5 9.1 55.7C9.3 56.2 9.5 56.6 9.6 57.1C9.7 57.3 9.6 57.5 9.4 57.6C9.4 57.6 9.4 57.6 9.3 57.6ZM77.5 54.9H77.4C77.2 54.8 77.1 54.6 77.2 54.4C77.4 53.9 77.5 53.5 77.6 53C77.7 52.8 77.9 52.7 78.1 52.7C78.3 52.8 78.4 53 78.4 53.2C78.3 53.7 78.1 54.2 78 54.6C77.8 54.8 77.7 54.9 77.5 54.9ZM8.1 54.3C7.9 54.3 7.8 54.2 7.7 54C7.5 53.5 7.4 53 7.3 52.6C7.2 52.4 7.4 52.2 7.6 52.1C7.8 52 8 52.2 8.1 52.4C8.2 52.9 8.4 53.3 8.5 53.8C8.6 54 8.5 54.2 8.3 54.3C8.2 54.3 8.2 54.3 8.1 54.3ZM78.4 51.6C78.1 51.5 78 51.3 78 51.1C78.1 50.6 78.2 50.1 78.3 49.7C78.3 49.5 78.5 49.4 78.7 49.4C78.9 49.4 79 49.6 79 49.8C78.9 50.3 78.8 50.8 78.7 51.3C78.8 51.5 78.6 51.6 78.4 51.6ZM7.2 51C7 51 6.9 50.9 6.8 50.7C6.7 50.2 6.6 49.7 6.5 49.2C6.5 49 6.6 48.8 6.8 48.8C7 48.8 7.2 48.9 7.2 49.1C7.3 49.6 7.4 50.1 7.5 50.5C7.6 50.8 7.5 51 7.2 51C7.3 51 7.3 51 7.2 51ZM79.1 48.2C79.1 48.2 79 48.2 79.1 48.2C78.8 48.2 78.7 48 78.7 47.8C78.8 47.3 78.8 46.7 78.9 46.2C78.9 46 79.1 45.9 79.3 45.9C79.5 45.9 79.7 46.1 79.6 46.3C79.6 46.8 79.5 47.5 79.4 48C79.4 48 79.2 48.2 79.1 48.2ZM6.7 47.6C6.5 47.6 6.4 47.5 6.3 47.3C6.2 46.8 6.2 46.3 6.2 45.8C6.2 45.6 6.3 45.4 6.5 45.4C6.7 45.4 6.9 45.5 6.9 45.7C6.9 46.2 7 46.7 7 47.2C7.1 47.4 6.9 47.6 6.7 47.6ZM79.4 44.4C79.2 44.4 79 44.2 79 44C79 43.5 79 43.4 79 42.9C79 42.8 79 42.6 79 42.6C79 42.1 79 42 79 41.5C79 41.3 79.1 41.1 79.4 41.1C79.6 41.1 79.8 41.2 79.8 41.5C79.8 42 79.8 42.1 79.8 42.6C79.8 42.7 79.8 42.9 79.8 42.9C79.8 43.4 79.8 43.5 79.8 44C79.7 44.2 79.6 44.4 79.4 44.4ZM6.4 44.2C6.2 44.2 6 44 6 43.8C6 43.5 6 43.2 6 42.9V42.3C6 42.1 6.2 42 6.4 42C6.6 42 6.8 42.2 6.8 42.4V43C6.8 43.3 6.8 43.6 6.8 43.9C6.8 44 6.6 44.2 6.4 44.2ZM6.5 40.7C6.3 40.7 6.1 40.5 6.1 40.3C6.1 39.8 6.2 39.3 6.2 38.8C6.2 38.6 6.4 38.5 6.6 38.5C6.8 38.5 6.9 38.7 6.9 38.9C6.8 39.4 6.8 39.9 6.8 40.4C6.8 40.6 6.7 40.7 6.5 40.7ZM79.2 39.7C79 39.7 78.9 39.6 78.8 39.4C78.7 38.9 78.7 38.3 78.6 37.8C78.6 37.6 78.7 37.4 78.9 37.4C79.1 37.4 79.3 37.5 79.3 37.7C79.4 38.2 79.4 38.9 79.5 39.4C79.6 39.5 79.4 39.7 79.2 39.7ZM6.9 37.3C6.6 37.3 6.5 37.1 6.5 36.9C6.6 36.4 6.7 35.9 6.8 35.4C6.8 35.2 7 35.1 7.2 35.1C7.4 35.1 7.5 35.3 7.5 35.5C7.4 36 7.3 36.5 7.2 36.9C7.2 37.2 7.1 37.3 6.9 37.3ZM78.7 36.1C78.5 36.1 78.4 36 78.3 35.8C78.2 35.3 78.1 34.8 78 34.4C78 34.2 78.1 34 78.3 34C78.5 33.9 78.7 34.1 78.7 34.3C78.8 34.8 78.9 35.3 79 35.8C79.1 35.9 79 36.1 78.7 36.1ZM7.6 33.9C7.3 33.8 7.2 33.6 7.2 33.4C7.3 32.9 7.5 32.4 7.6 32C7.7 31.8 7.9 31.7 8.1 31.8C8.3 31.9 8.4 32.1 8.3 32.3C8.2 32.8 8 33.2 7.9 33.7C7.9 33.8 7.8 33.9 7.6 33.9ZM77.9 32.8C77.7 32.8 77.6 32.7 77.5 32.5C77.4 32 77.2 31.6 77.1 31.1C77 30.9 77.1 30.7 77.3 30.6C77.5 30.5 77.7 30.6 77.8 30.8C78 31.3 78.1 31.7 78.3 32.2C78.4 32.4 78.2 32.6 78.1 32.7C77.9 32.8 77.9 32.8 77.9 32.8ZM8.7 30.6H8.6C8.4 30.5 8.3 30.3 8.4 30.1C8.6 29.6 8.8 29.2 8.9 28.7C9 28.5 9.2 28.4 9.4 28.5C9.6 28.6 9.7 28.8 9.6 29C9.4 29.5 9.2 29.9 9.1 30.4C8.9 30.5 8.8 30.6 8.7 30.6ZM76.7 29.5C76.6 29.5 76.4 29.4 76.4 29.3C76.2 28.8 76 28.4 75.8 28C75.7 27.8 75.8 27.6 76 27.5C76.2 27.4 76.4 27.5 76.5 27.7C76.7 28.2 76.9 28.6 77.1 29.1C77.2 29.3 77.1 29.5 76.9 29.6C76.8 29.5 76.8 29.5 76.7 29.5ZM10 27.5C9.9 27.5 9.9 27.5 9.8 27.5C9.6 27.4 9.5 27.2 9.6 27C9.8 26.6 10 26.1 10.3 25.7C10.4 25.5 10.6 25.5 10.8 25.5C11 25.6 11 25.8 11 26C10.8 26.4 10.6 26.9 10.3 27.3C10.3 27.4 10.1 27.5 10 27.5ZM75.3 26.4C75.2 26.4 75 26.3 75 26.2C74.8 25.8 74.5 25.3 74.3 24.9C74.2 24.7 74.3 24.5 74.4 24.4C74.6 24.3 74.8 24.4 74.9 24.5C75.1 24.9 75.4 25.4 75.6 25.8C75.7 26 75.6 26.2 75.4 26.3C75.4 26.4 75.3 26.4 75.3 26.4ZM11.6 24.4C11.5 24.4 11.5 24.4 11.4 24.3C11.2 24.2 11.2 24 11.3 23.8C11.6 23.4 11.8 23 12.1 22.5C12.2 22.3 12.4 22.3 12.6 22.4C12.8 22.5 12.8 22.7 12.7 22.9C12.4 23.3 12.2 23.7 11.9 24.1C11.9 24.4 11.8 24.4 11.6 24.4ZM73.5 23.4C73.4 23.4 73.3 23.3 73.2 23.2C72.9 22.8 72.7 22.4 72.4 22C72.3 21.8 72.3 21.6 72.5 21.5C72.7 21.4 72.9 21.4 73 21.6C73.3 22 73.6 22.4 73.8 22.8C73.9 23 73.9 23.2 73.7 23.3C73.7 23.4 73.6 23.4 73.5 23.4ZM13.6 21.6C13.5 21.6 13.4 21.6 13.4 21.5C13.2 21.4 13.2 21.1 13.3 21C13.6 20.6 13.9 20.2 14.2 19.8C14.3 19.6 14.6 19.6 14.7 19.7C14.9 19.8 14.9 20.1 14.8 20.2C14.5 20.6 14.2 21 13.9 21.4C13.8 21.5 13.7 21.6 13.6 21.6ZM71.5 20.6C71.4 20.6 71.3 20.6 71.2 20.5C70.9 20.1 70.6 19.7 70.3 19.4C70.2 19.2 70.2 19 70.3 18.9C70.5 18.8 70.7 18.8 70.8 18.9C71.1 19.3 71.4 19.7 71.7 20C71.8 20.2 71.8 20.4 71.6 20.5C71.7 20.6 71.6 20.6 71.5 20.6ZM15.7 18.9C15.6 18.9 15.5 18.9 15.5 18.8C15.3 18.7 15.3 18.4 15.5 18.3C15.8 17.9 16.2 17.6 16.5 17.2C16.6 17.1 16.9 17.1 17 17.2C17.1 17.3 17.1 17.6 17 17.7C16.7 18 16.3 18.4 16 18.8C15.9 18.9 15.8 18.9 15.7 18.9ZM69.3 18C69.2 18 69.1 18 69 17.9C68.7 17.5 68.3 17.2 68 16.9C67.9 16.8 67.8 16.5 68 16.4C68.1 16.3 68.4 16.2 68.5 16.4C68.9 16.7 69.2 17.1 69.6 17.5C69.7 17.6 69.7 17.9 69.6 18C69.4 18 69.4 18 69.3 18ZM18.2 16.4C18.1 16.4 18 16.4 17.9 16.3C17.8 16.2 17.8 15.9 17.9 15.8C18.3 15.5 18.6 15.1 19 14.8C19.2 14.7 19.4 14.7 19.5 14.8C19.6 15 19.6 15.2 19.5 15.3C19.1 15.6 18.8 15.9 18.4 16.3C18.3 16.4 18.3 16.4 18.2 16.4ZM66.8 15.7C66.7 15.7 66.6 15.7 66.6 15.6C66.2 15.3 65.9 15 65.5 14.7C65.3 14.6 65.3 14.3 65.4 14.2C65.5 14 65.8 14 65.9 14.1C66.3 14.4 66.7 14.7 67 15.1C67.2 15.2 67.2 15.5 67 15.6C67 15.6 66.9 15.7 66.8 15.7ZM20.8 14.2C20.7 14.2 20.6 14.1 20.5 14.1C20.4 13.9 20.4 13.7 20.6 13.6C21 13.3 21.4 13 21.8 12.7C22 12.6 22.2 12.6 22.3 12.8C22.4 13 22.4 13.2 22.2 13.3C21.8 13.6 21.4 13.9 21 14.2C21 14.2 20.9 14.2 20.8 14.2ZM64.1 13.5C64 13.5 64 13.5 63.9 13.4C63.5 13.1 63.1 12.8 62.7 12.6C62.5 12.5 62.5 12.3 62.6 12.1C62.7 11.9 62.9 11.9 63.1 12C63.5 12.3 63.9 12.6 64.3 12.8C64.5 12.9 64.5 13.1 64.4 13.3C64.3 13.5 64.2 13.5 64.1 13.5ZM23.6 12.3C23.5 12.3 23.4 12.2 23.3 12.1C23.2 11.9 23.2 11.7 23.4 11.6C23.8 11.3 24.2 11.1 24.7 10.8C24.9 10.7 25.1 10.8 25.2 10.9C25.3 11.1 25.2 11.3 25.1 11.4C24.7 11.6 24.3 11.9 23.8 12.1C23.8 12.3 23.7 12.3 23.6 12.3ZM61.2 11.7C61.1 11.7 61.1 11.7 61 11.7C60.6 11.5 60.2 11.2 59.7 11C59.5 10.9 59.5 10.7 59.5 10.5C59.6 10.3 59.8 10.3 60 10.3C60.4 10.5 60.9 10.8 61.3 11C61.5 11.1 61.5 11.3 61.4 11.5C61.4 11.6 61.3 11.7 61.2 11.7ZM26.6 10.6C26.5 10.6 26.3 10.5 26.3 10.4C26.2 10.2 26.3 10 26.5 9.9C26.9 9.7 27.4 9.5 27.8 9.3C28 9.2 28.2 9.3 28.3 9.5C28.4 9.7 28.3 9.9 28.1 10C27.7 10.2 27.2 10.4 26.8 10.6C26.8 10.6 26.7 10.6 26.6 10.6ZM58.1 10.1C58 10.1 58 10.1 57.9 10.1C57.5 9.9 57 9.7 56.6 9.5C56.4 9.4 56.3 9.2 56.4 9C56.5 8.8 56.7 8.7 56.9 8.8C57.4 9 57.8 9.2 58.3 9.4C58.5 9.5 58.6 9.7 58.5 9.9C58.4 10 58.2 10.1 58.1 10.1ZM29.8 9.2C29.7 9.2 29.5 9.1 29.5 9C29.4 8.8 29.5 8.6 29.7 8.5C30.2 8.3 30.6 8.2 31.1 8C31.3 7.9 31.5 8 31.6 8.2C31.7 8.4 31.6 8.6 31.4 8.7C30.9 8.9 30.5 9 30 9.2C29.9 9.2 29.8 9.2 29.8 9.2ZM54.9 8.8H54.8C54.3 8.6 53.9 8.5 53.4 8.3C53.2 8.2 53.1 8 53.2 7.8C53.3 7.6 53.5 7.5 53.7 7.6C54.2 7.7 54.7 7.9 55.1 8.1C55.3 8.2 55.4 8.4 55.3 8.6C55.2 8.7 55 8.8 54.9 8.8ZM33.1 8.1C32.9 8.1 32.8 8 32.7 7.8C32.6 7.6 32.8 7.4 33 7.3C33.5 7.2 34 7 34.4 6.9C34.6 6.9 34.8 7 34.8 7.2C34.8 7.4 34.7 7.6 34.5 7.6C34.1 7.9 33.6 8 33.1 8.1ZM51.6 7.8C51.5 7.8 51.5 7.8 51.6 7.8C51 7.7 50.6 7.6 50.1 7.5C49.9 7.5 49.8 7.3 49.8 7.1C49.8 6.9 50 6.8 50.2 6.8C50.7 6.9 51.2 7 51.7 7.1C51.9 7.1 52 7.3 52 7.5C51.9 7.7 51.7 7.8 51.6 7.8ZM36.4 7.4C36.2 7.4 36.1 7.3 36 7.1C36 6.9 36.1 6.7 36.3 6.7C36.8 6.6 37.3 6.5 37.8 6.5C38 6.5 38.2 6.6 38.2 6.8C38.2 7 38.1 7.2 37.9 7.2C37.4 7.2 37 7.3 36.4 7.4C36.4 7.4 36.5 7.3 36.4 7.4ZM48.2 7.2C47.7 7.1 47.2 7.1 46.7 7C46.5 7 46.4 6.8 46.4 6.6C46.4 6.4 46.6 6.3 46.8 6.3C47.3 6.4 47.8 6.4 48.3 6.5C48.5 6.5 48.6 6.7 48.6 6.9C48.5 7 48.4 7.2 48.2 7.2ZM39.8 6.9C39.6 6.9 39.4 6.8 39.4 6.6C39.4 6.4 39.5 6.2 39.7 6.2C40.2 6.2 40.7 6.1 41.2 6.1C41.4 6.1 41.6 6.3 41.6 6.5C41.6 6.7 41.5 6.9 41.2 6.9C40.8 6.8 40.4 6.9 39.8 6.9C39.8 6.9 39.9 6.9 39.8 6.9ZM44.8 6.8C44.8 6.8 44.7 6.8 44.8 6.8C44.3 6.8 43.8 6.8 43.3 6.8C43.1 6.8 42.9 6.6 42.9 6.4C42.9 6.2 43.1 6 43.3 6C43.8 6 44.3 6 44.8 6C45 6 45.2 6.2 45.1 6.4C45.1 6.7 45 6.8 44.8 6.8Z" fill="#C9E3EF"/>
<path d="M85.7 45.6C85.7 45.3 85.6 45 85.4 44.7L85 44.2L85.5 43.7C85.7 43.5 85.9 43.1 85.9 42.8C85.9 42.5 85.8 42.2 85.5 41.9L85 41.4L85.4 40.9C85.6 40.7 85.7 40.3 85.7 40C85.7 39.7 85.6 39.4 85.3 39.2L84.8 38.8L85.2 38.3C85.4 38 85.5 37.7 85.4 37.4C85.4 37.1 85.2 36.8 84.9 36.6L84.4 36.2L84.8 35.7C85 35.4 85.1 35.1 85 34.8C84.9 34.5 84.8 34.2 84.5 34L84 33.7L84.3 33.1C84.5 32.8 84.5 32.5 84.4 32.2C84.3 31.9 84.1 31.6 83.9 31.4L83.4 31.1L83.7 30.5C83.9 30.2 83.9 29.9 83.8 29.6C83.7 29.3 83.5 29 83.2 28.9L82.6 28.6L82.9 28C83 27.7 83 27.4 82.9 27.1C82.8 26.8 82.6 26.5 82.3 26.4L81.7 26.2L81.9 25.6C82 25.3 82 25 81.8 24.7C81.7 24.4 81.4 24.2 81.1 24.1L80.5 23.9L80.7 23.3C80.8 23 80.8 22.6 80.6 22.4C80.4 22.1 80.2 21.9 79.8 21.8L79.2 21.6L79.3 21C79.4 20.7 79.3 20.3 79.1 20.1C78.9 19.8 78.7 19.6 78.4 19.5L77.8 19.4L77.9 18.8C77.9 18.5 77.8 18.2 77.7 17.9C77.5 17.6 77.2 17.5 76.9 17.4L76.3 17.3L76.4 16.6C76.4 16.3 76.3 15.9 76.1 15.7C75.9 15.5 75.6 15.3 75.3 15.3L74.6 15.2V14.6C74.6 14.3 74.5 14 74.3 13.7C74.1 13.5 73.8 13.3 73.5 13.3H72.9V12.7C72.9 12.4 72.7 12.1 72.5 11.9C72.3 11.7 72 11.6 71.6 11.6H71V10.9C71 10.6 70.8 10.3 70.6 10.1C70.4 9.9 70 9.8 69.7 9.8L69 9.9L68.6 9C68.5 8.7 68.4 8.4 68.1 8.2C67.8 8 67.5 7.9 67.2 8L66.6 8.1L66.5 7.5C66.4 7.2 66.2 6.9 65.9 6.8C65.6 6.6 65.3 6.6 65 6.6L64.4 6.7L64.2 6.1C64.1 5.8 63.9 5.5 63.6 5.3C63.3 5.1 63 5.1 62.7 5.2L62 5.4L61.8 4.8C61.7 4.5 61.4 4.3 61.2 4.1C60.9 4 60.6 3.9 60.3 4L59.7 4.2L59.5 3.6C59.2 3.4 59 3.1 58.7 3C58.4 2.9 58.1 2.9 57.8 3L57.2 3.3L56.9 2.7C56.8 2.4 56.5 2.2 56.2 2.1C55.9 2 55.5 2 55.2 2.2L54.6 2.5L54.3 2C54.1 1.7 53.9 1.5 53.5 1.5C53.2 1.4 52.9 1.5 52.6 1.6L52 1.9L51.6 1.3C51.4 1 51.1 0.9 50.8 0.8C50.5 0.8 50.2 0.8 49.9 1L49.4 1.4L49 0.9C48.8 0.6 48.5 0.5 48.2 0.4C47.9 0.4 47.6 0.4 47.3 0.6L46.9 1L46.5 0.5C46.3 0.3 46 0.1 45.7 0.1C45.4 0.1 45.1 0.2 44.8 0.4L44.3 0.8L43.8 0.3C43.5 0.1 43.2 0 42.9 0C42.6 0 42.3 0.1 42 0.4L41.5 0.9L41 0.5C40.8 0.3 40.4 0.2 40.1 0.2C39.8 0.2 39.5 0.3 39.3 0.6L38.9 1L38.4 0.6C38.1 0.4 37.8 0.3 37.5 0.4C37.2 0.4 36.9 0.6 36.7 0.9L36.3 1.4L35.8 1C35.5 0.8 35.2 0.7 34.9 0.8C34.6 0.9 34.3 1 34.1 1.3L33.7 1.9L33.1 1.6C32.8 1.4 32.5 1.4 32.2 1.5C31.9 1.6 31.6 1.8 31.4 2L31.1 2.5L30.5 2.2C30.3 2 29.9 2 29.6 2.1C29.3 2.2 29 2.4 28.9 2.7L28.6 3.3L28 3C27.7 2.9 27.4 2.9 27.1 3C26.8 3.1 26.5 3.3 26.4 3.6L26.2 4.2L25.6 4C25.3 3.9 25 3.9 24.7 4.1C24.4 4.2 24.2 4.5 24.1 4.8L23.9 5.4L23.3 5.2C23 5.1 22.6 5.1 22.4 5.3C22.1 5.5 21.9 5.7 21.8 6.1L21.6 6.7L21 6.6C20.7 6.5 20.3 6.6 20.1 6.8C19.8 7 19.6 7.2 19.5 7.5L19.4 8.1L18.6 8C18.3 8 18 8.1 17.7 8.2C17.4 8.4 17.3 8.7 17.2 9L17.1 9.6L16.4 9.5C16.1 9.5 15.7 9.6 15.5 9.8C15.3 10 15.1 10.3 15.1 10.6V11.3H14.5C14.2 11.3 13.9 11.4 13.6 11.6C13.4 11.8 13.2 12.1 13.2 12.4V13H12.6C12.3 13 12 13.2 11.8 13.4C11.6 13.6 11.5 13.9 11.5 14.3V14.9L10.8 15C10.5 15 10.2 15.2 10 15.4C9.8 15.6 9.7 16 9.7 16.3L9.8 17L9 17.2C8.7 17.3 8.4 17.4 8.2 17.7C8 18 7.9 18.3 8 18.6L8.1 19.2L7.5 19.3C7.2 19.4 6.9 19.6 6.8 19.9C6.6 20.2 6.6 20.5 6.6 20.8L6.7 21.4L6.1 21.6C5.8 21.7 5.5 21.9 5.3 22.2C5.1 22.5 5.1 22.8 5.2 23.1L5.4 23.7L4.8 24C4.5 24.1 4.3 24.3 4.1 24.6C4 24.9 3.9 25.2 4 25.5L4.2 26.1L3.6 26.3C3.3 26.4 3.1 26.7 3 27C2.9 27.3 2.9 27.6 3 27.9L3.3 28.5L2.7 28.8C2.4 29 2.2 29.2 2.1 29.5C2 29.9 2 30.3 2.2 30.6L2.5 31.2L2 31.5C1.7 31.7 1.5 31.9 1.5 32.3C1.4 32.6 1.5 32.9 1.6 33.2L1.9 33.8L1.3 34.2C1 34.4 0.9 34.7 0.8 35C0.8 35.3 0.8 35.6 1 35.9L1.4 36.4L0.9 36.8C0.6 37 0.5 37.3 0.4 37.6C0.4 37.9 0.4 38.2 0.6 38.5L1 38.9L0.5 39.3C0.3 39.5 0.1 39.8 0.1 40.1C0.1 40.4 0.2 40.7 0.4 41L0.8 41.5L0.4 42C0.1 42.3 0 42.6 0 42.9C0 43.2 0.1 43.5 0.4 43.8L0.9 44.3L0.5 44.8C0.3 45 0.2 45.4 0.2 45.7C0.2 46 0.3 46.3 0.6 46.5L1 46.9L0.6 47.4C0.4 47.7 0.3 48 0.4 48.3C0.4 48.6 0.6 48.9 0.9 49.1L1.4 49.5L1 50C0.8 50.3 0.7 50.6 0.8 50.9C0.9 51.2 1 51.5 1.3 51.7L1.9 52.1L1.6 52.7C1.4 53 1.4 53.3 1.5 53.6C1.6 53.9 1.8 54.2 2 54.4L2.5 54.7L2.2 55.3C2 55.5 2 55.9 2.1 56.2C2.2 56.5 2.4 56.8 2.7 56.9L3.3 57.2L3 57.8C2.9 58.1 2.9 58.4 3 58.7C3.1 59 3.3 59.3 3.6 59.4L4.2 59.6L4 60.2C3.9 60.5 3.9 60.8 4.1 61.1C4.2 61.4 4.5 61.6 4.8 61.7L5.4 62L5.2 62.6C5.1 62.9 5.1 63.3 5.3 63.5C5.5 63.8 5.7 64 6 64.1L6.6 64.3L6.5 64.9C6.4 65.2 6.5 65.6 6.7 65.8C6.9 66.1 7.1 66.3 7.4 66.4L8 66.5V67.2C8 67.5 8.1 67.8 8.2 68.1C8.4 68.4 8.7 68.5 9 68.6L9.6 68.7L9.5 69.4C9.5 69.7 9.6 70.1 9.8 70.3C10 70.5 10.3 70.7 10.6 70.7H11.3V71.3C11.3 71.6 11.4 71.9 11.6 72.2C11.8 72.4 12.1 72.6 12.4 72.6H13V73.2C13 73.5 13.2 73.8 13.4 74C13.6 74.2 13.9 74.3 14.3 74.3H14.9V75C14.9 75.3 15.1 75.6 15.3 75.8C15.5 76 15.9 76.1 16.2 76.1L16.9 76L17 76.6C17.1 76.9 17.2 77.2 17.5 77.4C17.8 77.6 18.1 77.7 18.4 77.6L19 77.5L19.1 78.1C19.2 78.4 19.4 78.7 19.7 78.8C20 79 20.3 79 20.6 79L21.2 78.9L21.4 79.5C21.5 79.8 21.7 80.1 22 80.2C22.3 80.4 22.6 80.4 22.9 80.3L23.5 80.1L24 81C24.1 81.3 24.3 81.6 24.6 81.7C24.9 81.8 25.2 81.9 25.5 81.8L26.1 81.6L26.3 82.2C26.4 82.5 26.7 82.7 27 82.8C27.3 82.9 27.6 82.9 27.9 82.8L28.5 82.5L28.8 83.1C28.9 83.4 29.2 83.6 29.5 83.7C29.8 83.8 30.1 83.8 30.4 83.6L31 83.3L31.3 83.8C31.5 84.1 31.7 84.3 32.1 84.3C32.4 84.4 32.7 84.3 33 84.2L33.6 83.9L34 84.5C34.2 84.8 34.5 84.9 34.8 85C35.1 85 35.4 85 35.7 84.8L36.2 84.4L36.6 84.9C36.8 85.2 37.1 85.3 37.4 85.4C37.7 85.4 38 85.4 38.3 85.2L38.8 84.8L39.2 85.3C39.4 85.5 39.7 85.7 40 85.7C40.3 85.7 40.6 85.6 40.9 85.4L41.4 85L41.9 85.5C42.1 85.7 42.4 85.9 42.8 85.9C43.1 85.9 43.4 85.8 43.7 85.5L44.2 85L44.7 85.4C44.9 85.6 45.3 85.7 45.6 85.7C45.9 85.7 46.2 85.6 46.4 85.3L46.8 84.8L47.3 85.2C47.6 85.4 47.9 85.5 48.2 85.4C48.5 85.4 48.8 85.2 49 84.9L49.4 84.4L49.9 84.8C50.2 85 50.5 85.1 50.8 85C51.1 84.9 51.4 84.8 51.6 84.5L52 83.9L52.6 84.2C52.9 84.4 53.2 84.4 53.5 84.3C53.8 84.2 54.1 84 54.3 83.8L54.6 83.3L55.2 83.6C55.5 83.8 55.8 83.8 56.1 83.7C56.4 83.6 56.7 83.4 56.8 83.1L57.1 82.5L57.7 82.8C58 82.9 58.3 82.9 58.6 82.8C58.9 82.7 59.2 82.5 59.3 82.2L59.5 81.6L60.1 81.8C60.4 81.9 60.7 81.9 61 81.7C61.3 81.6 61.5 81.3 61.6 81L61.8 80.4L62.4 80.6C62.7 80.7 63.1 80.7 63.3 80.5C63.6 80.3 63.8 80.1 63.9 79.8L64.1 79.2L64.7 79.3C65 79.4 65.4 79.3 65.6 79.1C65.9 78.9 66.1 78.7 66.2 78.4L66.3 77.8L66.9 77.9C67.2 77.9 67.5 77.8 67.8 77.7C68.1 77.5 68.2 77.2 68.3 76.9L68.4 76.3L69.1 76.4C69.4 76.4 69.8 76.3 70 76.1C70.2 75.9 70.4 75.6 70.4 75.3V74.6H71C71.3 74.6 71.6 74.5 71.9 74.3C72.1 74.1 72.3 73.8 72.3 73.5V72.9H72.9C73.2 72.9 73.5 72.7 73.7 72.5C73.9 72.3 74 72 74 71.6V71H74.7C75 71 75.3 70.8 75.5 70.6C75.7 70.4 75.8 70 75.8 69.7L75.7 69L76.3 68.9C76.6 68.8 76.9 68.7 77.1 68.4C77.3 68.1 77.4 67.8 77.3 67.5L77.2 66.9L77.8 66.8C78.1 66.7 78.4 66.5 78.5 66.2C78.7 65.9 78.7 65.6 78.7 65.3L78.6 64.7L79.2 64.5C79.5 64.4 79.8 64.2 80 63.9C80.2 63.6 80.2 63.3 80.1 63L80.4 62L81 61.8C81.3 61.7 81.5 61.5 81.7 61.2C81.8 60.9 81.9 60.6 81.8 60.3L81.6 59.7L82.2 59.5C82.5 59.4 82.7 59.1 82.8 58.8C82.9 58.5 82.9 58.2 82.8 57.9L82.5 57.3L83.1 57C83.4 56.9 83.6 56.6 83.7 56.3C83.8 56 83.8 55.7 83.6 55.4L83.3 54.8L83.8 54.5C84.1 54.3 84.3 54.1 84.3 53.7C84.4 53.4 84.3 53.1 84.2 52.8L84 52.1L84.6 51.7C84.9 51.5 85 51.2 85.1 50.9C85.1 50.6 85.1 50.3 84.9 50L84.5 49.5L85 49.1C85.3 48.9 85.4 48.6 85.5 48.3C85.5 48 85.5 47.7 85.3 47.4L84.9 46.9L85.4 46.5C85.5 46.2 85.7 45.9 85.7 45.6ZM85.1 42.4C85.2 42.5 85.3 42.7 85.3 42.9C85.3 43.1 85.2 43.2 85.1 43.4L84.6 43.9L83.7 43L81.8 41.3C81.7 41.2 81.6 41 81.6 40.9C81.6 40.7 81.6 40.6 81.8 40.5L82.2 40C83.2 40.7 84.1 41.5 85.1 42.4ZM84.9 39.8C85 39.9 85.1 40.1 85.1 40.3C85.1 40.5 85.1 40.6 84.9 40.8L84.5 41.3C83.6 40.4 82.6 39.6 81.7 38.9C81.6 38.8 81.5 38.6 81.5 38.5V38.2L81.6 38.1L82 37.6L82.6 38.1C83.5 38.5 84.2 39.1 84.9 39.8ZM84.6 37.2C84.7 37.3 84.8 37.5 84.9 37.6C84.9 37.8 84.9 37.9 84.8 38.1L84.4 38.6L83.4 37.8L81.4 36.3C81.3 36.2 81.2 36.1 81.2 35.9C81.2 35.7 81.2 35.6 81.3 35.4L81.7 34.9C82.6 35.6 83.6 36.4 84.6 37.2ZM84.2 34.5C84.3 34.6 84.4 34.8 84.5 34.9C84.5 35.1 84.5 35.2 84.4 35.4L84 36C83 35.2 82 34.6 80.9 33.9C80.8 33.8 80.7 33.7 80.6 33.5V33.2L80.7 33.1L81 32.6L81.7 33C82.5 33.4 83.4 34 84.2 34.5ZM83.6 32C83.8 32.1 83.9 32.2 83.9 32.4C83.9 32.6 83.9 32.7 83.8 32.9L83.5 33.5L82.4 32.8L80.3 31.6C80.1 31.5 80.1 31.4 80 31.2C79.9 31.1 80 30.9 80 30.7L80.3 30.2C81.5 30.7 82.5 31.3 83.6 32ZM82.8 29.4C83 29.5 83.1 29.6 83.1 29.8C83.2 30 83.2 30.1 83.1 30.3L82.8 30.9C81.7 30.3 80.5 29.8 79.4 29.3C79.2 29.2 79.1 29.1 79.1 29V28.7V28.6L79.4 28L80.1 28.3L82.8 29.4ZM81.9 26.9C82.1 27 82.2 27.1 82.2 27.3C82.3 27.5 82.3 27.6 82.2 27.8L82 28.4L80.8 27.9C80.1 27.6 79.3 27.3 78.5 27C78.3 26.9 78.2 26.8 78.1 26.7C78 26.6 78 26.4 78.1 26.2L78.3 25.6C79.5 26 80.8 26.4 81.9 26.9ZM80.8 24.5C81 24.6 81.1 24.7 81.2 24.8C81.3 25 81.3 25.1 81.2 25.3L81 26C79.8 25.5 78.6 25.1 77.5 24.8C77.3 24.8 77.2 24.6 77.1 24.5L77 24.2V24.1L77.2 23.5L78 23.7C79 23.9 79.9 24.2 80.8 24.5ZM79.6 22.2C79.8 22.2 79.9 22.4 80 22.5C80.1 22.6 80.1 22.8 80.1 23L79.9 23.6L78.7 23.2L76.3 22.6C76.1 22.6 76 22.5 75.9 22.3C75.8 22.2 75.8 22 75.8 21.8L76 21.2C77.1 21.5 78.4 21.8 79.6 22.2ZM78.2 19.9C78.4 19.9 78.5 20.1 78.6 20.2C78.7 20.3 78.7 20.5 78.7 20.7L78.6 21.3C77.3 21 76.2 20.7 74.9 20.5C74.7 20.5 74.6 20.4 74.5 20.3L74.4 20V19.9L74.5 19.3L75.3 19.4C76.3 19.5 77.3 19.7 78.2 19.9ZM76.7 17.8C76.9 17.8 77 17.9 77.1 18.1C77.2 18.2 77.3 18.4 77.2 18.6L77.1 19.2L75.8 19L73.4 18.7C73.2 18.7 73.1 18.6 73 18.5C72.9 18.4 72.9 18.2 72.9 18L73 17.4C74.3 17.4 75.4 17.6 76.7 17.8ZM75.1 15.7C75.3 15.7 75.4 15.8 75.6 15.9C75.7 16 75.8 16.2 75.7 16.4L75.6 17C74.4 16.8 73.1 16.8 71.9 16.7C71.7 16.7 71.6 16.6 71.5 16.5L71.4 16.2V16.1V15.5H72.2L75.1 15.7ZM73.3 13.7C73.5 13.7 73.6 13.8 73.7 13.9C73.8 14 73.9 14.2 73.9 14.4V15H72.6C71.8 15 71 14.9 70.1 15C69.9 15 69.8 15 69.7 14.8C69.6 14.7 69.5 14.5 69.5 14.4V13.8C70.8 13.7 72.1 13.6 73.3 13.7ZM71.4 11.9C71.6 11.9 71.7 12 71.9 12.1C72 12.2 72.1 12.4 72.1 12.5V13.1C70.8 13.1 69.6 13.2 68.3 13.3C68.1 13.3 68 13.3 67.9 13.2L67.7 12.9V12.8L67.6 12.2L68.4 12.1L71.4 11.9ZM69.4 10.1C69.6 10.1 69.8 10.1 69.9 10.2C70 10.3 70.1 10.5 70.1 10.7V11.4L68.8 11.5L66.3 11.8C66.1 11.8 66 11.8 65.8 11.7C65.7 11.6 65.6 11.5 65.6 11.3L65.5 10.7C66.9 10.4 68.1 10.3 69.4 10.1ZM67.3 8.5C67.5 8.5 67.6 8.5 67.8 8.6C67.9 8.8 68 8.9 68 9.1L68.1 9.7C66.8 9.9 65.6 10 64.4 10.3C64.2 10.3 64.1 10.3 63.9 10.2L63.8 10V9.9L63.7 9.3L64.5 9.1C65.3 8.9 66.3 8.7 67.3 8.5ZM65.1 7.1C65.3 7.1 65.5 7.1 65.6 7.2C65.7 7.3 65.9 7.4 65.9 7.6L66 8.2L64.7 8.5L62.3 9.1C62.1 9.1 62 9.1 61.8 9C61.7 8.9 61.6 8.8 61.5 8.6V8C62.6 7.6 63.8 7.4 65.1 7.1ZM62.8 5.7C63 5.6 63.2 5.7 63.3 5.8C63.4 5.9 63.6 6 63.6 6.2L63.8 6.8C62.6 7.1 61.4 7.5 60.2 7.9C60 8 59.9 7.9 59.7 7.9L59.4 7.7L59.3 7.6L59.1 7L59.8 6.7L62.8 5.7ZM60.4 4.6C60.6 4.5 60.7 4.6 60.9 4.6C61.1 4.7 61.2 4.8 61.2 5L61.4 5.6L60.3 6L58 6.9C57.8 7 57.7 7 57.5 6.9C57.4 6.8 57.2 6.7 57.2 6.6L56.9 6C58.1 5.5 59.2 4.9 60.4 4.6ZM58 3.5C58.2 3.4 58.3 3.4 58.5 3.5C58.7 3.6 58.8 3.7 58.9 3.8L59.2 4.4C58 4.9 56.9 5.4 55.8 6C55.6 6.1 55.5 6.1 55.3 6L55 5.8L54.9 5.7L54.6 5.1L55.3 4.8L58 3.5ZM55.5 2.6C55.7 2.5 55.8 2.5 56 2.6C56.2 2.7 56.3 2.8 56.4 2.9L56.7 3.5L55.6 4C54.9 4.3 54.1 4.8 53.4 5.2C53.3 5.3 53.1 5.3 52.9 5.3C52.7 5.3 52.6 5.2 52.5 5L52.2 4.5C53.2 3.9 54.3 3.2 55.5 2.6ZM52.9 2C53.1 1.9 53.2 1.9 53.4 1.9C53.6 1.9 53.7 2 53.8 2.2L54.1 2.7C53 3.4 52 4 51 4.7C50.9 4.8 50.7 4.8 50.5 4.8L50.2 4.7L50.1 4.6L49.8 4L50.4 3.5C51.2 2.9 52.1 2.5 52.9 2ZM50.3 1.4C50.4 1.3 50.6 1.3 50.8 1.3C51 1.3 51.1 1.4 51.2 1.6L51.6 2.1L50.5 2.8L48.5 4.3C48.4 4.4 48.2 4.4 48.1 4.4C47.9 4.4 47.8 4.3 47.7 4.2L47.3 3.7C48.3 2.9 49.3 2.2 50.3 1.4ZM47.7 1C47.8 0.9 48 0.9 48.2 0.9C48.4 0.9 48.5 1 48.6 1.2L49 1.7C48 2.5 47 3.1 46.1 4C46 4.1 45.8 4.2 45.7 4.2L45.3 4L44.9 3.5L45.4 3C46.1 2.3 46.9 1.6 47.7 1ZM45.1 0.8C45.2 0.7 45.4 0.6 45.6 0.6C45.8 0.6 45.9 0.7 46.1 0.8L46.5 1.3L45.5 2.2L43.7 3.9C43.5 4 43.4 4.1 43.2 4C43 4 42.9 3.9 42.8 3.8L42.4 3.4C43.2 2.5 44.1 1.7 45.1 0.8ZM42.4 0.7C42.5 0.6 42.7 0.5 42.9 0.5C43.1 0.5 43.2 0.6 43.4 0.7L43.9 1.2C42.9 2 42 3 41.2 3.9C41.1 4 40.9 4.1 40.8 4.1L40.5 4H40.3L39.8 3.6L40.4 3L42.4 0.7ZM39.8 0.9C39.9 0.8 40.1 0.7 40.3 0.7C40.5 0.7 40.6 0.7 40.8 0.9L41.3 1.3L40.4 2.2L38.8 4.1C38.7 4.2 38.6 4.3 38.4 4.4C38.2 4.4 38.1 4.4 38 4.3L37.5 3.9C38.1 2.8 38.9 1.8 39.8 0.9ZM37.2 1.2C37.3 1.1 37.5 1 37.6 0.9C37.8 0.9 37.9 0.9 38.1 1L38.6 1.4C37.8 2.4 37 3.4 36.4 4.4C36.3 4.5 36.2 4.6 36 4.6L35.7 4.5L35.6 4.4L35 4.2L35.4 3.6L37.2 1.2ZM34.5 1.6C34.6 1.5 34.8 1.4 34.9 1.3C35.1 1.3 35.2 1.3 35.4 1.4L36 1.8L35.3 2.8C34.8 3.4 34.4 4.2 34 4.9C33.9 5.1 33.8 5.1 33.6 5.2C33.4 5.2 33.3 5.2 33.1 5.1L32.6 4.8C33.2 3.7 33.8 2.6 34.5 1.6ZM32 2.2C32.1 2 32.2 1.9 32.4 1.9C32.6 1.9 32.7 1.9 32.9 2L33.5 2.3C32.8 3.4 32.2 4.5 31.6 5.5C31.5 5.7 31.4 5.7 31.2 5.8H30.9H30.8L30.3 5.5L30.6 4.8C30.9 3.9 31.5 3.1 32 2.2ZM29.4 3C29.5 2.8 29.6 2.7 29.8 2.7C30 2.6 30.1 2.6 30.3 2.7L30.9 3L30.3 4.1L29.3 6.4C29.2 6.6 29.1 6.7 29 6.7C28.9 6.8 28.7 6.7 28.5 6.7L27.9 6.4C28.3 5.3 28.9 4.1 29.4 3ZM26.9 3.9C27 3.7 27.1 3.6 27.3 3.6C27.5 3.5 27.6 3.5 27.8 3.6L28.4 3.9C27.9 5 27.4 6 27 7.3C26.9 7.5 26.8 7.6 26.7 7.7L26.4 7.8H26.3L25.7 7.6L25.9 6.9C26.2 5.8 26.5 4.7 26.9 3.9ZM24.5 5C24.6 4.8 24.7 4.7 24.8 4.6C25 4.5 25.1 4.5 25.3 4.6L26 4.8L25.5 6L24.7 8.3C24.7 8.5 24.5 8.6 24.4 8.7C24.3 8.8 24.1 8.8 23.9 8.8L23.3 8.6C23.7 7.3 24.1 6.2 24.5 5ZM22.2 6.2C22.2 6 22.4 5.9 22.5 5.8C22.6 5.7 22.8 5.7 23 5.7L23.6 5.9C23.2 7 22.9 8.4 22.6 9.5C22.6 9.7 22.5 9.8 22.3 9.9L22 10H21.9L21.3 9.8L21.5 9.1L22.2 6.2ZM19.9 7.6C19.9 7.4 20.1 7.3 20.2 7.2C20.3 7.1 20.5 7.1 20.7 7.1L21.3 7.2L21 8.5C20.8 9.3 20.6 10.1 20.5 10.9C20.5 11.1 20.4 11.2 20.3 11.3C20.2 11.4 20 11.4 19.8 11.4L19.2 11.3C19.4 10.1 19.6 8.7 19.9 7.6ZM17.8 9.1C17.8 8.9 17.9 8.8 18.1 8.7C18.2 8.6 18.4 8.5 18.6 8.6L19.2 8.7C19 10 18.8 11.2 18.7 12.4C18.7 12.6 18.6 12.7 18.5 12.8L18.2 12.9H18.1L17.5 12.8V12L17.8 9.1ZM15.7 10.7C15.7 10.5 15.8 10.4 15.9 10.2C16 10.1 16.2 10 16.4 10.1L17.1 10.2L16.9 11.5L16.8 14C16.8 14.2 16.7 14.3 16.6 14.4C16.5 14.5 16.3 14.6 16.2 14.6H15.6C15.5 13.3 15.6 12 15.7 10.7ZM13.7 12.5C13.7 12.3 13.8 12.2 13.9 12.1C14 12 14.2 11.9 14.4 11.9H15C14.9 13.2 14.9 14.4 14.9 15.6C14.9 15.8 14.9 15.9 14.7 16L14.4 16.2H14.3H13.7V15.4C13.7 14.5 13.6 13.5 13.7 12.5ZM12 13.9C12.1 13.8 12.3 13.7 12.4 13.7H13V15L13.1 17.5C13.1 17.7 13.1 17.8 13 17.9C12.9 18 12.7 18.1 12.6 18.1L12 18.2C11.8 16.9 11.8 15.8 11.7 14.5C11.9 14.2 11.9 14.1 12 13.9ZM10.3 15.9C10.4 15.8 10.6 15.7 10.8 15.7H11.5C11.5 16.9 11.7 18.2 11.9 19.4C11.9 19.6 11.9 19.7 11.8 19.9L11.4 20H11.3L10.7 20.1L10.6 19.3L10.2 16.3C10.1 16.2 10.1 16 10.3 15.9ZM8.7 18C8.8 17.9 9 17.8 9.1 17.7L9.7 17.6L9.9 18.9C10 19.7 10.1 20.5 10.3 21.3C10.3 21.5 10.3 21.6 10.2 21.8C10.1 21.9 10 22 9.8 22.1L9.2 22.2C9 21 8.7 19.7 8.5 18.5C8.5 18.3 8.6 18.2 8.7 18ZM7.2 20.2C7.3 20.1 7.4 19.9 7.6 19.9L8.2 19.8C8.5 21.1 8.8 22.3 9.1 23.5C9.1 23.7 9.1 23.8 9 24L8.7 24.2H8.6L8 24.3L7.8 23.6L7.1 20.7C7 20.5 7.1 20.4 7.2 20.2ZM5.8 22.5C5.9 22.4 6 22.2 6.2 22.2L6.8 22L7.1 23.2C7.3 24 7.6 24.8 7.9 25.6C8 25.8 7.9 25.9 7.9 26.1C7.8 26.2 7.7 26.4 7.5 26.4L6.9 26.6C6.5 25.5 6.1 24.3 5.7 23C5.7 22.8 5.7 22.6 5.8 22.5ZM4.6 24.9C4.7 24.7 4.8 24.6 5 24.6L5.6 24.4C6 25.6 6.4 26.8 6.9 27.9C7 28.1 7 28.2 6.9 28.4L6.7 28.7L6.6 28.8L6 28.9L5.7 28.2C5.3 27.3 4.9 26.4 4.6 25.4C4.5 25.2 4.5 25 4.6 24.9ZM3.5 27.3C3.6 27.1 3.7 27 3.8 26.9L4.4 26.6L5 27.9L6 30.1C6.1 30.3 6.1 30.4 6 30.6C5.9 30.7 5.8 30.9 5.7 30.9L5.1 31.2C4.5 30.1 4 29 3.5 27.8C3.5 27.7 3.5 27.5 3.5 27.3ZM2.6 29.8C2.7 29.6 2.8 29.5 2.9 29.4L3.5 29.1C4 30.2 4.6 31.3 5.3 32.4C5.4 32.5 5.4 32.7 5.4 32.9L5.2 33.2L5.1 33.3L4.6 33.6L4.2 32.9L2.7 30.3C2.6 30.2 2.6 30 2.6 29.8ZM1.9 32.4C1.9 32.2 2 32.1 2.2 32L2.8 31.7L3.4 32.8L4.7 34.9C4.8 35 4.8 35.2 4.8 35.4C4.8 35.6 4.7 35.7 4.6 35.8L4 36C3.2 35 2.6 34 2 32.9C1.9 32.7 1.9 32.5 1.9 32.4ZM1.3 35C1.3 34.8 1.4 34.7 1.6 34.6L2.1 34.2C2.8 35.3 3.6 36.3 4.3 37.3C4.4 37.4 4.4 37.6 4.4 37.8L4.3 38L4.2 38.1L3.7 38.5L3.2 37.9L1.4 35.5C1.3 35.3 1.3 35.1 1.3 35ZM0.9 37.6C0.9 37.4 1 37.3 1.2 37.2L1.7 36.8L2.5 37.8C3 38.5 3.5 39.1 4.1 39.7C4.2 39.8 4.3 40 4.3 40.1C4.3 40.3 4.2 40.4 4.1 40.5L3.5 41C2.7 40.1 1.8 39.1 1 38.1C0.9 37.9 0.9 37.8 0.9 37.6ZM0.8 40.7C0.7 40.6 0.6 40.4 0.6 40.2C0.6 40 0.7 39.9 0.8 39.7L1.3 39.3C2.1 40.3 3 41.2 3.8 42.1C4 42.3 4.1 42.4 4 42.6L3.9 42.9L3.8 43L3.4 43.4L2.8 42.9L0.8 40.7ZM0.7 43.4C0.6 43.3 0.5 43.1 0.5 42.9C0.5 42.7 0.6 42.6 0.7 42.4L1.2 42L2.1 42.9L4 44.6C4.1 44.7 4.2 44.9 4.2 45C4.2 45.2 4.2 45.3 4 45.4L3.6 45.9C2.6 45.1 1.7 44.3 0.7 43.4ZM0.9 46C0.8 45.9 0.7 45.7 0.7 45.5C0.7 45.3 0.7 45.2 0.9 45L1.3 44.5C2.2 45.4 3.2 46.2 4.1 46.9C4.2 47 4.3 47.2 4.3 47.3L4.2 47.6L4.1 47.7L3.7 48.2L3.1 47.7C2.4 47.3 1.6 46.7 0.9 46ZM1.2 48.6C1.1 48.5 1 48.3 0.9 48.2C0.9 48 0.9 47.9 1 47.7L1.4 47.2L2.4 48L4.4 49.5C4.5 49.6 4.6 49.7 4.6 49.9C4.6 50.1 4.6 50.2 4.5 50.4L4.1 50.9C3.2 50.2 2.2 49.4 1.2 48.6ZM1.6 51.3C1.5 51.2 1.4 51 1.3 50.9C1.3 50.7 1.3 50.6 1.4 50.4L1.8 49.9C2.8 50.7 3.8 51.3 4.9 52C5.1 52.1 5.1 52.2 5.2 52.4V52.7L5.1 52.8L4.8 53.3L4.1 52.9C3.3 52.4 2.4 51.8 1.6 51.3ZM2.2 53.8C2 53.7 1.9 53.6 1.9 53.4C1.9 53.2 1.9 53.1 2 52.9L2.3 52.3L3.4 53L5.5 54.2C5.6 54.3 5.7 54.4 5.8 54.6C5.9 54.7 5.8 54.9 5.8 55.1L5.5 55.6C4.3 55.1 3.3 54.5 2.2 53.8ZM3 56.4C2.8 56.3 2.7 56.2 2.7 56C2.6 55.8 2.6 55.7 2.7 55.5L3 54.9C4.1 55.5 5.3 56 6.4 56.5C6.6 56.6 6.7 56.7 6.7 56.8V57.1V57.2L6.4 57.8L5.7 57.5L3 56.4ZM3.9 58.9C3.7 58.8 3.6 58.7 3.6 58.5C3.5 58.3 3.5 58.2 3.6 58L3.9 57.4L5 57.9C5.7 58.2 6.5 58.5 7.3 58.8C7.5 58.9 7.6 59 7.7 59.1C7.8 59.2 7.8 59.4 7.7 59.6L7.5 60.2C6.3 59.8 5 59.4 3.9 58.9ZM5 61.3C4.8 61.2 4.7 61.1 4.6 61C4.5 60.8 4.5 60.7 4.6 60.5L4.8 59.9C6 60.3 7.2 60.7 8.3 61C8.5 61 8.6 61.2 8.7 61.3L8.8 61.6V61.7L8.6 62.3L7.8 62.1C6.8 61.9 5.9 61.6 5 61.3ZM6.2 63.6C6 63.6 5.9 63.4 5.8 63.3C5.7 63.2 5.7 63 5.7 62.8L5.9 62.2L7.1 62.6L9.5 63.2C9.7 63.2 9.8 63.3 9.9 63.5C10 63.6 10 63.8 10 64L9.8 64.6C8.7 64.3 7.4 64 6.2 63.6ZM7.6 65.9C7.4 65.9 7.3 65.7 7.2 65.6C7.1 65.5 7.1 65.3 7.1 65.1L7.2 64.5C8.5 64.8 9.6 65.1 10.9 65.3C11.1 65.3 11.2 65.4 11.3 65.5L11.4 65.8V65.9L11.3 66.5L10.5 66.4C9.5 66.3 8.5 66.1 7.6 65.9ZM9.1 68C8.9 68 8.8 67.9 8.7 67.7C8.6 67.6 8.5 67.4 8.6 67.2L8.7 66.6L10 66.8L12.4 67.1C12.6 67.1 12.7 67.2 12.8 67.3C12.9 67.4 12.9 67.6 12.9 67.8L12.8 68.4C11.5 68.4 10.4 68.2 9.1 68ZM10.7 70.1C10.5 70.1 10.4 70 10.2 69.9C10.1 69.8 10 69.6 10.1 69.4L10.2 68.7C11.4 68.9 12.7 68.9 14 69C14.2 69 14.3 69.1 14.4 69.2L14.5 69.5V69.6V70.2H13.7L10.7 70.1ZM12.5 72.1C12.3 72.1 12.2 72 12.1 71.9C12 71.8 11.9 71.6 11.9 71.4V70.8L13.2 70.9C14 70.9 14.8 71 15.7 70.9C15.9 70.9 16 71 16.1 71.1C16.2 71.2 16.3 71.4 16.3 71.5V72.1C15.1 72.1 13.7 72.2 12.5 72.1ZM14.4 73.9C14.2 73.9 14.1 73.8 13.9 73.7C13.8 73.6 13.7 73.4 13.7 73.3V72.7C15 72.7 16.2 72.6 17.5 72.5C17.7 72.5 17.8 72.5 17.9 72.6L18.1 72.9V73L18.2 73.6L17.4 73.7L14.4 73.9ZM16.4 75.7C16.2 75.7 16 75.7 15.9 75.6C15.8 75.5 15.7 75.3 15.7 75.1V74.4L17 74.3L19.5 74C19.7 74 19.8 74 20 74.1C20.1 74.2 20.2 74.3 20.2 74.5L20.3 75.1C18.9 75.4 17.7 75.5 16.4 75.7ZM18.5 77.3C18.3 77.3 18.2 77.3 18 77.2C17.9 77.1 17.8 76.9 17.7 76.8L17.6 76.2C18.9 76 20.1 75.9 21.3 75.6C21.5 75.6 21.6 75.6 21.8 75.7L22 76V76.1L22.1 76.7L21.3 76.9C20.5 77 19.5 77.2 18.5 77.3ZM20.7 78.7C20.5 78.7 20.3 78.7 20.2 78.6C20.1 78.5 19.9 78.4 19.9 78.2L19.8 77.6L21.1 77.3L23.5 76.7C23.7 76.7 23.8 76.7 24 76.8C24.1 76.9 24.2 77 24.3 77.2L24.5 77.8C23.2 78.2 22 78.4 20.7 78.7ZM23 80.1C22.8 80.2 22.6 80.1 22.5 80C22.4 79.9 22.2 79.8 22.2 79.6L22 79C23.2 78.7 24.4 78.3 25.6 77.9C25.8 77.8 25.9 77.9 26.1 77.9L26.4 78.1L26.5 78.2L26.7 78.8L26 79.1L23 80.1ZM25.4 81.2C25.2 81.3 25.1 81.2 24.9 81.2C24.7 81.1 24.6 81 24.6 80.8L24.4 80.2L25.6 79.8L27.9 78.9C28.1 78.8 28.2 78.8 28.4 78.9C28.5 79 28.7 79.1 28.7 79.2L28.9 79.8C27.7 80.4 26.6 80.9 25.4 81.2ZM27.8 82.3C27.6 82.4 27.5 82.4 27.3 82.3C27.1 82.2 27 82.1 26.9 82L26.6 81.4C27.8 80.9 28.9 80.4 30 79.8C30.2 79.7 30.3 79.7 30.5 79.8L30.8 80L30.9 80.1L31.2 80.7L30.5 81L27.8 82.3ZM30.3 83.2C30.1 83.3 30 83.3 29.8 83.2C29.6 83.1 29.5 83 29.4 82.9L29.1 82.3L30.2 81.8C30.9 81.5 31.7 81 32.4 80.6C32.5 80.5 32.7 80.5 32.9 80.5C33.1 80.5 33.2 80.6 33.3 80.8L33.6 81.3C32.6 81.9 31.5 82.6 30.3 83.2ZM32.9 83.8C32.7 83.9 32.6 83.9 32.4 83.9C32.2 83.9 32.1 83.8 32 83.6L31.6 83C32.7 82.4 33.8 81.7 34.8 81.1C35 81 35.1 81 35.3 81L35.6 81.2L35.7 81.3L36 81.8L35.4 82.3C34.6 82.9 33.8 83.3 32.9 83.8ZM35.5 84.4C35.4 84.5 35.2 84.5 35 84.5C34.8 84.5 34.7 84.4 34.6 84.2L34.2 83.7L35.3 83L37.3 81.5C37.4 81.4 37.6 81.4 37.8 81.4C38 81.4 38.1 81.5 38.2 81.7L38.6 82.2C37.5 82.9 36.5 83.7 35.5 84.4ZM38.1 84.8C38 84.9 37.8 84.9 37.6 84.9C37.4 84.9 37.3 84.8 37.2 84.6L36.8 84.1C37.8 83.3 38.8 82.7 39.7 81.8C39.8 81.7 40 81.6 40.1 81.6L40.4 81.7L40.5 81.8L40.9 82.3L40.3 82.8C39.7 83.5 38.9 84.2 38.1 84.8ZM40.7 85C40.6 85.1 40.4 85.2 40.2 85.2C40 85.2 39.9 85.1 39.7 85L39.3 84.5L40.3 83.6L42.1 81.9C42.2 81.8 42.4 81.7 42.5 81.7C42.7 81.7 42.8 81.8 42.9 81.9L43.3 82.3C42.6 83.3 41.7 84.1 40.7 85ZM43.4 85.1C43.3 85.2 43.1 85.3 42.9 85.3C42.7 85.3 42.6 85.2 42.4 85.1L42 84.6C42.9 83.8 43.8 82.8 44.6 81.9C44.7 81.8 44.9 81.7 45 81.7L45.3 81.8L45.4 81.9L45.9 82.3L45.4 82.9L43.4 85.1ZM46 84.9C45.9 85 45.7 85.1 45.5 85.1C45.3 85.1 45.2 85.1 45 84.9L44.5 84.5L45.4 83.6L47 81.7C47.1 81.6 47.3 81.5 47.4 81.5C47.6 81.5 47.7 81.5 47.8 81.6L48.3 82C47.7 83 46.9 84 46 84.9ZM48.6 84.6C48.5 84.7 48.3 84.8 48.2 84.9C48 84.9 47.9 84.9 47.7 84.8L47.2 84.4C48 83.4 48.8 82.4 49.5 81.4C49.6 81.3 49.7 81.2 49.9 81.2L50.2 81.3L50.3 81.4L50.8 81.8L50.4 82.4L48.6 84.6ZM51.3 84.2C51.2 84.3 51 84.4 50.9 84.5C50.7 84.5 50.6 84.5 50.4 84.4L49.8 84L50.5 83C51 82.4 51.4 81.6 51.8 80.9C51.9 80.7 52 80.7 52.2 80.6C52.4 80.6 52.5 80.6 52.7 80.7L53.2 81C52.6 82.1 52 83.2 51.3 84.2ZM53.8 83.6C53.7 83.8 53.6 83.9 53.4 83.9C53.2 83.9 53.1 83.9 52.9 83.8L52.3 83.5C53 82.4 53.6 81.3 54.2 80.3C54.3 80.2 54.4 80.1 54.6 80H54.9H55L55.5 80.3L55.3 81C54.9 81.9 54.3 82.7 53.8 83.6ZM56.4 82.8C56.3 83 56.2 83.1 56 83.1C55.8 83.2 55.7 83.2 55.5 83.1L54.9 82.8L55.5 81.7L56.5 79.4C56.6 79.2 56.7 79.1 56.8 79.1C56.9 79 57.1 79.1 57.3 79.1L57.9 79.4C57.5 80.5 56.9 81.7 56.4 82.8ZM58.9 81.9C58.8 82.1 58.7 82.2 58.5 82.2C58.3 82.3 58.2 82.3 58 82.2L57.4 82C57.9 80.8 58.5 79.8 58.8 78.6C58.9 78.4 59 78.3 59.1 78.2L59.4 78.1H59.5L60.1 78.3L59.9 79C59.6 80 59.3 81.1 58.9 81.9ZM61.3 80.8C61.2 81 61.1 81.1 61 81.2C60.8 81.3 60.7 81.3 60.5 81.2L59.8 81L60.2 79.8L61 77.5C61 77.3 61.2 77.2 61.3 77.2C61.4 77.1 61.6 77.1 61.8 77.1L62.4 77.3C62.1 78.5 61.7 79.6 61.3 80.8ZM63.6 79.6C63.6 79.8 63.4 79.9 63.3 80C63.2 80.1 63 80.1 62.8 80.1L62.2 79.9C62.6 78.8 62.9 77.4 63.2 76.3C63.2 76.1 63.3 76 63.5 75.9L63.8 75.8H63.9L64.5 76L64.3 76.7L63.6 79.6ZM65.9 78.2C65.9 78.4 65.7 78.5 65.6 78.6C65.5 78.7 65.3 78.7 65.1 78.7L64.5 78.6L64.8 77.4C65 76.6 65.2 75.8 65.3 75C65.3 74.8 65.4 74.7 65.5 74.6C65.6 74.5 65.8 74.5 66 74.5L66.6 74.6C66.4 75.7 66.2 77.1 65.9 78.2ZM68 76.7C68 76.9 67.9 77 67.7 77.1C67.6 77.2 67.4 77.3 67.2 77.2L66.6 77.1C66.8 75.8 67 74.6 67.1 73.4C67.1 73.2 67.2 73.1 67.3 73L67.6 72.9H67.7L68.3 73V73.8L68 76.7ZM70.1 75.1C70.1 75.3 70 75.4 69.9 75.6C69.8 75.7 69.6 75.8 69.4 75.7L68.7 75.6L68.9 74.3L69 71.8C69 71.6 69.1 71.5 69.2 71.4C69.3 71.3 69.5 71.2 69.6 71.2H70.2C70.3 72.5 70.2 73.8 70.1 75.1ZM72.1 73.3C72.1 73.5 72 73.6 71.9 73.7C71.8 73.8 71.6 73.9 71.4 73.9H70.8C70.9 72.6 70.9 71.4 70.9 70.2C70.9 70 70.9 69.9 71.1 69.8L71.4 69.6H71.5H72.1V70.4C72.1 71.3 72.2 72.3 72.1 73.3ZM72.2 67.6C72 67.8 71.9 68.1 71.9 68.4V69H71.3C71.1 69 70.9 69.1 70.8 69.1L70.5 69.3C70.3 69.5 70.2 69.8 70.2 70.1V70.7H69.6C69.3 70.7 69 70.8 68.8 71C68.6 71.2 68.5 71.5 68.4 71.8V72.4L67.8 72.3C67.6 72.3 67.4 72.3 67.3 72.4L67 72.6C66.8 72.8 66.6 73 66.6 73.3V74L66 73.9C65.7 73.8 65.4 73.9 65.2 74.1C65 74.3 64.8 74.5 64.8 74.9L64.7 75.5L64 75.3C63.8 75.3 63.6 75.3 63.5 75.3L63.2 75.4C63 75.5 62.8 75.8 62.7 76.1L62.6 76.7L62 76.5C61.7 76.4 61.4 76.5 61.2 76.6C60.9 76.7 60.7 76.9 60.7 77.2L60.5 77.8L59.9 77.6C59.7 77.5 59.5 77.5 59.4 77.5L59.1 77.6C58.8 77.7 58.6 78 58.5 78.3L58.1 79L57.5 78.7C57.2 78.6 56.9 78.6 56.6 78.6C56.3 78.7 56.1 78.9 56 79.2L55.7 79.8L55.2 79.5C55 79.4 54.9 79.4 54.7 79.4L54.4 79.5C54.1 79.6 53.9 79.8 53.7 80L53.4 80.5L53 80.2C52.7 80 52.4 80 52.2 80.1C51.9 80.2 51.7 80.4 51.5 80.6L51.2 81.1L50.7 80.8C50.5 80.7 50.4 80.6 50.2 80.6H49.9C49.6 80.6 49.4 80.8 49.2 81.1L48.8 81.6L48.3 81.2C48 81 47.7 80.9 47.4 81C47.1 81 46.9 81.2 46.7 81.4L46.3 81.9L45.8 81.5C45.7 81.4 45.5 81.3 45.3 81.2H45C44.7 81.2 44.4 81.3 44.2 81.6L43.8 82L43.4 81.6C43.2 81.4 42.9 81.3 42.6 81.3C42.3 81.3 42 81.4 41.8 81.6L41.3 82L40.9 81.5C40.8 81.4 40.6 81.2 40.5 81.2L40.2 81.1C39.9 81.1 39.6 81.2 39.4 81.4L38.9 81.8L38.5 81.3C38.3 81 38 80.9 37.8 80.8C37.5 80.8 37.2 80.8 37 81L36.5 81.4L36.2 80.9L35.8 80.5L35.5 80.4C35.2 80.4 34.9 80.4 34.7 80.6L34 81L33.7 80.5C33.5 80.2 33.3 80 33 80C32.7 79.9 32.4 80 32.1 80.1L31.6 80.4L31.3 79.9L31 79.4L30.7 79.2C30.4 79.1 30.1 79.1 29.9 79.3L29.3 79.6L29.1 79C29 78.7 28.8 78.5 28.5 78.4C28.2 78.3 27.9 78.3 27.6 78.4L27 78.6L26.8 78L26.5 77.5L26.2 77.3C25.9 77.2 25.6 77.2 25.3 77.3L24.7 77.5V77C24.6 76.7 24.4 76.5 24.2 76.3C24 76.2 23.7 76.1 23.4 76.2L22.8 76.4L22.7 75.8L22.5 75.3L22.2 75.1C22 75 21.7 74.9 21.3 75L20.7 75.1L20.6 74.5C20.6 74.2 20.4 73.9 20.2 73.8C20 73.6 19.7 73.6 19.4 73.6L18.8 73.7L18.6 73C18.6 72.8 18.5 72.6 18.4 72.5L18.2 72.2C18 72 17.7 71.9 17.4 72H16.8V71.4C16.8 71.1 16.7 70.8 16.5 70.6C16.3 70.4 16 70.3 15.7 70.3H15.1V69.7C15.1 69.5 15.1 69.3 15 69.2L14.8 68.9C14.6 68.7 14.3 68.6 14 68.5H13.4L13.5 67.9C13.5 67.6 13.4 67.3 13.3 67.1C13.1 66.9 12.9 66.7 12.6 66.7L12 66.6L12.1 66C12.1 65.8 12.1 65.6 12.1 65.5L11.9 65.2C11.7 65 11.5 64.8 11.1 64.8L10.5 64.7L10.7 64.1C10.8 63.8 10.7 63.5 10.6 63.2C10.5 63 10.2 62.8 9.9 62.7L9.3 62.6L9.5 62C9.6 61.8 9.6 61.6 9.5 61.5L9.4 61.2C9.3 60.9 9.1 60.7 8.8 60.7L8.2 60.5L8.4 59.9C8.5 59.6 8.5 59.3 8.4 59C8.3 58.7 8.1 58.5 7.7 58.4L7.1 58.2L7.4 57.6C7.5 57.4 7.5 57.2 7.5 57.1L7.4 56.8C7.3 56.5 7.1 56.3 6.8 56.2L6 55.8L6.3 55.3C6.4 55 6.5 54.7 6.4 54.5C6.3 54.2 6.1 54 5.9 53.8L5.4 53.5L5.6 53C5.7 52.8 5.8 52.7 5.8 52.5V52.2C5.7 51.9 5.5 51.7 5.3 51.5L4.8 51.2L5 50.6C5.2 50.3 5.3 50 5.2 49.8C5.2 49.5 5 49.3 4.7 49.1L4.2 48.7L4.6 48.2C4.7 48 4.8 47.9 4.8 47.7V47.4C4.8 47.1 4.6 46.9 4.4 46.7L3.9 46.3L4.3 45.8C4.5 45.6 4.6 45.3 4.6 45C4.6 44.7 4.5 44.4 4.2 44.2L3.7 43.8L4.1 43.4C4.2 43.3 4.3 43.1 4.4 42.9L4.5 42.6C4.5 42.3 4.4 42 4.2 41.8L3.8 41.4L4.3 41C4.5 40.8 4.7 40.5 4.7 40.2C4.7 39.9 4.6 39.6 4.4 39.4L4 38.9L4.5 38.5C4.7 38.4 4.8 38.2 4.9 38.1L5 37.8C5 37.5 5 37.2 4.8 37L4.4 36.5L4.9 36.2C5.2 36 5.3 35.8 5.4 35.5C5.4 35.2 5.4 34.9 5.2 34.7L4.8 34L5.3 33.7L5.7 33.3L5.8 33C5.9 32.7 5.8 32.4 5.7 32.1L5.4 31.6L6 31.4C6.3 31.3 6.5 31 6.6 30.8C6.7 30.5 6.7 30.2 6.5 30L6.2 29.4L6.8 29.2L7.2 28.9L7.4 28.6C7.5 28.3 7.5 28 7.4 27.7L7.2 27.1L7.8 26.9C8.1 26.8 8.3 26.6 8.5 26.3C8.6 26 8.6 25.7 8.5 25.4L8.3 24.8L8.9 24.6L9.4 24.3L9.6 24C9.7 23.8 9.8 23.5 9.7 23.2L9.5 22.6L10.1 22.5C10.4 22.4 10.6 22.3 10.8 22C10.9 21.8 11 21.5 10.9 21.1L10.8 20.5L11.4 20.4C11.6 20.4 11.8 20.3 11.9 20.2L12.1 20C12.3 19.8 12.3 19.5 12.3 19.2L12.2 18.6L12.8 18.5C13.1 18.5 13.4 18.3 13.6 18.1C13.8 17.9 13.9 17.6 13.9 17.3V16.7H14.5C14.7 16.7 14.9 16.6 15 16.6L15.3 16.4C15.5 16.2 15.6 15.9 15.6 15.6V15H16.2C16.5 15 16.8 14.9 17 14.7C17.2 14.5 17.3 14.2 17.4 13.9V13.3L18 13.4C18.2 13.4 18.4 13.4 18.5 13.3L18.8 13.1C19 12.9 19.2 12.7 19.2 12.4L19.3 11.8L19.9 11.9C20.2 12 20.5 11.9 20.7 11.7C20.9 11.5 21.1 11.3 21.1 10.9L21.2 10.3L21.8 10.5C22 10.5 22.2 10.5 22.3 10.5L22.6 10.4C22.8 10.3 23 10 23.1 9.7L23.2 9.1L23.8 9.3C24.1 9.4 24.4 9.3 24.6 9.2C25 9 25.2 8.8 25.3 8.5L25.5 7.9L26 8.1C26.2 8.2 26.4 8.2 26.5 8.2L26.8 8.1C27.1 8 27.3 7.8 27.4 7.4L27.6 6.8L28.2 7.1C28.5 7.2 28.8 7.2 29.1 7.2C29.4 7.1 29.6 6.9 29.7 6.6L30 6L30.5 6.3C30.7 6.4 30.8 6.4 31 6.4L31.3 6.3C31.6 6.2 31.8 6 32 5.8L32.3 5.3L32.8 5.6C33.1 5.8 33.4 5.8 33.6 5.7C33.9 5.6 34.1 5.4 34.3 5.2L34.6 4.7L35.2 5C35.4 5.1 35.5 5.2 35.7 5.2H36C36.3 5.2 36.5 5 36.7 4.7L37.1 4.2L37.6 4.6C37.8 4.8 38.1 4.9 38.4 4.8C38.7 4.8 38.9 4.6 39.1 4.4L39.5 3.9L40 4.4C40.1 4.5 40.3 4.6 40.5 4.7H40.8C41.1 4.7 41.4 4.6 41.6 4.3L42 3.8L42.4 4.2C42.6 4.4 42.9 4.5 43.2 4.5C43.5 4.5 43.8 4.4 44 4.2L44.4 3.8L44.8 4.3C44.9 4.4 45.1 4.5 45.2 4.6L45.5 4.7C45.8 4.7 46.1 4.6 46.3 4.4L46.9 4L47.3 4.5C47.5 4.8 47.8 4.9 48 5C48.3 5 48.6 5 48.8 4.8L49.3 4.4L49.6 4.9L50 5.3L50.3 5.4C50.6 5.4 50.9 5.4 51.1 5.2L51.6 4.9L51.9 5.4C52.1 5.7 52.3 5.9 52.6 5.9C52.9 6 53.2 5.9 53.5 5.8L54 5.5L54.4 6L54.7 6.4L55 6.6C55.3 6.7 55.6 6.7 55.8 6.5L56.4 6.2L56.6 6.8C56.7 7.1 56.9 7.3 57.2 7.4C57.5 7.5 57.8 7.5 58.1 7.4L58.7 7.2L58.9 7.8L59.2 8.3L59.5 8.5C59.8 8.6 60.1 8.6 60.4 8.5L61 8.2L61.2 8.8C61.3 9.1 61.5 9.3 61.7 9.5C61.9 9.6 62.2 9.7 62.5 9.6L63.1 9.4L63.2 10L63.4 10.5L63.6 10.7C63.8 10.8 64.1 10.9 64.5 10.8L65.1 10.7L65.2 11.3C65.2 11.6 65.4 11.9 65.6 12C65.8 12.2 66.1 12.2 66.4 12.2L67 12.1L67.1 12.7C67.1 12.9 67.2 13.1 67.3 13.2L67.5 13.5C67.7 13.7 68 13.8 68.3 13.8H68.9V14.4C68.9 14.7 69 15 69.2 15.2C69.4 15.4 69.7 15.5 70 15.5H70.6V16.1C70.6 16.3 70.6 16.5 70.7 16.6L70.9 16.9C71.1 17.1 71.4 17.2 71.7 17.3H72.3L72.2 17.9C72.2 18.2 72.3 18.5 72.4 18.7C72.6 18.9 72.8 19.1 73.1 19.1L73.7 19.2L73.6 19.8C73.6 20 73.6 20.2 73.6 20.3L73.8 20.6C74 20.8 74.2 21 74.6 21L75.2 21.1L75 21.7C74.9 22 75 22.3 75.1 22.6C75.2 22.8 75.5 23 75.8 23.1L76.4 23.2L76.2 23.8C76.1 24 76.1 24.2 76.2 24.3L76.3 24.6C76.4 24.9 76.6 25.1 76.9 25.1L77.5 25.3L77.7 26C77.6 26.3 77.6 26.6 77.7 26.9C77.8 27.2 78 27.4 78.4 27.5L79 27.7L78.7 28.3C78.6 28.5 78.6 28.7 78.6 28.8L78.7 29.1C78.8 29.4 79 29.6 79.3 29.7L79.9 30L79.6 30.5C79.5 30.8 79.4 31.1 79.5 31.3C79.6 31.6 79.8 31.8 80 32L80.5 32.3L80.2 32.8C80.1 33 80 33.1 80 33.3V33.6C80.1 33.9 80.3 34.1 80.5 34.3L81 34.6L80.7 35.1C80.5 35.4 80.4 35.7 80.5 35.9C80.5 36.2 80.7 36.4 81 36.6L81.5 37L81.1 37.5C81 37.7 80.9 37.8 80.9 38V38.3C80.9 38.6 81.1 38.8 81.3 39L81.8 39.4L81.4 40C81.2 40.2 81.1 40.5 81.1 40.8C81.1 41.1 81.2 41.4 81.5 41.6L82 42L81.6 42.4C81.5 42.5 81.4 42.7 81.3 42.9L81.2 43.2C81.2 43.5 81.3 43.8 81.5 44L81.9 44.4L81.4 44.8C81.2 45 81 45.3 81 45.6C81 45.9 81.1 46.2 81.3 46.4L81.7 46.9L81.2 47.3C81 47.4 80.9 47.6 80.8 47.7L80.9 48C80.9 48.3 80.9 48.6 81.1 48.8L81.5 49.3L81 49.6C80.7 49.8 80.6 50 80.5 50.3C80.5 50.6 80.5 50.9 80.7 51.1L81 51.6L80.5 51.9L80 52.4L79.9 52.7C79.8 53 79.9 53.3 80 53.6L80.3 54.1L79.8 54.4C79.5 54.5 79.3 54.8 79.2 55C79.1 55.3 79.1 55.6 79.3 55.9L79.6 56.5L79 56.7L78.6 57L78.4 57.3C78.3 57.6 78.3 57.9 78.4 58.2L78.6 58.8L78 59C77.7 59.1 77.5 59.3 77.3 59.6C77.2 59.9 77.2 60.2 77.3 60.5L77.5 61.1H77L76.5 61.4L76.3 61.7C76.2 61.9 76.1 62.2 76.2 62.5L76.4 63.1L75.8 63.2C75.5 63.3 75.3 63.4 75.1 63.7C75 63.9 74.9 64.2 75 64.6L75.1 65.2L74.5 65.3C74.3 65.3 74.1 65.4 74 65.5L73.8 65.7C73.6 65.9 73.6 66.2 73.6 66.5L73.7 67.1L73 67.2C72.7 67.2 72.4 67.4 72.2 67.6ZM73.8 71.9C73.7 72 73.5 72.1 73.4 72.1H72.8V70.8L72.6 68.3C72.6 68.1 72.6 68 72.7 67.9C72.8 67.8 73 67.7 73.1 67.7L73.7 67.6C73.9 68.9 73.9 70 74 71.3C73.9 71.6 73.9 71.7 73.8 71.9ZM75.5 69.9C75.4 70 75.2 70.1 75 70.1H74.3C74.3 68.9 74.1 67.6 73.9 66.4C73.9 66.2 73.9 66.1 74 65.9L74.3 65.7H74.4L75 65.6L75.1 66.4L75.5 69.4C75.7 69.6 75.7 69.8 75.5 69.9ZM77.1 67.8C77 67.9 76.9 68 76.7 68L76.1 68.1L75.9 66.8C75.8 66 75.7 65.2 75.5 64.4C75.5 64.2 75.5 64.1 75.6 63.9C75.7 63.8 75.8 63.7 76 63.6L76.6 63.5C76.9 64.7 77.2 66 77.4 67.2C77.3 67.5 77.2 67.6 77.1 67.8ZM78.6 65.6C78.5 65.7 78.4 65.9 78.2 65.9L77.6 66C77.3 64.7 77 63.5 76.7 62.3C76.7 62.1 76.7 62 76.8 61.8L77.1 61.6H77.2L77.8 61.4L78 62.1L78.7 65C78.8 65.3 78.7 65.4 78.6 65.6ZM80 63.3C79.9 63.4 79.8 63.6 79.6 63.6L79 63.8L78.7 62.6C78.5 61.8 78.2 61 77.9 60.2C77.8 60 77.9 59.9 77.9 59.7C78 59.6 78.1 59.4 78.3 59.4L78.9 59.2C79.3 60.3 79.7 61.5 80.1 62.8C80.1 63 80.1 63.2 80 63.3ZM81.2 60.9C81.1 61.1 81 61.2 80.8 61.2L80.2 61.4C79.8 60.2 79.4 59 78.9 57.9C78.8 57.7 78.8 57.6 78.9 57.4L79.1 57.1L79.2 57L79.8 56.8L80.1 57.5C80.5 58.4 80.9 59.3 81.2 60.3C81.3 60.6 81.3 60.8 81.2 60.9ZM82.3 58.5C82.2 58.7 82.1 58.8 82 58.9L81.4 59.2L80.9 58L79.8 55.8C79.7 55.6 79.7 55.5 79.8 55.3C79.9 55.2 80 55 80.1 55L80.7 54.7C81.3 55.8 81.8 56.9 82.3 58.1C82.3 58.1 82.3 58.3 82.3 58.5ZM83.2 56C83.1 56.2 83 56.3 82.9 56.4L82.3 56.7C81.8 55.6 81.2 54.5 80.5 53.4C80.4 53.3 80.4 53.1 80.4 52.9L80.6 52.6L80.7 52.5L81.2 52.2L81.6 52.9L83.1 55.5C83.2 55.7 83.2 55.8 83.2 56ZM83.9 53.4C83.9 53.6 83.8 53.7 83.6 53.8L83.1 54.1L82.4 53L81.1 51C81 50.8 81 50.7 81 50.5C81 50.3 81.1 50.2 81.2 50.1L81.7 49.8C82.5 50.8 83.1 51.9 83.8 53C83.9 53.1 83.9 53.3 83.9 53.4ZM84.5 50.8C84.5 51 84.4 51.1 84.2 51.2L83.7 51.6C83 50.5 82.2 49.5 81.5 48.5C81.4 48.4 81.4 48.2 81.4 48L81.6 47.7L81.7 47.6L82.2 47.2L82.7 47.8L84.5 50.2C84.5 50.5 84.5 50.7 84.5 50.8ZM84.9 48.2C84.9 48.4 84.8 48.5 84.6 48.6L84.1 49L83.3 48C82.8 47.3 82.3 46.7 81.7 46.1C81.6 46 81.5 45.8 81.5 45.7C81.5 45.5 81.6 45.4 81.7 45.3L82.2 44.9C83 45.8 83.9 46.8 84.7 47.8C84.9 47.9 84.9 48 84.9 48.2ZM84.9 46L84.4 46.4C83.6 45.4 82.7 44.5 81.9 43.6C81.8 43.5 81.7 43.3 81.7 43.2L81.8 42.9L81.9 42.8L82.3 42.4L82.9 42.9L84.9 45.1C85 45.2 85.1 45.4 85.1 45.6C85.1 45.7 85.1 45.9 84.9 46Z" fill="#00313F"/>
<path d="M25.6 7.4L26.2 7.6H26.3L26.6 7.5C26.7 7.4 26.9 7.3 26.9 7.1C27.4 6 27.9 5 28.4 3.8L27.8 3.5C27.6 3.4 27.5 3.4 27.3 3.5C27.1 3.6 27 3.7 26.9 3.8C26.5 4.7 26.1 5.7 25.8 6.6L25.6 7.4ZM24 8.7C24.2 8.7 24.3 8.7 24.5 8.6C24.6 8.5 24.7 8.4 24.8 8.2L25.5 6L26 4.8L25.4 4.6C25.2 4.5 25.1 4.6 24.9 4.6C24.7 4.7 24.6 4.8 24.6 5C24.2 6.2 23.8 7.3 23.5 8.6L24 8.7ZM16.6 14.4C16.7 14.3 16.8 14.1 16.8 14L16.9 11.5L17.1 10.2L16.4 10.1C16.2 10.1 16 10.1 15.9 10.2C15.8 10.3 15.7 10.5 15.7 10.7C15.6 12 15.5 13.3 15.5 14.5H16.1C16.3 14.5 16.4 14.5 16.6 14.4ZM20.3 11.3C20.4 11.2 20.5 11.1 20.5 10.9C20.6 10.1 20.8 9.3 21 8.5L21.3 7.3L20.7 7.2C20.5 7.2 20.3 7.2 20.2 7.3C20.1 7.4 19.9 7.5 19.9 7.7C19.6 8.9 19.4 10.2 19.3 11.4L19.9 11.5C20.1 11.4 20.2 11.4 20.3 11.3ZM18.1 12.9L18.4 12.8C18.5 12.7 18.6 12.6 18.6 12.4C18.7 11.2 18.9 10 19.1 8.7L18.5 8.6C18.3 8.6 18.2 8.6 18 8.7C17.9 8.8 17.8 9 17.7 9.1L17.4 12V12.8L18 12.9H18.1ZM21.9 10H22L22.3 9.9C22.4 9.8 22.5 9.7 22.6 9.5C22.9 8.3 23.1 7 23.6 5.9L23 5.7C22.8 5.6 22.6 5.7 22.5 5.8C22.4 5.9 22.2 6 22.2 6.2L21.5 9.1L21.3 9.8L21.9 10ZM35 4.2L35.5 4.6L35.6 4.7L35.9 4.8C36.1 4.8 36.2 4.7 36.3 4.6C37 3.6 37.7 2.6 38.5 1.6L38.1 1C38 0.9 37.8 0.9 37.6 0.9C37.4 0.9 37.3 1 37.2 1.2L35.4 3.6L35 4.2ZM37.9 4.2C38 4.3 38.2 4.3 38.3 4.3C38.5 4.3 38.6 4.2 38.7 4L40.3 2.1L41.2 1.2L40.7 0.8C40.6 0.7 40.4 0.6 40.2 0.6C40 0.6 39.9 0.7 39.7 0.8C38.8 1.7 38.1 2.7 37.3 3.7L37.9 4.2ZM33.1 5.1C33.2 5.2 33.4 5.2 33.6 5.2C33.8 5.2 33.9 5.1 34 4.9C34.4 4.2 34.8 3.4 35.3 2.8L36 1.8L35.5 1.4C35.4 1.3 35.2 1.3 35 1.3C34.8 1.3 34.7 1.4 34.6 1.6C33.9 2.7 33.2 3.8 32.6 4.8L33.1 5.1ZM28.4 6.6C28.6 6.7 28.7 6.7 28.9 6.6C29 6.5 29.2 6.4 29.2 6.3L30.2 4L30.8 2.9L30.2 2.6C30 2.5 29.9 2.5 29.7 2.6C29.5 2.7 29.4 2.8 29.3 2.9C28.7 4.1 28.2 5.2 27.7 6.3L28.4 6.6ZM30.5 4.8L30.2 5.5L30.7 5.8H30.8H31.1C31.2 5.7 31.4 5.7 31.5 5.5C32.1 4.4 32.7 3.4 33.4 2.3L32.9 2C32.7 1.9 32.6 1.9 32.4 1.9C32.2 1.9 32.1 2 32 2.2C31.5 3.1 30.9 3.9 30.5 4.8ZM4 36L4.5 35.7C4.6 35.6 4.7 35.5 4.7 35.3C4.7 35.1 4.7 35 4.6 34.8L3.3 32.7L2.7 31.6L2.2 32C2 32.1 1.9 32.2 1.9 32.4C1.9 32.6 1.9 32.7 2 32.9C2.6 34 3.2 35 4 36ZM5.2 31.2L5.8 30.9C6 30.8 6.1 30.7 6.1 30.6C6.2 30.5 6.1 30.3 6.1 30.1L5 27.9L4.5 26.7L3.9 27C3.7 27.1 3.6 27.2 3.6 27.4C3.5 27.6 3.5 27.7 3.6 27.9C4.1 29 4.6 30.1 5.2 31.2ZM3.2 37.9L3.7 38.5L4.2 38.1L4.3 38L4.5 37.7C4.5 37.5 4.5 37.4 4.4 37.2C3.7 36.2 2.9 35.2 2.2 34.1L1.7 34.5C1.6 34.6 1.5 34.8 1.4 34.9C1.4 35.1 1.4 35.2 1.5 35.4L3.2 37.9ZM4.1 32.9L4.5 33.6L5 33.3L5.1 33.2L5.3 32.9C5.3 32.7 5.3 32.6 5.2 32.4C4.5 31.3 4 30.2 3.4 29.1L3 29.4C2.8 29.5 2.7 29.6 2.7 29.8C2.6 30 2.6 30.1 2.7 30.3L4.1 32.9ZM40.4 3L39.9 3.6L40.3 4H40.5L40.8 4.1C41 4.1 41.1 4 41.2 3.9C42 3 42.9 2 43.8 1.2L43.3 0.7C43.2 0.6 43 0.5 42.8 0.5C42.6 0.5 42.5 0.6 42.3 0.7L40.4 3ZM2.8 42.9L3.4 43.4L3.8 43L3.9 42.9L4 42.6C4 42.4 4 42.3 3.8 42.2C3 41.3 2.1 40.4 1.3 39.4L0.8 39.8C0.7 39.9 0.6 40.1 0.6 40.3C0.6 40.5 0.6 40.6 0.8 40.8L2.8 42.9ZM3.5 41L4 40.5C4.1 40.4 4.2 40.2 4.2 40.1C4.2 39.9 4.2 39.8 4 39.7C3.4 39.1 2.9 38.5 2.4 37.8L1.6 36.8L1.1 37.2C1 37.3 0.9 37.5 0.8 37.6C0.8 37.8 0.8 37.9 0.9 38.1C1.8 39.1 2.7 40.1 3.5 41ZM12.7 18.1C12.9 18.1 13 18 13.1 17.9C13.2 17.8 13.3 17.6 13.2 17.5V15V13.7H12.6C12.4 13.7 12.3 13.8 12.2 13.9C12.1 14 12 14.2 12 14.4C12.1 15.7 12.1 16.9 12.3 18.1H12.7ZM10.5 19.4L10.6 20.2L11.2 20.1H11.3L11.6 19.9C11.7 19.8 11.7 19.6 11.7 19.4C11.5 18.2 11.3 16.9 11.3 15.7H10.6C10.4 15.7 10.3 15.8 10.1 15.9C10 16 9.9 16.2 10 16.4L10.5 19.4ZM13.7 15.5V16.3H14.3H14.4L14.7 16.1C14.8 16 14.9 15.8 14.9 15.7C14.8 14.4 14.9 13.3 15 12H14.4C14.2 12 14.1 12.1 13.9 12.2C13.8 12.3 13.7 12.5 13.7 12.6C13.6 13.5 13.7 14.5 13.7 15.5ZM5.7 28.2L6 28.9L6.6 28.7L6.7 28.6L6.9 28.3C7 28.2 6.9 28 6.9 27.8C6.4 26.7 6 25.5 5.6 24.3L5 24.5C4.8 24.6 4.7 24.7 4.6 24.8C4.5 25 4.5 25.1 4.6 25.3C4.9 26.3 5.2 27.2 5.7 28.2ZM9.9 22.1C10.1 22.1 10.2 22 10.3 21.8C10.4 21.7 10.4 21.5 10.4 21.3C10.2 20.5 10.1 19.7 10 18.9L9.8 17.6L9.2 17.7C9 17.7 8.9 17.8 8.8 18C8.7 18.1 8.6 18.3 8.7 18.5C8.7 19.7 9 21 9.3 22.2L9.9 22.1ZM6.9 26.6L7.5 26.4C7.7 26.3 7.8 26.2 7.9 26.1C8 26 8 25.8 7.9 25.6C7.6 24.8 7.3 24 7.1 23.2L6.8 22L6.2 22.2C6 22.2 5.9 22.4 5.8 22.5C5.7 22.6 5.7 22.8 5.7 23C6.1 24.2 6.5 25.4 6.9 26.6ZM7.8 23.6L8 24.3L8.6 24.1H8.7L9 23.9C9.1 23.8 9.1 23.6 9.1 23.4C8.8 22.2 8.5 21 8.2 19.7L7.6 19.8C7.4 19.8 7.3 20 7.2 20.1C7.1 20.2 7.1 20.4 7.1 20.6L7.8 23.6ZM78.2 26.2C78.1 26.4 78.2 26.5 78.2 26.7C78.3 26.8 78.4 27 78.6 27C79.4 27.3 80.2 27.6 80.9 27.9L82.1 28.4L82.4 27.8C82.5 27.6 82.5 27.5 82.4 27.3C82.3 27.1 82.2 27 82.1 26.9C81 26.4 79.7 26 78.6 25.6L78.2 26.2ZM77.2 23.4L77.1 24V24.1L77.2 24.4C77.3 24.5 77.4 24.7 77.6 24.7C78.8 25.1 79.9 25.5 81.1 25.9L81.3 25.3C81.4 25.1 81.3 25 81.3 24.8C81.2 24.6 81.1 24.5 80.9 24.5C79.9 24.2 79 23.8 78.1 23.6L77.2 23.4ZM72.1 15.5H71.3V16.1V16.2L71.4 16.5C71.5 16.6 71.7 16.7 71.8 16.7C73 16.7 74.3 16.8 75.5 17L75.6 16.3C75.6 16.1 75.6 15.9 75.5 15.8C75.4 15.7 75.2 15.6 75 15.6L72.1 15.5ZM75.8 21.9C75.8 22.1 75.8 22.2 75.9 22.4C76 22.5 76.1 22.6 76.3 22.7L78.7 23.3L79.9 23.7L80.1 23.1C80.2 22.9 80.1 22.7 80 22.6C79.9 22.5 79.8 22.3 79.6 22.3C78.4 22 77.1 21.7 75.9 21.4L75.8 21.9ZM72.9 17.9C72.9 18.1 72.9 18.2 73 18.4C73.1 18.5 73.2 18.6 73.4 18.6L75.8 18.9L77.1 19.1L77.2 18.5C77.2 18.3 77.2 18.2 77.1 18C77 17.9 76.8 17.8 76.7 17.7C75.4 17.5 74.3 17.3 73 17.3L72.9 17.9ZM80.1 28.2L79.4 27.9L79.1 28.5V28.6V28.9C79.2 29 79.3 29.2 79.4 29.2C80.5 29.7 81.7 30.2 82.8 30.8L83.1 30.2C83.2 30 83.2 29.9 83.1 29.7C83 29.5 82.9 29.4 82.8 29.3L80.1 28.2ZM74.5 19.3L74.4 19.9V20L74.5 20.3C74.6 20.4 74.7 20.5 74.9 20.5C76.2 20.7 77.3 21 78.6 21.3L78.7 20.7C78.7 20.5 78.7 20.3 78.6 20.2C78.5 20.1 78.4 19.9 78.2 19.9C77.3 19.6 76.2 19.5 75.2 19.4L74.5 19.3ZM3.5 45.9L4 45.5C4.1 45.4 4.2 45.2 4.2 45.1C4.2 44.9 4.1 44.8 4 44.7L2.1 43L1.2 42L0.7 42.5C0.6 42.6 0.5 42.8 0.5 43C0.5 43.2 0.6 43.3 0.7 43.5C1.7 44.3 2.6 45.1 3.5 45.9ZM80 30.7C79.9 30.9 79.9 31 80 31.2C80.1 31.3 80.1 31.5 80.3 31.6L82.4 32.8L83.5 33.5L83.8 32.9C83.9 32.7 83.9 32.6 83.9 32.4C83.9 32.2 83.8 32.1 83.6 32C82.5 31.3 81.5 30.7 80.3 30.2L80 30.7ZM82.3 39.9L81.9 40.4C81.8 40.5 81.7 40.7 81.7 40.8C81.7 41 81.8 41.1 81.9 41.2L83.8 42.9L84.7 43.8L85.2 43.3C85.3 43.2 85.4 43 85.4 42.8C85.4 42.6 85.3 42.5 85.2 42.3C84.1 41.5 83.2 40.7 82.3 39.9ZM82.6 37.9L82 37.4L81.6 37.9L81.5 38V38.3C81.5 38.5 81.6 38.6 81.7 38.7C82.7 39.5 83.6 40.3 84.5 41.1L84.9 40.6C85 40.5 85.1 40.3 85.1 40.1C85.1 39.9 85 39.8 84.9 39.6C84.2 39.1 83.5 38.5 82.6 37.9ZM81.7 32.9L81 32.6L80.7 33.1L80.6 33.2V33.5C80.6 33.7 80.7 33.8 80.9 33.9C82 34.5 83 35.2 84 36L84.4 35.5C84.5 35.4 84.5 35.2 84.5 35C84.5 34.8 84.4 34.7 84.2 34.6C83.4 34 82.5 33.4 81.7 32.9ZM81.2 35.5C81.1 35.6 81.1 35.8 81.1 36C81.1 36.2 81.2 36.3 81.3 36.4L83.3 37.9L84.3 38.7L84.7 38.2C84.8 38.1 84.8 37.9 84.8 37.7C84.8 37.5 84.7 37.4 84.5 37.3C83.5 36.5 82.5 35.8 81.5 35.1L81.2 35.5ZM59.9 6.7L59.2 7L59.4 7.6L59.5 7.7L59.8 7.9C59.9 8 60 8 60.2 7.9C61.4 7.5 62.6 7.1 63.8 6.8L63.6 6.2C63.6 6 63.4 5.9 63.3 5.8C63.2 5.7 63 5.7 62.8 5.7L59.9 6.7ZM49.8 4L50.1 4.5L50.2 4.6L50.5 4.7C50.7 4.7 50.8 4.7 51 4.6C52 4 53 3.4 54.2 2.8L53.9 2.3C53.8 2.1 53.7 2 53.5 2C53.3 2 53.2 2 53 2.1C52.1 2.6 51.3 3.1 50.5 3.7L49.8 4ZM52.5 5.1C52.6 5.2 52.7 5.3 52.9 5.4C53.1 5.4 53.2 5.4 53.4 5.3C54.1 4.9 54.8 4.4 55.6 4.1L56.7 3.6L56.4 3C56.3 2.8 56.2 2.7 56 2.7C55.8 2.6 55.7 2.6 55.5 2.7C54.3 3.3 53.2 4 52.2 4.6L52.5 5.1ZM57.2 6.6C57.3 6.8 57.4 6.9 57.5 6.9C57.6 7 57.8 6.9 58 6.9L60.3 6L61.5 5.6L61.3 5C61.2 4.8 61.1 4.7 61 4.6C60.8 4.5 60.7 4.5 60.5 4.6C59.3 5 58.1 5.5 57 6L57.2 6.6ZM54.6 5.2L54.9 5.8L55 5.9L55.3 6.1C55.4 6.2 55.6 6.1 55.8 6.1C56.9 5.6 58 5 59.2 4.5L58.9 3.9C58.8 3.7 58.7 3.6 58.5 3.6C58.3 3.5 58.2 3.5 58 3.6L55.3 4.9L54.6 5.2ZM45.4 3L44.8 3.5L45.3 4L45.6 4.1C45.8 4.1 45.9 4.1 46 3.9C47 3.1 48 2.4 49 1.7L48.6 1.2C48.5 1.1 48.3 1 48.2 0.9C48 0.9 47.9 0.9 47.7 1C46.9 1.6 46.1 2.3 45.4 3ZM47.7 4.2C47.8 4.3 47.9 4.4 48.1 4.4C48.3 4.4 48.4 4.4 48.5 4.3L50.5 2.8L51.6 2.1L51.2 1.6C51.1 1.5 50.9 1.4 50.8 1.3C50.6 1.3 50.5 1.3 50.3 1.4C49.2 2.1 48.2 2.9 47.3 3.6L47.7 4.2ZM69.5 14.4C69.5 14.6 69.6 14.7 69.7 14.8C69.8 14.9 70 15 70.1 15C70.9 14.9 71.7 15 72.6 15L73.9 15.1V14.5C73.9 14.3 73.8 14.2 73.7 14C73.6 13.9 73.4 13.8 73.3 13.8C72.1 13.7 70.7 13.8 69.5 13.9V14.4ZM42.4 3.4L42.8 3.8C42.9 4 43.1 4 43.2 4C43.4 4 43.5 4 43.6 3.8L45.4 2.1L46.4 1.2L46 0.9C45.9 0.8 45.7 0.7 45.5 0.7C45.3 0.7 45.2 0.7 45 0.9C44.1 1.7 43.2 2.5 42.4 3.4ZM65.8 11.3C65.8 11.5 65.9 11.6 66 11.7C66.1 11.8 66.3 11.8 66.5 11.8L69 11.5L70.3 11.4V10.7C70.3 10.5 70.2 10.4 70.1 10.2C70 10.1 69.8 10 69.6 10.1C68.3 10.2 67.1 10.4 65.9 10.6L65.8 11.3ZM67.7 12.1L67.8 12.7V12.8L68 13.1C68.1 13.2 68.3 13.3 68.4 13.2C69.6 13.1 70.9 13 72.2 13V12.4C72.2 12.2 72.1 12.1 72 12C71.9 11.9 71.7 11.8 71.5 11.8L68.5 12L67.7 12.1ZM61.6 8.6C61.6 8.8 61.7 8.9 61.9 9C62 9.1 62.2 9.1 62.4 9.1L64.8 8.5L66 8.2L65.9 7.6C65.9 7.4 65.7 7.3 65.6 7.2C65.5 7.1 65.3 7.1 65.1 7.1C63.8 7.4 62.7 7.7 61.5 8L61.6 8.6ZM64.4 9.1L63.6 9.3L63.7 9.9V10L63.9 10.3C64 10.4 64.2 10.4 64.4 10.4C65.6 10.1 66.8 10 68.1 9.8L68 9.1C68 8.9 67.9 8.8 67.7 8.7C67.6 8.6 67.4 8.5 67.2 8.6C66.3 8.7 65.3 8.9 64.4 9.1ZM43.4 82.4L43 82C42.9 81.9 42.7 81.8 42.6 81.8C42.4 81.8 42.3 81.8 42.2 82L40.4 83.7L39.4 84.6L39.8 85.1C39.9 85.2 40.1 85.3 40.3 85.3C40.5 85.3 40.6 85.3 40.8 85.1C41.7 84.1 42.6 83.3 43.4 82.4ZM69.2 71.4C69.1 71.5 69 71.7 69 71.8L68.9 74.3L68.7 75.6L69.4 75.7C69.6 75.7 69.8 75.7 69.9 75.6C70 75.5 70.1 75.3 70.1 75.1C70.2 73.8 70.3 72.5 70.3 71.3H69.7C69.5 71.3 69.4 71.3 69.2 71.4ZM67.7 72.9L67.4 73C67.3 73.1 67.2 73.2 67.2 73.4C67.1 74.6 66.9 75.8 66.7 77.1L67.3 77.2C67.5 77.2 67.6 77.2 67.8 77.1C67.9 77 68 76.8 68.1 76.7L68.5 73.8V73L67.9 72.9H67.7ZM63.9 75.8H63.8L63.5 75.9C63.4 76 63.3 76.1 63.2 76.3C62.9 77.5 62.7 78.8 62.2 79.9L62.8 80.1C63 80.2 63.2 80.1 63.3 80C63.4 79.9 63.6 79.8 63.6 79.6L64.3 76.7L64.5 76L63.9 75.8ZM65.5 74.5C65.4 74.6 65.3 74.7 65.3 74.9C65.2 75.7 65 76.5 64.8 77.3L64.5 78.5L65.1 78.6C65.3 78.6 65.5 78.6 65.6 78.5C65.7 78.4 65.9 78.3 65.9 78.1C66.2 76.9 66.4 75.6 66.5 74.4L65.9 74.3C65.7 74.4 65.6 74.4 65.5 74.5ZM72.1 70.3V69.5H71.5H71.4L71 69.7C70.9 69.8 70.8 70 70.8 70.1C70.9 71.4 70.8 72.5 70.7 73.8H71.3C71.5 73.8 71.6 73.7 71.8 73.6C71.9 73.5 72 73.3 72 73.2C72.2 72.3 72.1 71.3 72.1 70.3ZM73.1 67.7C72.9 67.7 72.8 67.8 72.7 67.9C72.6 68 72.5 68.2 72.6 68.3L72.8 70.8V72.1H73.4C73.6 72.1 73.7 72 73.8 71.9C73.9 71.8 74 71.6 74 71.4C73.9 70.1 73.9 68.9 73.7 67.7H73.1ZM52.7 80.7C52.6 80.6 52.4 80.6 52.2 80.6C52 80.6 51.9 80.7 51.8 80.9C51.4 81.6 51 82.4 50.5 83L49.8 84L50.3 84.4C50.5 84.5 50.6 84.5 50.8 84.5C51 84.5 51.1 84.4 51.2 84.2C51.9 83.1 52.6 82 53.2 81L52.7 80.7ZM55.3 81L55.6 80.3L55.1 80H55H54.7C54.6 80.1 54.4 80.1 54.3 80.3C53.7 81.4 53.1 82.4 52.4 83.5L53 83.8C53.2 83.9 53.3 83.9 53.5 83.9C53.7 83.9 53.8 83.8 53.9 83.6C54.3 82.7 54.9 81.9 55.3 81ZM61.8 77.1C61.6 77.1 61.5 77.1 61.3 77.2C61.2 77.3 61 77.4 61 77.5L60.2 79.8L59.8 81L60.4 81.2C60.6 81.3 60.7 81.2 60.9 81.2C61.1 81.1 61.2 81 61.2 80.8C61.6 79.6 62 78.5 62.3 77.2L61.8 77.1ZM57.4 79.2C57.2 79.1 57.1 79.1 56.9 79.2C56.8 79.3 56.6 79.4 56.6 79.5L55.6 81.8L55 82.9L55.6 83.2C55.8 83.3 55.9 83.3 56.1 83.2C56.3 83.1 56.4 83 56.5 82.9C57.1 81.7 57.6 80.6 58.1 79.5L57.4 79.2ZM50.8 81.6L50.3 81.2L50.2 81.1L49.9 81C49.7 81 49.6 81.1 49.5 81.2C48.8 82.2 48.1 83.2 47.2 84.2L47.7 84.6C47.8 84.7 48 84.7 48.2 84.7C48.4 84.7 48.5 84.6 48.6 84.4L50.4 82L50.8 81.6ZM60.2 78.4L59.6 78.2H59.5L59.2 78.3C59.1 78.4 58.9 78.5 58.9 78.7C58.5 79.9 58 81 57.5 82.1L58.1 82.4C58.3 82.5 58.4 82.5 58.6 82.4C58.8 82.3 58.9 82.2 59 82.1C59.4 81.2 59.8 80.2 60.1 79.3L60.2 78.4ZM82.6 47.9L82.1 47.3L81.6 47.7L81.5 47.8L81.3 48.1C81.3 48.3 81.3 48.4 81.4 48.6C82.1 49.6 82.9 50.6 83.6 51.7L84.1 51.3C84.2 51.2 84.3 51 84.4 50.9C84.4 50.7 84.4 50.6 84.3 50.4L82.6 47.9ZM82.3 44.8L81.8 45.2C81.7 45.3 81.6 45.5 81.6 45.6C81.6 45.8 81.6 45.9 81.8 46C82.4 46.6 82.9 47.2 83.4 47.9L84.2 48.9L84.7 48.5C84.8 48.4 84.9 48.2 85 48.1C85 47.9 85 47.8 84.9 47.6C84.1 46.7 83.1 45.7 82.3 44.8ZM81.8 49.8L81.3 50.1C81.2 50.2 81.1 50.3 81.1 50.5C81.1 50.7 81.1 50.8 81.2 51L82.5 53.1L83.1 54.2L83.6 53.9C83.8 53.8 83.9 53.7 83.9 53.5C83.9 53.3 83.9 53.2 83.8 53C83.2 51.8 82.6 50.8 81.8 49.8ZM81.7 52.9L81.3 52.2L80.8 52.5L80.7 52.6L80.5 52.9C80.5 53.1 80.5 53.2 80.6 53.4C81.3 54.5 81.8 55.6 82.4 56.7L83 56.4C83.2 56.3 83.3 56.2 83.3 56C83.4 55.8 83.4 55.7 83.3 55.5L81.7 52.9ZM83 42.9L82.4 42.4L82 42.8L81.9 42.9L81.8 43.2C81.8 43.4 81.8 43.5 82 43.6C82.8 44.5 83.7 45.4 84.5 46.4L85 46C85.1 45.9 85.2 45.7 85.2 45.5C85.2 45.3 85.2 45.2 85 45L83 42.9ZM75.9 63.7C75.7 63.7 75.6 63.8 75.5 64C75.4 64.1 75.4 64.3 75.4 64.5C75.6 65.3 75.7 66.1 75.8 66.9L76 68.2L76.6 68.1C76.8 68.1 76.9 68 77 67.8C77.1 67.7 77.2 67.5 77.1 67.3C77 66.1 76.7 64.8 76.3 63.6L75.9 63.7ZM75.3 66.4L75.2 65.6L74.6 65.7H74.5L74.1 66C74 66.1 74 66.3 74 66.4C74.2 67.6 74.4 68.9 74.4 70.1H75.1C75.3 70.1 75.4 70 75.6 69.9C75.7 69.8 75.8 69.6 75.7 69.4L75.3 66.4ZM78 62.2L77.8 61.5L77.2 61.7H77.1L76.8 61.9C76.7 62 76.7 62.2 76.7 62.4C77 63.6 77.3 64.8 77.6 66.1L78.2 66C78.4 66 78.5 65.8 78.6 65.7C78.7 65.6 78.7 65.4 78.7 65.2L78 62.2ZM80.1 57.6L79.8 56.9L79.2 57.1L79.1 57.2L78.9 57.5C78.8 57.6 78.9 57.8 78.9 58C79.4 59.1 79.8 60.3 80.2 61.5L80.8 61.3C81 61.2 81.1 61.1 81.2 61C81.3 60.8 81.3 60.7 81.2 60.5C80.9 59.5 80.6 58.6 80.1 57.6ZM78.9 59.2L78.3 59.4C78.1 59.5 78 59.6 77.9 59.7C77.8 59.8 77.8 60 77.9 60.2C78.2 61 78.5 61.8 78.7 62.6L79 63.8L79.6 63.6C79.8 63.6 79.9 63.4 80 63.3C80.1 63.2 80.1 63 80.1 62.8C79.7 61.6 79.3 60.4 78.9 59.2ZM80.7 54.6L80.1 54.9C79.9 55 79.8 55.1 79.8 55.2C79.7 55.3 79.8 55.5 79.8 55.7L80.9 57.9L81.4 59.1L82 58.8C82.2 58.7 82.3 58.6 82.3 58.4C82.4 58.2 82.4 58.1 82.3 57.9C81.7 56.8 81.2 55.7 80.7 54.6ZM14.5 70.3V69.7V69.6L14.4 69.3C14.3 69.2 14.1 69.1 14 69.1C12.8 69.1 11.5 69 10.2 68.8L10.1 69.5C10.1 69.7 10.1 69.9 10.2 70C10.3 70.1 10.5 70.2 10.7 70.2L13.7 70.4L14.5 70.3ZM11.3 66.5L11.4 65.9V65.8L11.3 65.5C11.2 65.4 11.1 65.3 10.9 65.3C9.6 65.1 8.5 64.8 7.2 64.5L7.1 65.1C7.1 65.3 7.1 65.5 7.2 65.6C7.3 65.7 7.4 65.9 7.6 65.9C8.5 66.2 9.6 66.3 10.6 66.4L11.3 66.5ZM10 63.9C10 63.7 10 63.6 9.9 63.4C9.8 63.3 9.7 63.2 9.5 63.1L7.1 62.5L5.9 62.1L5.7 62.7C5.6 62.9 5.7 63.1 5.8 63.2C5.9 63.3 6 63.5 6.2 63.5C7.4 63.8 8.7 64.1 9.9 64.4L10 63.9ZM18.1 73.7L18 73.1V73L17.8 72.7C17.7 72.6 17.5 72.5 17.4 72.6C16.2 72.7 14.9 72.8 13.6 72.8V73.4C13.6 73.6 13.7 73.7 13.8 73.8C13.9 73.9 14.1 74 14.3 74L17.3 73.8L18.1 73.7ZM12.9 67.9C12.9 67.7 12.9 67.6 12.8 67.4C12.7 67.3 12.6 67.2 12.4 67.2L10 66.9L8.7 66.7L8.6 67.3C8.6 67.5 8.6 67.6 8.7 67.8C8.8 67.9 8.9 68 9.1 68C10.4 68.2 11.5 68.4 12.8 68.4L12.9 67.9ZM16.3 71.4C16.3 71.2 16.2 71.1 16.1 71C16 70.9 15.8 70.8 15.7 70.8C14.9 70.9 14.1 70.8 13.2 70.8L11.9 70.7V71.3C11.9 71.5 12 71.6 12.1 71.8C12.2 71.9 12.4 72 12.5 72C13.7 72.1 15.1 72 16.3 71.9V71.4ZM3.2 47.9L3.8 48.4L4.2 47.9L4.3 47.8L4.4 47.5C4.4 47.3 4.3 47.2 4.2 47.1C3.2 46.3 2.3 45.5 1.4 44.7L1 45.2C0.9 45.3 0.8 45.5 0.8 45.7C0.8 45.9 0.9 46 1 46.2C1.6 46.7 2.4 47.3 3.2 47.9ZM7.8 62.2L8.6 62.4L8.8 61.8V61.7L8.7 61.4C8.6 61.3 8.5 61.1 8.3 61.1C7.1 60.7 6 60.3 4.8 59.9L4.6 60.5C4.5 60.7 4.6 60.8 4.6 61C4.7 61.2 4.8 61.3 5 61.3C5.9 61.6 6.8 61.9 7.8 62.2ZM4.1 52.9L4.8 53.3L5.1 52.8L5.2 52.7V52.4C5.2 52.2 5.1 52.1 4.9 52C3.8 51.4 2.8 50.7 1.8 49.9L1.4 50.4C1.3 50.5 1.3 50.7 1.3 50.9C1.3 51.1 1.4 51.2 1.6 51.3C2.4 51.8 3.3 52.4 4.1 52.9ZM47.9 81.6C47.8 81.5 47.6 81.5 47.5 81.5C47.3 81.5 47.2 81.6 47.1 81.7L45.5 83.6L44.6 84.5L45.1 84.9C45.2 85 45.4 85.1 45.6 85.1C45.8 85.1 45.9 85 46.1 84.9C47 84 47.7 83 48.5 82L47.9 81.6ZM4.6 50.3C4.7 50.2 4.7 50 4.7 49.8C4.7 49.6 4.6 49.5 4.5 49.4L2.5 47.9L1.5 47.1L1 47.7C0.9 47.8 0.9 48 0.9 48.2C0.9 48.4 1 48.5 1.2 48.6C2.2 49.4 3.2 50.1 4.2 50.8L4.6 50.3ZM5.7 57.6L6.4 57.9L6.7 57.3V57.2V56.9C6.6 56.8 6.5 56.6 6.4 56.6C5.3 56.1 4.1 55.6 3 55L2.7 55.6C2.6 55.8 2.6 55.9 2.7 56.1C2.8 56.3 2.9 56.4 3 56.5L5.7 57.6ZM7.6 59.6C7.7 59.4 7.6 59.3 7.6 59.1C7.5 59 7.4 58.8 7.2 58.8C6.4 58.5 5.6 58.2 4.9 57.9L3.7 57.4L3.5 58C3.4 58.2 3.4 58.3 3.5 58.5C3.6 58.7 3.7 58.8 3.8 58.9C4.9 59.4 6.2 59.8 7.3 60.2L7.6 59.6ZM5.8 55.1C5.9 55 5.9 54.8 5.8 54.6C5.7 54.5 5.7 54.3 5.5 54.2L3.4 53L2.3 52.3L2 52.9C1.9 53.1 1.9 53.2 1.9 53.4C1.9 53.6 2 53.7 2.2 53.8C3.3 54.5 4.3 55.1 5.5 55.6L5.8 55.1ZM35.4 82.2L36 81.7L35.7 81.2L35.6 81.1L35.3 81C35.1 81 35 81 34.8 81.1C33.8 81.8 32.7 82.4 31.6 83L31.9 83.5C32 83.7 32.1 83.8 32.3 83.8C32.5 83.8 32.6 83.8 32.8 83.7C33.8 83.3 34.6 82.9 35.4 82.2ZM38.1 81.6C38 81.5 37.9 81.4 37.7 81.3C37.5 81.3 37.4 81.3 37.2 81.4L35.2 82.9L34.1 83.6L34.5 84.1C34.6 84.2 34.8 84.3 34.9 84.4C35.1 84.4 35.2 84.4 35.4 84.3C36.5 83.6 37.5 82.8 38.4 82.1L38.1 81.6ZM40.4 82.8L41 82.3L40.6 81.8L40.5 81.7L40.2 81.6C40 81.6 39.9 81.6 39.8 81.8C38.9 82.7 37.9 83.4 36.9 84.1L37.3 84.6C37.4 84.7 37.6 84.8 37.7 84.9C37.9 84.9 38 84.9 38.2 84.8C38.9 84.2 39.7 83.5 40.4 82.8ZM33.3 80.7C33.2 80.5 33.1 80.5 32.9 80.4C32.8 80.4 32.6 80.4 32.4 80.5C31.7 80.9 31 81.4 30.2 81.7L29.1 82.2L29.4 82.8C29.5 83 29.6 83.1 29.8 83.1C30 83.2 30.1 83.2 30.3 83.1C31.5 82.5 32.6 81.8 33.6 81.2L33.3 80.7ZM45.4 82.8L45.9 82.2L45.4 81.8L45.3 81.7H45C44.8 81.7 44.7 81.8 44.6 81.9C43.8 82.8 42.9 83.8 42 84.6L42.5 85.1C42.6 85.2 42.8 85.3 43 85.3C43.2 85.3 43.3 85.2 43.5 85.1L45.4 82.8ZM28.6 79.2C28.5 79 28.4 78.9 28.3 78.9C28.2 78.8 28 78.9 27.8 78.9L25.5 79.8L24.3 80.2L24.5 80.8C24.6 81 24.7 81.1 24.8 81.2C25 81.3 25.1 81.3 25.3 81.2C26.5 80.8 27.7 80.3 28.8 79.8L28.6 79.2ZM24.2 77.2C24.2 77 24.1 76.9 23.9 76.8C23.8 76.7 23.6 76.7 23.4 76.7L21 77.3L19.7 77.6L19.8 78.2C19.8 78.4 20 78.5 20.1 78.6C20.2 78.7 20.4 78.7 20.6 78.7C21.9 78.4 23 78.1 24.2 77.7V77.2ZM21.5 76.7L22.3 76.5L22.2 75.9V75.8L22 75.5C21.9 75.4 21.7 75.4 21.5 75.4C20.3 75.7 19.1 75.8 17.8 76L17.9 76.6C17.9 76.8 18 76.9 18.2 77C18.3 77.1 18.5 77.2 18.7 77.1C19.5 77.2 20.5 77 21.5 76.7ZM25.9 79.1L26.6 78.8L26.4 78.2L26.3 78.1L26 77.9C25.9 77.8 25.7 77.8 25.5 77.9C24.3 78.3 23.1 78.7 21.9 79L22.1 79.6C22.1 79.8 22.3 79.9 22.4 80C22.5 80.1 22.7 80.1 22.9 80.1L25.9 79.1ZM20 74.5C20 74.3 19.9 74.2 19.8 74.1C19.7 74 19.5 74 19.4 74L16.9 74.3L15.6 74.4V75.1C15.6 75.3 15.7 75.4 15.8 75.6C15.9 75.7 16.1 75.8 16.3 75.7C17.6 75.6 18.8 75.4 20 75.2V74.5ZM30.5 81L31.2 80.7L30.9 80.1V80L30.6 79.8C30.5 79.7 30.3 79.8 30.1 79.8C29 80.3 27.9 80.9 26.7 81.4L27 82C27.1 82.2 27.2 82.3 27.4 82.3C27.6 82.4 27.7 82.4 27.9 82.3L30.5 81Z" fill="#81BDD9"/>
<path d="M39.985 36.95C39.523 36.95 39.124 36.803 38.788 36.509C38.494 36.215 38.347 35.837 38.347 35.375V27.437C38.347 26.975 38.494 26.597 38.788 26.303C39.124 26.009 39.523 25.862 39.985 25.862H48.301C48.763 25.862 49.141 26.009 49.435 26.303C49.729 26.597 49.876 26.975 49.876 27.437V35.375C49.876 35.795 49.729 36.173 49.435 36.509C49.141 36.803 48.763 36.95 48.301 36.95H39.985ZM37.591 63.725C37.213 63.725 36.898 63.578 36.646 63.284C36.436 63.032 36.331 62.717 36.331 62.339L38.284 49.676C38.41 49.046 38.662 48.521 39.04 48.101C39.418 47.681 39.943 47.471 40.615 47.471H48.301C48.637 47.471 48.931 47.597 49.183 47.849C49.435 48.101 49.561 48.395 49.561 48.731C49.561 48.773 49.519 49.004 49.435 49.424L44.521 61.961C44.059 63.137 43.282 63.725 42.19 63.725H37.591Z" fill="#FFD6A9"/>
</g>
<defs>
<clipPath id="clip0">
<rect width="85.8" height="85.8" fill="white"/>
</clipPath>
</defs>
</svg>
