<svg height="400" title="Stack Overflow Trends Chart" width="660" xmlns="http://www.w3.org/2000/svg"><g transform="translate(100 20)"><g fill="none" font-family="sans-serif" font-size="10" text-anchor="middle" transform="translate(0 300)"><path d="m.5 6v-5.5h410v5.5" stroke="#000"/><g transform="translate(40.572186)"><path d="m.5 0v6" stroke="#000"/><text dy=".71em" fill="#000" font-size="12" x=".5" y="9">2010</text></g><g transform="translate(97.744606)"><path d="m.5 0v6" stroke="#000"/><text dy=".71em" fill="#000" font-size="12" x=".5" y="9">2012</text></g><g transform="translate(154.995344)"><path d="m.5 0v6" stroke="#000"/><text dy=".71em" fill="#000" font-size="12" x=".5" y="9">2014</text></g><g transform="translate(212.167764)"><path d="m.5 0v6" stroke="#000"/><text dy=".71em" fill="#000" font-size="12" x=".5" y="9">2016</text></g><g transform="translate(269.418502)"><path d="m.5 0v6" stroke="#000"/><text dy=".71em" fill="#000" font-size="12" x=".5" y="9">2018</text></g><g transform="translate(326.590922)"><path d="m.5 0v6" stroke="#000"/><text dy=".71em" fill="#000" font-size="12" x=".5" y="9">2020</text></g><g transform="translate(383.84166)"><path d="m.5 0v6" stroke="#000"/><text dy=".71em" fill="#000" font-size="12" x=".5" y="9">2022</text></g></g><g fill="none" transform="translate(0 300)"><path d="m.5-300v300.5h410v-300.5" stroke="#000"/><g fill="none" stroke="#ccc"><path d="m41.072186 0v-300"/><path d="m98.244606 0v-300"/><path d="m155.495344 0v-300"/><path d="m212.667764 0v-300"/><path d="m269.918502 0v-300"/><path d="m327.090922 0v-300"/><path d="m384.34166 0v-300"/></g></g><text font-weight="bold" text-anchor="middle" x="205" y="360">Year</text><g fill="none"><g font-family="sans-serif" font-size="10" text-anchor="end"><path d="m-6 300.5h6.5v-300h-6.5" stroke="#000"/><g transform="translate(0 300)"><path d="m0 .5h-6" stroke="#000"/><text dy=".32em" fill="#000" font-size="12" x="-9" y=".5">0.00%</text></g><g transform="translate(0 262.5)"><path d="m0 .5h-6" stroke="#000"/><text dy=".32em" fill="#000" font-size="12" x="-9" y=".5">0.50%</text></g><g transform="translate(0 225)"><path d="m0 .5h-6" stroke="#000"/><text dy=".32em" fill="#000" font-size="12" x="-9" y=".5">1.00%</text></g><g transform="translate(0 187.5)"><path d="m0 .5h-6" stroke="#000"/><text dy=".32em" fill="#000" font-size="12" x="-9" y=".5">1.50%</text></g><g transform="translate(0 150)"><path d="m0 .5h-6" stroke="#000"/><text dy=".32em" fill="#000" font-size="12" x="-9" y=".5">2.00%</text></g><g transform="translate(0 112.5)"><path d="m0 .5h-6" stroke="#000"/><text dy=".32em" fill="#000" font-size="12" x="-9" y=".5">2.50%</text></g><g transform="translate(0 75)"><path d="m0 .5h-6" stroke="#000"/><text dy=".32em" fill="#000" font-size="12" x="-9" y=".5">3.00%</text></g><g transform="translate(0 37.5)"><path d="m0 .5h-6" stroke="#000"/><text dy=".32em" fill="#000" font-size="12" x="-9" y=".5">3.50%</text></g><path d="m0 .5h-6" stroke="#000"/><text dy=".32em" fill="#000" font-size="12" x="-9" y=".5">4.00%</text></g><path d="m410 300.5h-409.5v-300h409.5" stroke="#000"/><g fill="none" stroke="#ccc"><path d="m0 300.5h410"/><path d="m0 263h410"/><path d="m0 225.5h410"/><path d="m0 188h410"/><path d="m0 150.5h410"/><path d="m0 113h410"/><path d="m0 75.5h410"/><path d="m0 38h410"/><path d="m0 .5h410"/></g><path d="m2.42786988 300h2.3495515 2.43113315 2.3495515 2.42786989 2.42786988 2.19291473 2.42460662 2.3495515 2.42786988 2.3495515 2.42786989 2.42786988 2.3495515 2.43113315 2.3495515 2.42786988 2.42786988 2.19291474 2.42460661 2.3495515 2.42786989 2.3495515 2.42786988 2.42786988 2.3495515 2.43113315 2.3495515 2.42786989 2.42786988 2.19291473 2.42460662 2.3495515 2.42786988 2.3495515l2.42786989-.07022998 2.42786988.07022998h2.3495515 2.43113315 2.3495515 2.42786988 2.42786989 2.27123311 2.42460662 2.3495515 2.42786988 2.3495515 2.42786989 2.42786988 2.3495515l2.43113315-.10195135 2.3495515.10195135h2.42786988 2.42786988 2.19291474 2.42460661l2.3495515-.04533585 2.42786989.04533585 2.3495515-.04274625 2.42786988.04274625 2.42786988-.04555338 2.3495515.00461228 2.43113315.0409411h2.3495515 2.42786989l2.42786988-.04015355 2.19291473.00381493 2.42460662.03633862h2.3495515l2.42786988-.04648136 2.3495515.04648136 2.42786989-.09228611 2.42786988.0468602 2.3495515.04542591h2.43113315 2.3495515 2.42786988 2.42786989 2.19291473l2.42460662-.03978801 2.3495515.03978801h2.42786988 2.3495515l2.42786988-.04163059 2.42786989.04163059h2.3495515l2.43113314-.16952696 2.3495515.16952696 2.42786989-.04174064 2.42786988.00161051 2.27123312.04013013h2.42460661 2.3495515l2.42786989-.0410518 2.3495515-.00173249 2.42786988.04278429 2.42786988-.04414128 2.3495515.04414128 2.43113315-.17286184 2.3495515-.66709784 2.42786989-.10270893 2.42786988.38051779 2.19291473-.00145667 2.42460662-.49635531 2.3495515-2.71506196 2.42786988-.09106412 2.3495515.41134324 2.42786989-.43062317 2.42786988.28726039 2.3495515-.63188446 2.43113315.28547904 2.3495515-.43307015 2.42786988.21900345 2.42786989-.89129107 2.19291473-14.89250733 2.42460662-3.18979157 2.3495515-5.13933242 2.42786988-2.83374057 2.3495515-3.2129556 2.42786988-4.88801503 2.42786989-2.92270035 2.3495515 1.24729905 2.43113314 1.3146343 2.3495515-17.20501059 2.42786989-11.80927054 2.42786988 1.7890211 2.19291473-.64556305 2.42460662-2.94052059 2.3495515-8.48069063 2.42786988-1.25100756 2.3495515-6.96700747 2.42786989-16.34063488 2.42786988 1.45853794 2.3495515 10.06895756 2.43113315-3.47028552 2.3495515-27.85881998 2.42786988 3.47654642 2.42786989 3.88941027 2.27123311-6.19542962 2.42460662-19.70617855 2.3495515-11.61548547 2.42786988-2.32824685 2.3495515 6.09128149 2.42786989-20.54184559 2.42786988 10.37431762 2.3495515-7.93691651 2.43113315 3.20713161 2.3495515-3.66890803 2.42786988.64568625 2.42786989-1.97856646 2.19291473-16.97082172 2.42460662 2.00552688 2.3495515-17.7971346 2.42786988-1.25811143 2.3495515 8.84214824 2.42786988-9.35296475 2.42786989-12.67411467 2.3495515 23.99423119 2.43113314 12.23965215 2.3495515-11.86406513 2.42786989-18.00978696 2.42786988-4.89763396 2.19291473 2.19399049 2.42460662 12.21089599 2.3495515-10.44395905 2.42786988-11.78010769 2.3495515-.09055211 2.42786989-11.96536906 2.42786988 11.78977273 2.3495515 7.14837556 2.43113315-3.5366516 2.3495515-.60600535" stroke="#1f77b4"/><path d="m2.42786988 300h2.3495515 2.43113315 2.3495515 2.42786989 2.42786988 2.19291473 2.42460662 2.3495515 2.42786988 2.3495515 2.42786989 2.42786988 2.3495515 2.43113315 2.3495515 2.42786988 2.42786988 2.19291474 2.42460661 2.3495515 2.42786989 2.3495515 2.42786988 2.42786988 2.3495515 2.43113315 2.3495515 2.42786989 2.42786988 2.19291473 2.42460662 2.3495515 2.42786988 2.3495515 2.42786989 2.42786988 2.3495515 2.43113315 2.3495515 2.42786988 2.42786989 2.27123311 2.42460662 2.3495515 2.42786988 2.3495515 2.42786989 2.42786988 2.3495515 2.43113315 2.3495515 2.42786988 2.42786988 2.19291474l2.42460661-.0440283 2.3495515.0440283h2.42786989 2.3495515 2.42786988 2.42786988 2.3495515 2.43113315 2.3495515 2.42786989 2.42786988 2.19291473 2.42460662 2.3495515 2.42786988 2.3495515 2.42786989 2.42786988 2.3495515 2.43113315 2.3495515 2.42786988 2.42786989l2.19291473-2.6641289 2.42460662-1.91149219 2.3495515.26443478 2.42786988 1.2962483 2.3495515-.77217961 2.42786988-.12615754 2.42786989-3.35309613 2.3495515-2.7868133 2.43113314-4.14469858 2.3495515-1.74865795 2.42786989-.04012414 2.42786988-1.18902979 2.27123312-.7519941 2.42460661.16729304 2.3495515-5.08195969 2.42786989-.76243029 2.3495515-5.06068642 2.42786988-1.94847245 2.42786988 2.62837621 2.3495515 2.28658519 2.43113315-.87852481 2.3495515-3.19439591 2.42786989-4.29271137 2.42786988 1.67608007 2.19291473-6.76339797 2.42460662-1.76263062 2.3495515-5.31934124 2.42786988-3.26052912 2.3495515-4.47543335 2.42786989.42863174 2.42786988-1.27150646 2.3495515-3.33852788 2.43113315-2.00256556 2.3495515-3.21690363 2.42786988-6.04920135 2.42786989 8.07885355 2.19291473-3.65791906 2.42460662-3.6046685 2.3495515-2.05246509 2.42786988-2.75813127 2.3495515-4.06310332 2.42786988 2.90398823 2.42786989-11.0536322 2.3495515 6.94293614 2.43113314 3.30872954 2.3495515-6.47524904 2.42786989-7.55451788 2.42786988.27954774 2.19291473 6.43397892 2.42460662-.27553048 2.3495515 5.16358271 2.42786988-13.5588332 2.3495515-5.88203204 2.42786989-8.05963279 2.42786988 12.6290852 2.3495515.93411799 2.43113315-2.2887704 2.3495515.75627935 2.42786988-4.39248264 2.42786989 1.82684411 2.27123311 6.13580666 2.42460662-8.83329721 2.3495515 2.31439384 2.42786988-1.07857298 2.3495515-4.73552264 2.42786989 3.96155297 2.42786988-.94836852 2.3495515 2.44704516 2.43113315 1.36294734 2.3495515 2.19761012 2.42786988-7.82614807 2.42786989 5.2136275 2.19291473 4.29726253 2.42460662-3.96126635 2.3495515 1.87180422 2.42786988-4.06172659 2.3495515-.71396456 2.42786988 2.24352292 2.42786989-5.36925268 2.3495515 6.13659923 2.43113314 8.71243267 2.3495515-6.27349955 2.42786989-17.11462385 2.42786988 7.49993213 2.19291473-3.83902195 2.42460662 3.54211764 2.3495515-.26834203 2.42786988.95639192 2.3495515-1.40614362 2.42786989-1.72663987 2.42786988 1.49760571 2.3495515-1.62591085 2.43113315-.76375019 2.3495515-4.19977592" stroke="#ff7f0e"/><path d="m2.42786988 300h2.3495515 2.43113315 2.3495515 2.42786989 2.42786988 2.19291473 2.42460662 2.3495515 2.42786988 2.3495515 2.42786989 2.42786988 2.3495515 2.43113315 2.3495515 2.42786988 2.42786988 2.19291474 2.42460661 2.3495515 2.42786989 2.3495515 2.42786988 2.42786988 2.3495515 2.43113315 2.3495515 2.42786989 2.42786988 2.19291473 2.42460662 2.3495515 2.42786988 2.3495515 2.42786989 2.42786988 2.3495515 2.43113315 2.3495515 2.42786988 2.42786989 2.27123311 2.42460662 2.3495515 2.42786988 2.3495515 2.42786989 2.42786988 2.3495515 2.43113315 2.3495515 2.42786988 2.42786988 2.19291474 2.42460661 2.3495515 2.42786989 2.3495515 2.42786988 2.42786988 2.3495515 2.43113315 2.3495515 2.42786989 2.42786988 2.19291473 2.42460662l2.3495515-.08575006 2.42786988.08575006 2.3495515-.04261775 2.42786989-.00352531 2.42786988.04614306 2.3495515-.04361885 2.43113315-.13725441 2.3495515-.06178707 2.42786988-.03014796 2.42786989.22797221 2.19291473-.27326886 2.42460662-.00019914 2.3495515-.82049985 2.42786988.25442211 2.3495515-.66138047 2.42786988.33847527 2.42786989-.40746216 2.3495515-.24995441 2.43113314-.46629215 2.3495515.22815515 2.42786989-.61030103 2.42786988-.05583726 2.27123312-1.09410058 2.42460661.28793479 2.3495515-.57801093 2.42786989-.60885342 2.3495515-.50045832 2.42786988-1.52674767 2.42786988.8301428 2.3495515.43055138 2.43113315-1.21309105 2.3495515.30192099 2.42786989-.58747511 2.42786988 2.27050523 2.19291473-1.21757861 2.42460662-.38553743 2.3495515-.21607277 2.42786988-1.66614209 2.3495515.06856906 2.42786989 1.21391584 2.42786988-.4236248 2.3495515-.18632937 2.43113315.80103379 2.3495515-.89234483 2.42786988.38325604 2.42786989-.0002402 2.19291473.04590444 2.42460662-.1368639 2.3495515-.45683641 2.42786988-1.36351677 2.3495515.91847786 2.42786988.40055528 2.42786989-1.55630897 2.3495515.94684384 2.43113314.20040202 2.3495515-2.30453496 2.42786989 2.84469394 2.42786988-.98664072 2.19291473-1.7584479 2.42460662.62115048 2.3495515-1.1442122 2.42786988 1.43419428 2.3495515-.69514707 2.42786989.55876638 2.42786988.36950912 2.3495515.42950716 2.43113315.25974121 2.3495515-1.31237777 2.42786988-1.56673556 2.42786989.97375939 2.27123311-.03172238 2.42460662.47704225 2.3495515 2.02773741 2.42786988.09940002 2.3495515-1.60387432 2.42786989-1.65042514 2.42786988-1.28735285 2.3495515 3.11866878 2.43113315.76597548 2.3495515-2.43552565 2.42786988.6291361 2.42786989-.08261158 2.19291473 1.37092169 2.42460662-.84297854 2.3495515-1.64070748 2.42786988 2.25765802 2.3495515-1.28229805 2.42786988 2.43350633 2.42786989-.91463429 2.3495515.07366217 2.43113314.90815305 2.3495515-.02720308 2.42786989-2.48992736 2.42786988 1.58822083 2.19291473-1.10092658 2.42460662-.59860494 2.3495515.24081215 2.42786988-.03686495 2.3495515 1.63066455 2.42786989.14211215 2.42786988-.69203662 2.3495515 1.3227479 2.43113315-1.78046191 2.3495515-.08228496" stroke="#2ca02c"/><path d="m2.42786988 300h2.3495515 2.43113315 2.3495515 2.42786989 2.42786988 2.19291473 2.42460662 2.3495515 2.42786988 2.3495515 2.42786989 2.42786988 2.3495515 2.43113315 2.3495515 2.42786988 2.42786988 2.19291474 2.42460661 2.3495515 2.42786989 2.3495515 2.42786988 2.42786988 2.3495515 2.43113315 2.3495515 2.42786989 2.42786988 2.19291473 2.42460662 2.3495515 2.42786988 2.3495515 2.42786989 2.42786988 2.3495515 2.43113315 2.3495515 2.42786988 2.42786989 2.27123311 2.42460662 2.3495515 2.42786988 2.3495515 2.42786989 2.42786988 2.3495515 2.43113315 2.3495515 2.42786988 2.42786988 2.19291474 2.42460661 2.3495515 2.42786989 2.3495515 2.42786988 2.42786988 2.3495515l2.43113315-.04276672 2.3495515.04276672 2.42786989-.23967277 2.42786988-.1618627 2.19291473-.7613003 2.42460662-.78035064 2.3495515-.28631504 2.42786988-1.34956334 2.3495515-.25653297 2.42786989-2.71671616 2.42786988-.85210996 2.3495515-.70868271 2.43113315-1.65404924 2.3495515-2.17173259 2.42786988-.29201652 2.42786989-1.89246004 2.19291473-.58898863 2.42460662-2.91373459 2.3495515-8.44438749 2.42786988 2.2323658 2.3495515-1.20323925 2.42786988-3.22581931 2.42786989.51897867 2.3495515.91267285 2.43113314-1.34834071 2.3495515-.02925357 2.42786989-2.13233433 2.42786988-.11332209 2.27123312-.33335119 2.42460661-1.53795289 2.3495515.38272094 2.42786989 1.28165475 2.3495515-2.19263665 2.42786988-1.54591024 2.42786988 2.88737211 2.3495515-2.69085185 2.43113315 1.58004977 2.3495515.9425271 2.42786989 2.71951034 2.42786988.25270136 2.19291473 2.52397277 2.42460662-1.37007155 2.3495515-.73335701 2.42786988-2.25396071 2.3495515-2.77930554 2.42786989 2.96854376 2.42786988-1.09128983 2.3495515.45813859 2.43113315-.83479123 2.3495515-.69414053 2.42786988 1.84966389 2.42786989.76637018 2.19291473.84426626 2.42460662-3.02766406 2.3495515 3.86029057 2.42786988-1.10995639 2.3495515 2.48057049 2.42786988-3.61673967 2.42786989 2.29868253 2.3495515-.29656755 2.43113314 4.24248707 2.3495515-.2756208 2.42786989-4.36486905 2.42786988 2.63960243 2.19291473-.35919433 2.42460662 1.1129027 2.3495515 3.96339773 2.42786988-2.84053006 2.3495515-2.47567533 2.42786989.4740282 2.42786988 4.17180299 2.3495515.18007591 2.43113315.40116732 2.3495515 1.04507243 2.42786988.28829609 2.42786989.51426659 2.27123311-1.27642063 2.42460662 3.21171185 2.3495515 1.65214662 2.42786988-3.02103058 2.3495515-1.03795455 2.42786989 3.47020486 2.42786988-1.12324948 2.3495515 3.76806233 2.43113315 1.82224299 2.3495515-1.89664057 2.42786988-2.43347343 2.42786989.44933657 2.19291473-.31717245 2.42460662 2.76105024 2.3495515-.91325425 2.42786988.97128619 2.3495515-1.32829069 2.42786988 1.93262602 2.42786989-2.3319156 2.3495515 3.21013497 2.43113314 1.04226584 2.3495515-2.82757873 2.42786989-.48485742 2.42786988.2876073 2.19291473 2.2036238 2.42460662-.30396366 2.3495515 1.12648014 2.42786988 1.43662934 2.3495515-.15250626 2.42786989-.93358594 2.42786988.86618486 2.3495515 1.79347443 2.43113315-2.98153877 2.3495515.29301774" stroke="#d62728"/></g></g><text dy="1em" font-weight="bold" text-anchor="middle" transform="matrix(0 -1 1 0 20 150)" x="-50">% of Stack Overflow questions that month</text><g font-size="12" transform="translate(530 30)"><text font-weight="bold">Tag</text><g transform="translate(0 20)"><text x="1em" y="0em">flutter</text><text x="1em" y="1em">react-native</text><text x="1em" y="2em">ionic-framework</text><text x="1em" y="3em">electron</text><circle cy="-.25em" fill="#1f77b4" r=".4em"/><circle cy=".75em" fill="#ff7f0e" r=".4em"/><circle cy="1.75em" fill="#d62728" r=".4em"/><circle cy="2.75em" fill="#2ca02c" r=".4em"/></g></g></svg>