
            <svg id="trend-chart" width="660" height="400" title="Stack Overflow Trends Chart" version="1.1" xmlns="http://www.w3.org/2000/svg"><g></g><g class="chart-area" transform="translate(100, 20)"><g transform="translate(0,300)" fill="none" font-size="10" font-family="sans-serif" text-anchor="middle"><path class="domain" stroke="#000" d="M0.5,6V0.5H410.5V6"></path><g class="tick" opacity="1" transform="translate(40.572185831058334,0)"><line stroke="#000" y2="6" x1="0.5" x2="0.5"></line><text fill="#000" y="9" x="0.5" dy="0.71em" style="font-size: 12px;">2010</text></g><g class="tick" opacity="1" transform="translate(97.74460566216442,0)"><line stroke="#000" y2="6" x1="0.5" x2="0.5"></line><text fill="#000" y="9" x="0.5" dy="0.71em" style="font-size: 12px;">2012</text></g><g class="tick" opacity="1" transform="translate(154.9953438766008,0)"><line stroke="#000" y2="6" x1="0.5" x2="0.5"></line><text fill="#000" y="9" x="0.5" dy="0.71em" style="font-size: 12px;">2014</text></g><g class="tick" opacity="1" transform="translate(212.16776370770688,0)"><line stroke="#000" y2="6" x1="0.5" x2="0.5"></line><text fill="#000" y="9" x="0.5" dy="0.71em" style="font-size: 12px;">2016</text></g><g class="tick" opacity="1" transform="translate(269.41850192214326,0)"><line stroke="#000" y2="6" x1="0.5" x2="0.5"></line><text fill="#000" y="9" x="0.5" dy="0.71em" style="font-size: 12px;">2018</text></g><g class="tick" opacity="1" transform="translate(326.59092175324935,0)"><line stroke="#000" y2="6" x1="0.5" x2="0.5"></line><text fill="#000" y="9" x="0.5" dy="0.71em" style="font-size: 12px;">2020</text></g><g class="tick" opacity="1" transform="translate(383.8416599676857,0)"><line stroke="#000" y2="6" x1="0.5" x2="0.5"></line><text fill="#000" y="9" x="0.5" dy="0.71em" style="font-size: 12px;">2022</text></g></g><g class="grid-lines" transform="translate(0,300)" fill="none" font-size="10" font-family="sans-serif" text-anchor="middle"><path class="domain" stroke="#000" d="M0.5,-300V0.5H410.5V-300"></path><g class="tick" opacity="1" transform="translate(40.572185831058334,0)"><line stroke="#000" y2="-300" x1="0.5" x2="0.5" style="stroke: #ccc; fill: none;"></line></g><g class="tick" opacity="1" transform="translate(97.74460566216442,0)"><line stroke="#000" y2="-300" x1="0.5" x2="0.5" style="stroke: #ccc; fill: none;"></line></g><g class="tick" opacity="1" transform="translate(154.9953438766008,0)"><line stroke="#000" y2="-300" x1="0.5" x2="0.5" style="stroke: #ccc; fill: none;"></line></g><g class="tick" opacity="1" transform="translate(212.16776370770688,0)"><line stroke="#000" y2="-300" x1="0.5" x2="0.5" style="stroke: #ccc; fill: none;"></line></g><g class="tick" opacity="1" transform="translate(269.41850192214326,0)"><line stroke="#000" y2="-300" x1="0.5" x2="0.5" style="stroke: #ccc; fill: none;"></line></g><g class="tick" opacity="1" transform="translate(326.59092175324935,0)"><line stroke="#000" y2="-300" x1="0.5" x2="0.5" style="stroke: #ccc; fill: none;"></line></g><g class="tick" opacity="1" transform="translate(383.8416599676857,0)"><line stroke="#000" y2="-300" x1="0.5" x2="0.5" style="stroke: #ccc; fill: none;"></line></g></g><text x="205" y="360" class="axis-label x-axis-label" style="text-anchor: middle; font-weight: bold;">Year</text><g fill="none" font-size="10" font-family="sans-serif" text-anchor="end"><path class="domain" stroke="#000" d="M-6,300.5H0.5V0.5H-6"></path><g class="tick" opacity="1" transform="translate(0,300)"><line stroke="#000" x2="-6" y1="0.5" y2="0.5"></line><text fill="#000" x="-9" y="0.5" dy="0.32em" style="font-size: 12px;">0.00%</text></g><g class="tick" opacity="1" transform="translate(0,262.5)"><line stroke="#000" x2="-6" y1="0.5" y2="0.5"></line><text fill="#000" x="-9" y="0.5" dy="0.32em" style="font-size: 12px;">0.50%</text></g><g class="tick" opacity="1" transform="translate(0,225)"><line stroke="#000" x2="-6" y1="0.5" y2="0.5"></line><text fill="#000" x="-9" y="0.5" dy="0.32em" style="font-size: 12px;">1.00%</text></g><g class="tick" opacity="1" transform="translate(0,187.5)"><line stroke="#000" x2="-6" y1="0.5" y2="0.5"></line><text fill="#000" x="-9" y="0.5" dy="0.32em" style="font-size: 12px;">1.50%</text></g><g class="tick" opacity="1" transform="translate(0,150)"><line stroke="#000" x2="-6" y1="0.5" y2="0.5"></line><text fill="#000" x="-9" y="0.5" dy="0.32em" style="font-size: 12px;">2.00%</text></g><g class="tick" opacity="1" transform="translate(0,112.5)"><line stroke="#000" x2="-6" y1="0.5" y2="0.5"></line><text fill="#000" x="-9" y="0.5" dy="0.32em" style="font-size: 12px;">2.50%</text></g><g class="tick" opacity="1" transform="translate(0,75)"><line stroke="#000" x2="-6" y1="0.5" y2="0.5"></line><text fill="#000" x="-9" y="0.5" dy="0.32em" style="font-size: 12px;">3.00%</text></g><g class="tick" opacity="1" transform="translate(0,37.49999999999994)"><line stroke="#000" x2="-6" y1="0.5" y2="0.5"></line><text fill="#000" x="-9" y="0.5" dy="0.32em" style="font-size: 12px;">3.50%</text></g><g class="tick" opacity="1" transform="translate(0,0)"><line stroke="#000" x2="-6" y1="0.5" y2="0.5"></line><text fill="#000" x="-9" y="0.5" dy="0.32em" style="font-size: 12px;">4.00%</text></g></g><g class="grid-lines" fill="none" font-size="10" font-family="sans-serif" text-anchor="end"><path class="domain" stroke="#000" d="M410,300.5H0.5V0.5H410"></path><g class="tick" opacity="1" transform="translate(0,300)"><line stroke="#000" x2="410" y1="0.5" y2="0.5" style="stroke: #ccc; fill: none;"></line></g><g class="tick" opacity="1" transform="translate(0,262.5)"><line stroke="#000" x2="410" y1="0.5" y2="0.5" style="stroke: #ccc; fill: none;"></line></g><g class="tick" opacity="1" transform="translate(0,225)"><line stroke="#000" x2="410" y1="0.5" y2="0.5" style="stroke: #ccc; fill: none;"></line></g><g class="tick" opacity="1" transform="translate(0,187.5)"><line stroke="#000" x2="410" y1="0.5" y2="0.5" style="stroke: #ccc; fill: none;"></line></g><g class="tick" opacity="1" transform="translate(0,150)"><line stroke="#000" x2="410" y1="0.5" y2="0.5" style="stroke: #ccc; fill: none;"></line></g><g class="tick" opacity="1" transform="translate(0,112.5)"><line stroke="#000" x2="410" y1="0.5" y2="0.5" style="stroke: #ccc; fill: none;"></line></g><g class="tick" opacity="1" transform="translate(0,75)"><line stroke="#000" x2="410" y1="0.5" y2="0.5" style="stroke: #ccc; fill: none;"></line></g><g class="tick" opacity="1" transform="translate(0,37.49999999999994)"><line stroke="#000" x2="410" y1="0.5" y2="0.5" style="stroke: #ccc; fill: none;"></line></g><g class="tick" opacity="1" transform="translate(0,0)"><line stroke="#000" x2="410" y1="0.5" y2="0.5" style="stroke: #ccc; fill: none;"></line></g></g><g class="lines"><path class="line" d="M2.4278698832387517,300L4.777421383147221,300L7.208554532358068,300L9.558106032266537,300L11.98597591550529,300L14.413845798744042,300L16.606760531991945,300L19.031367149258603,300L21.38091864916707,300L23.808788532405824,300L26.158340032314293,300L28.58620991555304,300L31.014079798791794,300L33.36363129870026,300L35.79476444791111,300L38.144315947819585,300L40.572185831058334,300L43.00005571429709,300L45.19297044754499,300L47.61757706481165,300L49.96712856472011,300L52.39499844795886,300L54.74454994786734,300L57.17241983110608,300L59.60028971434485,300L61.94984121425331,300L64.38097436346416,300L66.73052586337262,300L69.15839574661138,300L71.58626562985012,300L73.77918036309804,300L76.2037869803647,300L78.55333848027315,300L80.98120836351191,300L83.33075986342038,300L85.75862974665912,299.92977002025L88.18649962989788,300L90.53605112980635,300L92.9671842790172,300L95.31673577892568,300L97.74460566216442,300L100.17247554540317,300L102.44370866198136,300L104.86831527924801,300L107.2178667791565,300L109.64573666239524,300L111.99528816230371,300L114.42315804554245,300L116.85102792878119,300L119.2005794286897,300L121.63171257790052,299.898048651225L123.98126407780899,300L126.40913396104776,300L128.8370038442865,300L131.0299185775344,300L133.45452519480105,300L135.80407669470952,299.9546641521L138.23194657794826,300L140.58149807785676,299.95725375315L143.0093679610955,300L145.43723784433425,299.954446617525L147.78678934424272,299.959058900625L150.21792249345359,300L152.56747399336203,300L154.9953438766008,300L157.42321375983954,299.9598464529L159.61612849308744,299.963661382275L162.04073511035412,300L164.3902866102626,300L166.81815649350133,299.953518639075L169.16770799340978,300L171.59557787664855,299.907713888475L174.02344775988732,299.9545740867L176.37299925979576,300L178.8041324090066,300L181.15368390891507,300L183.58155379215384,300L186.00942367539258,300L188.2023384086405,300L190.62694502590713,299.960211990525L192.9764965258156,300L195.40436640905435,300L197.75391790896285,300L200.1817877922016,299.95836941325L202.60965767544033,300L204.9592091753488,300L207.39034232455964,299.83047303675L209.73989382446814,300L212.16776370770688,299.958259359675L214.59563359094562,299.959869871425L216.86686670752383,300L219.29147332479047,300L221.64102482469892,300L224.0688947079377,299.95894819815L226.4184462078462,299.9572157127L228.8463160910849,300L231.27418597432367,299.955858724425L233.62373747423212,300L236.054870623443,299.82713815695L238.40442212335145,299.160040318125L240.83229200659022,299.0573313909L243.26016188982896,299.43784918215L245.45307662307687,299.4363925113L247.87768324034352,298.9400371977L250.22723474025202,296.22497523915L252.65510462349073,296.1339111225L255.0046561233992,296.545254359175L257.432526006638,296.11463118885L259.8603958898767,296.401891577025L262.2099473897852,295.77000712425L264.64108053899605,296.0554861614L266.9906320389045,295.6224160095L269.41850192214326,295.8414194622L271.84637180538203,294.950128392225L274.0392865386299,280.057621056825L276.4638931558965,276.86782949355L278.81344465580503,271.728497071875L281.2413145390438,268.8947564979L283.59086603895224,265.68180089745L286.018735922191,260.793785871075L288.4466058054297,257.87108552175L290.7961573053382,259.1183845683L293.22729045454906,260.43301887435L295.57684195445756,243.22800828285L298.0047118376963,231.418737738225L300.43258172093505,233.207758841625L302.62549645418295,232.562195790075L305.0501030714496,229.6216752024L307.39965457135804,221.14098457335L309.8275244545968,219.889977010125L312.17707595450526,212.922969544875L314.604945837744,196.5823346649L317.0328157209828,198.04087260120002L319.38236722089124,208.10983015755L321.81350037010213,204.6395446449L324.1630518700106,176.7807246576L326.59092175324935,180.25727107912502L329.01879163648806,184.14668134507502L331.2900247530663,177.95125173225L333.71463137033294,158.24507317725L336.06418287024144,146.62958770875L338.49205275348015,144.301340861025L340.84160425338865,150.39262235212502L343.26947413662737,129.85077676455L345.69734401986614,140.225094384075L348.04689551977464,132.288177866475L350.4780286689855,135.49530948427497L352.8275801688939,131.82640144672501L355.2554500521327,132.472087702725L357.68331993537146,130.49352123914997L359.8762346686193,113.52269951970001L362.30084128588595,115.52822640397503L364.65039278579445,97.73109180374999L367.07826266903317,96.47298037072503L369.42781416894167,105.3151286115L371.85568405218044,95.962163857575L374.28355393541915,83.28804919289999L376.63310543532765,107.282280376725L379.0642385845385,119.521932527025L381.413790084447,107.65786740217499L383.8416599676857,89.64808043879998L386.26952985092447,84.750446484375L388.4624445841724,86.94443696670001L390.887051201439,99.15533296019998L393.23660270134746,88.71137390910002L395.66447258458624,76.93126621867503L398.0140240844947,76.840714109775L400.44189396773345,64.87534504672504L402.8697638509722,76.66511778097501L405.21931535088066,83.81349333585001L407.6504485000915,80.276841738375L410,79.67083638772499" data-legend="flutter" style="stroke: rgb(31, 119, 180); fill: none;"></path><path class="line" d="M2.4278698832387517,300L4.777421383147221,300L7.208554532358068,300L9.558106032266537,300L11.98597591550529,300L14.413845798744042,300L16.606760531991945,300L19.031367149258603,300L21.38091864916707,300L23.808788532405824,300L26.158340032314293,300L28.58620991555304,300L31.014079798791794,300L33.36363129870026,300L35.79476444791111,300L38.144315947819585,300L40.572185831058334,300L43.00005571429709,300L45.19297044754499,300L47.61757706481165,300L49.96712856472011,300L52.39499844795886,300L54.74454994786734,300L57.17241983110608,300L59.60028971434485,300L61.94984121425331,300L64.38097436346416,300L66.73052586337262,300L69.15839574661138,300L71.58626562985012,300L73.77918036309804,300L76.2037869803647,300L78.55333848027315,300L80.98120836351191,300L83.33075986342038,300L85.75862974665912,300L88.18649962989788,300L90.53605112980635,300L92.9671842790172,300L95.31673577892568,300L97.74460566216442,300L100.17247554540317,300L102.44370866198136,300L104.86831527924801,300L107.2178667791565,300L109.64573666239524,300L111.99528816230371,300L114.42315804554245,300L116.85102792878119,300L119.2005794286897,300L121.63171257790052,300L123.98126407780899,300L126.40913396104776,300L128.8370038442865,300L131.0299185775344,300L133.45452519480105,299.9559717045L135.80407669470952,300L138.23194657794826,300L140.58149807785676,300L143.0093679610955,300L145.43723784433425,300L147.78678934424272,300L150.21792249345359,300L152.56747399336203,300L154.9953438766008,300L157.42321375983954,300L159.61612849308744,300L162.04073511035412,300L164.3902866102626,300L166.81815649350133,300L169.16770799340978,300L171.59557787664855,300L174.02344775988732,300L176.37299925979576,300L178.8041324090066,300L181.15368390891507,300L183.58155379215384,300L186.00942367539258,300L188.2023384086405,297.33587110395L190.62694502590713,295.424378909175L192.9764965258156,295.68881369175L195.40436640905435,296.9850619872L197.75391790896285,296.212882383L200.1817877922016,296.086724838525L202.60965767544033,292.733628709725L204.9592091753488,289.9468154106L207.39034232455964,285.802116826725L209.73989382446814,284.053458880725L212.16776370770688,284.0133347433L214.59563359094562,282.8243049462L216.86686670752383,282.07231084665L219.29147332479047,282.239603889375L221.64102482469892,277.1576442024L224.0688947079377,276.3952139073L226.4184462078462,271.3345274904L228.8463160910849,269.386055035725L231.27418597432367,272.0144312544L233.62373747423212,274.3010164416L236.054870623443,273.42249163065003L238.40442212335145,270.228095718075L240.83229200659022,265.93538435175L243.26016188982896,267.61146441735L245.45307662307687,260.84806645065L247.87768324034352,259.085435828475L250.22723474025202,253.766094594825L252.65510462349073,250.505565468675L255.0046561233992,246.030132123L257.432526006638,246.458763855L259.8603958898767,245.1872574003L262.2099473897852,241.84872951795L264.64108053899605,239.8461639603L266.9906320389045,236.62926032730002L269.41850192214326,230.58005897625L271.84637180538203,238.658912528325L274.0392865386299,235.00099346655L276.4638931558965,231.39632496975L278.81344465580503,229.343859881925L281.2413145390438,226.58572860637503L283.59086603895224,222.522625294725L286.018735922191,225.426613517325L288.4466058054297,214.37298132285L290.7961573053382,221.31591745995001L293.22729045454906,224.62464699555L295.57684195445756,218.149397960025L298.0047118376963,210.59488008045L300.43258172093505,210.87442781662503L302.62549645418295,217.30840674255L305.0501030714496,217.03287625972501L307.39965457135804,222.1964589672L309.8275244545968,208.637625772575L312.17707595450526,202.7555937345L314.604945837744,194.695960941L317.0328157209828,207.3250461429L319.38236722089124,208.259164128L321.81350037010213,205.970393726625L324.1630518700106,206.726673079575L326.59092175324935,202.334190444075L329.01879163648806,204.16103454525L331.2900247530663,210.29684120550002L333.71463137033294,201.46354399755L336.06418287024144,203.77793783955L338.49205275348015,202.6993648554L340.84160425338865,197.963842220625L343.26947413662737,201.92539519305L345.69734401986614,200.9770266702L348.04689551977464,203.42407183072498L350.4780286689855,204.787019166075L352.8275801688939,206.98462929480002L355.2554500521327,199.15848122467503L357.68331993537146,204.372108723525L359.8762346686193,208.66937125185L362.30084128588595,204.70810490445L364.65039278579445,206.579909123175L367.07826266903317,202.51818252915L369.42781416894167,201.80421796905L371.85568405218044,204.0477408918L374.28355393541915,198.67848821077501L376.63310543532765,204.815087443275L379.0642385845385,213.527520109425L381.413790084447,207.25402055955L383.8416599676857,190.139396709375L386.26952985092447,197.63932884037501L388.4624445841724,193.8003068889L390.887051201439,197.342424528825L393.23660270134746,197.074082497125L395.66447258458624,198.030474416175L398.0140240844947,196.624330802175L400.44189396773345,194.897690925825L402.8697638509722,196.3952966379L405.21931535088066,194.7693857922L407.6504485000915,194.005635603075L410,189.805859679825" data-legend="react-native" style="stroke: rgb(255, 127, 14); fill: none;"></path><path class="line" d="M2.4278698832387517,300L4.777421383147221,300L7.208554532358068,300L9.558106032266537,300L11.98597591550529,300L14.413845798744042,300L16.606760531991945,300L19.031367149258603,300L21.38091864916707,300L23.808788532405824,300L26.158340032314293,300L28.58620991555304,300L31.014079798791794,300L33.36363129870026,300L35.79476444791111,300L38.144315947819585,300L40.572185831058334,300L43.00005571429709,300L45.19297044754499,300L47.61757706481165,300L49.96712856472011,300L52.39499844795886,300L54.74454994786734,300L57.17241983110608,300L59.60028971434485,300L61.94984121425331,300L64.38097436346416,300L66.73052586337262,300L69.15839574661138,300L71.58626562985012,300L73.77918036309804,300L76.2037869803647,300L78.55333848027315,300L80.98120836351191,300L83.33075986342038,300L85.75862974665912,300L88.18649962989788,300L90.53605112980635,300L92.9671842790172,300L95.31673577892568,300L97.74460566216442,300L100.17247554540317,300L102.44370866198136,300L104.86831527924801,300L107.2178667791565,300L109.64573666239524,300L111.99528816230371,300L114.42315804554245,300L116.85102792878119,300L119.2005794286897,300L121.63171257790052,300L123.98126407780899,300L126.40913396104776,300L128.8370038442865,300L131.0299185775344,300L133.45452519480105,300L135.80407669470952,300L138.23194657794826,300L140.58149807785676,300L143.0093679610955,300L145.43723784433425,300L147.78678934424272,300L150.21792249345359,300L152.56747399336203,300L154.9953438766008,300L157.42321375983954,300L159.61612849308744,300L162.04073511035412,300L164.3902866102626,299.9142499443L166.81815649350133,300L169.16770799340978,299.9573822472L171.59557787664855,299.953856944275L174.02344775988732,300L176.37299925979576,299.956381147425L178.8041324090066,299.81912674395L181.15368390891507,299.7573396663L183.58155379215384,299.72719171155L186.00942367539258,299.95516392075L188.2023384086405,299.681895057225L190.62694502590713,299.681695924125L192.9764965258156,298.86119606955L195.40436640905435,299.115618182925L197.75391790896285,298.45423770735L200.1817877922016,298.79271298215L202.60965767544033,298.3852508244L204.9592091753488,298.1352964068L207.39034232455964,297.6690042552L209.73989382446814,297.897159412875L212.16776370770688,297.28685837685L214.59563359094562,297.2310211245L216.86686670752383,296.13692053815L219.29147332479047,296.424855328425L221.64102482469892,295.84684440045L224.0688947079377,295.237990979625L226.4184462078462,294.737532658725L228.8463160910849,293.21078499435L231.27418597432367,294.040927790775L233.62373747423212,294.471479167275L236.054870623443,293.258388120975L238.40442212335145,293.5603091052L240.83229200659022,292.9728340047L243.26016188982896,295.243339233525L245.45307662307687,294.025760619675L247.87768324034352,293.640223185825L250.22723474025202,293.424150416475L252.65510462349073,291.758008326975L255.0046561233992,291.82657738635L257.432526006638,293.040493228425L259.8603958898767,292.6168684308L262.2099473897852,292.4305390644L264.64108053899605,293.231572845075L266.9906320389045,292.33922801655L269.41850192214326,292.722484058775L271.84637180538203,292.72224385935L274.0392865386299,292.768148295375L276.4638931558965,292.63128439515L278.81344465580503,292.174447989525L281.2413145390438,290.81093122455L283.59086603895224,291.7294090806L286.018735922191,292.129964360925L288.4466058054297,290.5736553855L290.7961573053382,291.5204992326L293.22729045454906,291.72090125355L295.57684195445756,289.416366285825L298.0047118376963,292.2610602348L300.43258172093505,291.27441950655L302.62549645418295,289.515971614425L305.0501030714496,290.137122088275L307.39965457135804,288.992909892675L309.8275244545968,290.427104171025L312.17707595450526,289.73195710245L314.604945837744,290.290723479825L317.0328157209828,290.660232604725L319.38236722089124,291.089739760725L321.81350037010213,291.3494809689L324.1630518700106,290.037103201875L326.59092175324935,288.470367638475L329.01879163648806,289.4441270328L331.2900247530663,289.412404646925L333.71463137033294,289.88944690305L336.06418287024144,291.9171843099L338.49205275348015,292.016584333125L340.84160425338865,290.412710007375L343.26947413662737,288.7622848659L345.69734401986614,287.4749320221L348.04689551977464,290.593600798125L350.4780286689855,291.35957628262497L352.8275801688939,288.92405063295L355.2554500521327,289.553186729175L357.68331993537146,289.4705751483L359.8762346686193,290.841496838625L362.30084128588595,289.99851829905L364.65039278579445,288.357810816375L367.07826266903317,290.6154688356L369.42781416894167,289.333170791175L371.85568405218044,291.766677121725L374.28355393541915,290.8520428335L376.63310543532765,290.925705002925L379.0642385845385,291.8338580484L381.413790084447,291.806654966175L383.8416599676857,289.316727605175L386.26952985092447,290.904948443025L388.4624445841724,289.804021859175L390.887051201439,289.205416918125L393.23660270134746,289.446229070175L395.66447258458624,289.409364118275L398.0140240844947,291.04002867195L400.44189396773345,291.182140822875L402.8697638509722,290.4901041954L405.21931535088066,291.81285210465L407.6504485000915,290.03239019295L410,289.950105228375" data-legend="electron" style="stroke: rgb(44, 160, 44); fill: none;"></path><path class="line" d="M2.4278698832387517,300L4.777421383147221,300L7.208554532358068,300L9.558106032266537,300L11.98597591550529,300L14.413845798744042,300L16.606760531991945,300L19.031367149258603,300L21.38091864916707,300L23.808788532405824,300L26.158340032314293,300L28.58620991555304,300L31.014079798791794,300L33.36363129870026,300L35.79476444791111,300L38.144315947819585,300L40.572185831058334,300L43.00005571429709,300L45.19297044754499,300L47.61757706481165,300L49.96712856472011,300L52.39499844795886,300L54.74454994786734,300L57.17241983110608,300L59.60028971434485,300L61.94984121425331,300L64.38097436346416,300L66.73052586337262,300L69.15839574661138,300L71.58626562985012,300L73.77918036309804,300L76.2037869803647,300L78.55333848027315,300L80.98120836351191,300L83.33075986342038,300L85.75862974665912,300L88.18649962989788,300L90.53605112980635,300L92.9671842790172,300L95.31673577892568,300L97.74460566216442,300L100.17247554540317,300L102.44370866198136,300L104.86831527924801,300L107.2178667791565,300L109.64573666239524,300L111.99528816230371,300L114.42315804554245,300L116.85102792878119,300L119.2005794286897,300L121.63171257790052,300L123.98126407780899,300L126.40913396104776,300L128.8370038442865,300L131.0299185775344,300L133.45452519480105,300L135.80407669470952,300L138.23194657794826,300L140.58149807785676,300L143.0093679610955,300L145.43723784433425,300L147.78678934424272,300L150.21792249345359,299.957233278225L152.56747399336203,300L154.9953438766008,299.76032723325L157.42321375983954,299.5984645284L159.61612849308744,298.837164231225L162.04073511035412,298.0568135889L164.3902866102626,297.770498550825L166.81815649350133,296.420935205025L169.16770799340978,296.164402243425L171.59557787664855,293.447686079625L174.02344775988732,292.59557612175L176.37299925979576,291.886893407175L178.8041324090066,290.232844171725L181.15368390891507,288.061111578525L183.58155379215384,287.7690950646L186.00942367539258,285.876635022375L188.2023384086405,285.287646394575L190.62694502590713,282.373911798L192.9764965258156,273.929524305375L195.40436640905435,276.161890111575L197.75391790896285,274.958650858725L200.1817877922016,271.73283154605L202.60965767544033,272.25181021882497L204.9592091753488,273.1644830718L207.39034232455964,271.816142357475L209.73989382446814,271.786888788975L212.16776370770688,269.654554460475L214.59563359094562,269.5412323695L216.86686670752383,269.207881182225L219.29147332479047,267.6699282921L221.64102482469892,268.052649234075L224.0688947079377,269.3343039804L226.4184462078462,267.141667332225L228.8463160910849,265.59575708775003L231.27418597432367,268.4831292045L233.62373747423212,265.7922773475L236.054870623443,267.372327123825L238.40442212335145,268.314854220375L240.83229200659022,271.034364555675L243.26016188982896,271.2870659187L245.45307662307687,273.81103869105L247.87768324034352,272.44096713839997L250.22723474025202,271.707610125225L252.65510462349073,269.453649417975L255.0046561233992,266.67434387925L257.432526006638,269.642887640325L259.8603958898767,268.5515978094L262.2099473897852,269.0097364047L264.64108053899605,268.17494516535L266.9906320389045,267.4808046417L269.41850192214326,269.330468533425L271.84637180538203,270.096838714425L274.0392865386299,270.941104968525L276.4638931558965,267.913440910425L278.81344465580503,271.773731476575L281.2413145390438,270.6637750857L283.59086603895224,273.14434557765003L286.018735922191,269.52760590959997L288.4466058054297,271.826288442675L290.7961573053382,271.52972088705L293.22729045454906,275.77220796285L295.57684195445756,275.49658716165L298.0047118376963,271.13171811255L300.43258172093505,273.771320540475L302.62549645418295,273.4121262114L305.0501030714496,274.52502891135L307.39965457135804,278.488426639575L309.8275244545968,275.647896575475L312.17707595450526,273.1722212529L314.604945837744,273.64624944525L317.0328157209828,277.818052436175L319.38236722089124,277.998128347575L321.81350037010213,278.399295673725L324.1630518700106,279.44436810045L326.59092175324935,279.732664189575L329.01879163648806,280.246930784175L331.2900247530663,278.9705101473L333.71463137033294,282.1822220013L336.06418287024144,283.834368619725L338.49205275348015,280.813338038175L340.84160425338865,279.775383491625L343.26947413662737,283.245588345525L345.69734401986614,282.12233886915L348.04689551977464,285.890401197225L350.4780286689855,287.712644194125L352.8275801688939,285.81600361665L355.2554500521327,283.38253018575L357.68331993537146,283.831866757725L359.8762346686193,283.514694309525L362.30084128588595,286.275744554775L364.65039278579445,285.3624902982L367.07826266903317,286.333776491775L369.42781416894167,285.0054857979L371.85568405218044,286.938111824625L374.28355393541915,284.606196216375L376.63310543532765,287.81633119275L379.0642385845385,288.8585970273L381.413790084447,286.03101830295L383.8416599676857,285.54616087755L386.26952985092447,285.833768180925L388.4624445841724,288.03739198327503L390.887051201439,287.733428316L393.23660270134746,288.859908462975L395.66447258458624,290.296537804725L398.0140240844947,290.1440315391L400.44189396773345,289.210445603175L402.8697638509722,290.076630464775L405.21931535088066,291.870104887125L407.6504485000915,288.888566116725L410,289.181583863475" data-legend="ionic-framework" style="stroke: rgb(214, 39, 40); fill: none;"></path></g></g><g transform="translate(20, 150)"><text transform="rotate(-90)" x="-50" y="0" dy="1em" class="axis-label y-axis-label" style="text-anchor: middle; font-weight: bold;">% of Stack Overflow questions that month</text></g><g class="legend" transform="translate(530, 30)" style="font-size: 12px;"><text class="legend-title" style="font-weight: bold;">Tag</text><g class="legend-items" transform="translate(0,20)"><text y="0em" x="1em">flutter</text><text y="1em" x="1em">react-native</text><text y="2em" x="1em">ionic-framework</text><text y="3em" x="1em">electron</text><circle cy="-0.25em" cx="0" r="0.4em" style="fill: rgb(31, 119, 180);"></circle><circle cy="0.75em" cx="0" r="0.4em" style="fill: rgb(255, 127, 14);"></circle><circle cy="1.75em" cx="0" r="0.4em" style="fill: rgb(214, 39, 40);"></circle><circle cy="2.75em" cx="0" r="0.4em" style="fill: rgb(44, 160, 44);"></circle></g><rect class="legend-box"></rect></g></svg>
        