<svg xmlns="http://www.w3.org/2000/svg" viewBox="0 0 256 85.33333333333333" clip-path="url(#clip)" width="512" height="170.66666666666666"><defs><clipPath id="clip" clipPathUnits="objectBoundingBox"><rect x="0" y="0" width="256" height="85.33333333333333"/></clipPath></defs><rect x="0" y="0" width="256" height="85.33333333333333" fill="rgb(119, 125, 120)"/><path d="M323,63L-22,44L33,-183Z" fill="rgb(209, 217, 230)" fill-opacity="0.71"/><path d="M27,49L273,84L-98,96Z" fill="rgb(42, 44, 9)" fill-opacity="0.75"/><path d="M371,52L219,75L107,61Z" fill="rgb(211, 204, 204)" fill-opacity="0.56"/><path d="M182,54L115,52L157,49Z" fill="rgb(116, 117, 119)" fill-opacity="0.76"/><path d="M170,4L144,-32L143,27Z" fill="rgb(6, 78, 153)" fill-opacity="0.36"/><path d="M119,-1L88,24L172,51Z" fill="rgb(217, 220, 223)" fill-opacity="0.60"/><path d="M68,51L-15,73L0,49Z" fill="rgb(91, 87, 58)" fill-opacity="0.93"/><path d="M98,3L81,6L100,14Z" fill="rgb(88, 130, 175)" fill-opacity="0.56"/><path d="M111,56L80,60L129,61Z" fill="rgb(52, 50, 26)" fill-opacity="0.48"/><path d="M108,6L102,-28L124,4Z" fill="rgb(83, 116, 158)" fill-opacity="0.46"/><path d="M263,9L203,7L241,28Z" fill="rgb(89, 136, 184)" fill-opacity="0.43"/><path d="M163,8L208,3L184,29Z" fill="rgb(231, 231, 230)" fill-opacity="0.57"/><path d="M145,28L131,4L125,24Z" fill="rgb(222, 225, 231)" fill-opacity="0.51"/><path d="M142,18L172,4L132,5Z" fill="rgb(106, 141, 178)" fill-opacity="0.62"/><path d="M32,40L18,-26L54,24Z" fill="rgb(120, 129, 149)" fill-opacity="0.39"/><path d="M123,33L166,9L167,28Z" fill="rgb(155, 179, 200)" fill-opacity="0.63"/><path d="M307,81L180,13L194,71Z" fill="rgb(253, 244, 233)" fill-opacity="0.21"/><path d="M326,97L44,77L232,74Z" fill="rgb(35, 40, 21)" fill-opacity="0.69"/><path d="M21,50L66,49L-64,36Z" fill="rgb(171, 175, 179)" fill-opacity="0.69"/><path d="M96,37L96,20L113,30Z" fill="rgb(244, 241, 235)" fill-opacity="0.52"/><path d="M202,-4L247,7L259,-10Z" fill="rgb(254, 251, 253)" fill-opacity="0.53"/><path d="M257,73L266,65L233,63Z" fill="rgb(139, 137, 139)" fill-opacity="0.57"/><path d="M226,21L205,51L249,35Z" fill="rgb(216, 222, 224)" fill-opacity="0.55"/><path d="M67,26L76,26L32,-5Z" fill="rgb(233, 229, 228)" fill-opacity="0.42"/><path d="M108,54L101,48L166,53Z" fill="rgb(103, 103, 106)" fill-opacity="0.48"/><path d="M190,7L150,-10L202,6Z" fill="rgb(90, 124, 163)" fill-opacity="0.44"/><path d="M76,11L93,12L97,26Z" fill="rgb(255, 253, 252)" fill-opacity="0.43"/><path d="M82,17L73,28L96,32Z" fill="rgb(145, 151, 161)" fill-opacity="0.67"/><path d="M255,19L259,25L236,29Z" fill="rgb(236, 235, 234)" fill-opacity="0.54"/><path d="M25,8L42,5L27,-2Z" fill="rgb(92, 125, 164)" fill-opacity="0.51"/><path d="M145,23L149,47L138,23Z" fill="rgb(242, 241, 234)" fill-opacity="0.47"/><path d="M221,5L196,30L236,24Z" fill="rgb(128, 162, 193)" fill-opacity="0.50"/><path d="M205,20L186,-10L211,16Z" fill="rgb(220, 222, 224)" fill-opacity="0.60"/><path d="M-22,-9L17,11L2,17Z" fill="rgb(126, 127, 136)" fill-opacity="0.52"/><path d="M147,26L103,32L116,40Z" fill="rgb(122, 127, 134)" fill-opacity="0.28"/><path d="M51,36L23,27L-18,35Z" fill="rgb(132, 133, 140)" fill-opacity="0.42"/><path d="M-5,47L76,58L34,71Z" fill="rgb(95, 91, 54)" fill-opacity="0.60"/><path d="M130,30L94,2L126,14Z" fill="rgb(239, 239, 238)" fill-opacity="0.50"/><path d="M248,56L204,56L206,55Z" fill="rgb(45, 22, 17)" fill-opacity="0.36"/><path d="M63,3L74,21L72,0Z" fill="rgb(251, 246, 244)" fill-opacity="0.38"/><path d="M201,73L217,73L200,75Z" fill="rgb(42, 34, 38)" fill-opacity="0.50"/><path d="M62,24L109,46L42,32Z" fill="rgb(215, 214, 212)" fill-opacity="0.59"/><path d="M249,31L323,-5L250,51Z" fill="rgb(137, 145, 154)" fill-opacity="0.54"/><path d="M90,34L93,30L112,40Z" fill="rgb(227, 225, 219)" fill-opacity="0.49"/><path d="M172,14L159,12L158,19Z" fill="rgb(107, 144, 184)" fill-opacity="0.47"/><path d="M186,73L199,79L190,66Z" fill="rgb(70, 67, 54)" fill-opacity="0.55"/><path d="M171,58L162,44L215,66Z" fill="rgb(168, 166, 163)" fill-opacity="0.53"/><path d="M180,21L100,47L142,49Z" fill="rgb(220, 227, 224)" fill-opacity="0.45"/><path d="M173,21L183,-12L169,8Z" fill="rgb(229, 231, 236)" fill-opacity="0.55"/><path d="M277,84L233,78L255,78Z" fill="rgb(16, 10, 16)" fill-opacity="0.55"/></svg>