<svg version="1" xmlns="http://www.w3.org/2000/svg" width="533.333" height="533.333" viewBox="0 0 400.000000 400.000000"><path d="M114.1 10.1c-1.4.5-3 .8-3.8.5-1.7-.7-17.5 2.2-24.2 4.4-3.1 1-8.2 2.6-11.3 3.5-3.1 1-6.7 2.7-7.9 3.8-1.3 1.2-3 2.1-3.9 2.2-1.7 0-12.6 7.4-16.7 11.2C45 37 43.7 38 43.5 38 41.2 38 29.3 53.3 26 60.5c-4.6 10.1-5.4 14.1-5.4 28-.1 15 1.4 21.7 7.2 33.5 10.6 21.5 32.9 34 64.1 35.8 10.9.7 11.4.8 11.6 2.9.1 1.3-.1 2.3-.5 2.3-.8 0-.3 6.8.6 9 .4.8.8 1.8.8 2.2.1.4.8 1.6 1.7 2.6.8 1 1.3 2.4 1.1 3.1-.2.7 0 2.3.6 3.4 2.5 5.6 2.9 7.4 2.1 8.9-.7 1.3-.5 1.5.8 1.3 1-.2 2.3-.4 3-.4.7-.1 1.8-1.3 2.5-2.8 1.1-2.4 1.8-2.7 5.1-2.5 2 .2 3.7-.1 3.7-.6 0-1.1 2.1-1.6 10.3-2.7 4.5-.6 4.7-.5 4.7 1.9 0 1.8.6 2.5 2.3 2.8 1.3.2 2.8 1.6 3.8 3.5 1.7 3.5 2.9 3.4 2.9-.3 0-1.3.9-2.8 1.9-3.4 1.1-.5 2.3-2 2.6-3.2.4-1.3 1.9-3.9 3.4-5.8 2.3-3.1 2.6-4.4 2.5-10.7-.1-4-.6-7.9-1.1-8.5-.6-.7-1.6-3-2.3-5.1-.8-2.5-1.7-3.7-2.5-3.3-.8.3-1.5.1-1.7-.3-.4-1-12.7-7.1-14.3-7.1-.7 0-1.8-1.3-2.5-3-1-2.4-1-3.2.3-4.5.9-.8 1.9-2.5 2.3-3.8.4-1.2 1.2-2.5 1.8-2.9 1.8-1.3 10.4-.9 10.8.4.3.8 1.5.2 3.4-1.5 3-2.8 4.4-3.4 4.4-1.8 0 1.1 7.2 2.3 8 1.3.3-.4 1.5-1.2 2.6-1.9 1.7-.9 2.4-.8 3.8.5 1.5 1.5 1.7 1.4 3.6-.6 2-2.2 2.2-2.2 5.3-.6 1.8.9 3.9 2 4.7 2.4.8.4 1.6 2.1 1.8 3.7.3 2.5-.2 3.2-2.6 4.2-3 1.3-9.2 8.5-9.2 10.8 0 .7-.6 1.3-1.4 1.3-2.3 0-2.4 3-.3 8.9 1 3 1.6 6.6 1.4 8-.3 1.7.2 3.2 1.6 4.7 2 2.1 2.3 2.1 5 .7 1.6-.8 3.1-1.2 3.4-.9.3.3.7 3.3.7 6.6.2 5.8.1 6.1-1.9 5.6-3.4-.9-3.6.3-.7 4 2.4 3 3.1 3.3 6.7 2.9 2.2-.2 5.4-1.1 7-1.9 3.5-1.9 6.7-2 8.2-.5 1.4 1.4 3.3.3 3.3-1.7 0-.8-.4-1.3-.9-.9-.5.3-1.2.1-1.5-.3-.3-.5.6-1.4 1.9-2 3.7-1.7 3-4-1-3.2-.5.1-.5-.4.2-1.1.7-.7 4.6-1.1 11-1.1 5.4 0 10.3-.4 11.1-1 .6-.6 4-1 7.5-1 27.3.3 35.6.2 38.2-.7 2.6-.8 2.2-.9-3.5-1-5.9-.2-6.3-.3-4.6-1.6 2.7-2 1.7-2.5-2.6-1.6-2 .5-4.2.5-4.9 0-1-.6-1.1-.9-.1-.9.6 0 1.2-.5 1.2-1 0-.6-.6-1-1.4-1-.7 0-1.9-.7-2.6-1.4-.6-.8-2.8-2-4.8-2.7-3.7-1.2-7.3-3.9-5.3-3.9.6 0 1.1-.7 1.1-1.5 0-2.1 2.9-1.9 3.8.2.7 1.8 1.4 1.9 12.5 2.3 2 .1 3.5.5 3.2 1.1-.4.5 0 .9.8.9s1.7-.7 2.1-1.5c.3-.8.1-1.5-.5-1.5s-.7-.5-.4-1c.3-.6-.1-1.3-.9-1.6-.9-.3-1.6-1.2-1.6-2s-.5-1.4-1-1.4c-.6 0-2.1-.9-3.3-2l-2.1-2.1 2.7-2.3c2.8-2.4 5.4-2.4 11-.1 1.1.5 2.5.1 3.8-1.1 1.4-1.2 2.3-1.4 3-.7 1.3 1.3 7.4-1.9 9-4.8.5-1 2.3-2.6 3.9-3.4 2.6-1.4 3.4-1.4 6.5-.1 1.9.8 3.5 2 3.5 2.6 0 .6.9 2 1.9 3.1 1.9 2.1 3.4 12 3 19.4-.4 6.2 1 23.5 2.1 25.5.6 1.1 1 2.6.8 3.3-.1.6.2 2.3.6 3.6.5 1.3.4 2.7-.2 3.3-.6.6-.8 2.4-.5 3.9.3 1.6 0 6.5-.6 10.9-.7 4.5-1.3 9.9-1.3 12.1 0 2.5-.5 3.9-1.4 3.9-.7 0-1.6.5-2 1.2-.5.7-.1.9 1.2.6 1.5-.4 1.9 0 1.9 1.6 0 1.2.5 2.1 1 2.1.6 0 .9-.3.7-.8-.6-1.8 1-.5 1.7 1.5 1.1 3-1.2 10.3-3.2 10.2-1-.1-1.3.4-1 1.5 1 2.8 1.5 3.3 2.2 2.3.4-.6 1.4-.3 2.8.8 2 1.5 2.1 2.1 1 4.4-1.4 3.1-2.7 3.4-2.7.6 0-1.5-.7-2-2.8-2-1.5 0-3.3-.5-4-1.2-1.4-1.4-1.6.1-.6 5.2.5 2.4 1.1 3 2.5 2.7 1.4-.4 1.7.1 1.6 2.2-.2 2 .3 2.7 2 2.9 1.7.3 2.1 0 1.7-1.2-.4-1.1-.1-1.6 1-1.6 2 0 2 .1.1 3.6-.8 1.6-1.5 2.3-1.5 1.6 0-.6-.9-1.2-2-1.2-1.2 0-2.5-1-3.2-2.5-.6-1.4-1.8-2.5-2.5-2.5-1 0-1.2-.6-.8-2 1-3-.8-2.4-2.9 1l-1.7 3.1 3.1 1.1c2.4.8 3 1.5 2.7 3-.4 1.5-.1 1.8 1.4 1.3 2.5-.8 2.4.7-.1 3-1.6 1.4-1.7 2.1-.8 3.2.9 1.1.8 1.8-.5 3.1-1.6 1.5-1.7 1.5-1.7-.1 0-.9-.5-1.7-1-1.7-.6 0-.9 1.2-.8 2.7.2 1.9-.2 2.8-1.3 3.1-1.2.2-1.5-.3-1.2-2 .7-3.4-1.4-8-3.4-7.6-2.5.5-2.7 2.5-.4 3.3 2.2.7 3 2.7.9 2.3-.6-.2-1.8.9-2.5 2.4-1.4 2.8-5 4-4 1.4.9-2.3-1.5-7.6-3.5-7.6-2.1 0-2.7.9-3 4.9-.1 1.8-.8 3.7-1.5 4.3-.7.6-1.3 3.1-1.4 5.7 0 4-.2 4.3-1.1 2.4-.6-1.3-1.7-2.3-2.5-2.3-.7 0-1.6 0-2-.1-.4 0-.9.5-1.2 1.2-.2.7.2 1 1.2.6 1.1-.4 1.6.3 1.9 2.9.2 1.9 0 3.4-.5 3.4s-.6 1.3-.2 2.9c.6 2.7.3 3-2.9 4.2-2.8 1-3.8 2.1-4.6 4.9-1.7 6.1-.8 8 3 6 1.6-.9 2.2-.8 2.7.6.4 1 .2 1.9-.5 2.2-.7.2-1.2 1-1.2 1.8s-.6 1.4-1.4 1.4c-.7 0-1.6 1.3-1.9 2.9-.7 3.4-4.3 7.1-6.9 7.1-1 0-2.1.7-2.4 1.5-.8 2-3.1 1.9-4.3-.3-.8-1.4-1.2-1.5-2.2-.5-.7.7-2.2 1.3-3.4 1.3-1.2 0-2.6.5-3.2 1.1-.8.8-1.3.5-1.8-1-.3-1.2-1.3-2.1-2-2.1-.8 0-1.9-.9-2.5-1.9-.8-1.6-.6-2 .8-2.4 1.5-.3 1.5-.5-.3-1.1-1.1-.4-2.8-1.2-3.7-1.7-1-.5-2.5-.9-3.3-.9-1.4 0-1.4.4.2 3 .9 1.6 2.5 3 3.5 3 2.3 0 2.3 1.5-.1 3.9-1.2 1.2-1.5 2.3-1 3.4 1.1 1.9-2.6 3.1-5.2 1.7-1.2-.7-1.9-.5-2.3.6-.5 1.3-.9 1.4-2.2.4-1.8-1.6-.3-3 3.3-3 2 0 2.1-.3 1.3-2.4-.5-1.3-.6-2.7-.3-3 .4-.3-.6-.6-2.1-.6-2.8 0-2.8 0-1.2 2.5.9 1.4 1.2 2.5.7 2.5s-1.1-.6-1.4-1.3c-.3-.8-1.9-1.4-3.7-1.5-2.4-.1-3 .3-2.8 1.7.2 1-.3 2.6-1.1 3.5-1.2 1.4-1.1 1.8.5 3 1 .8 1.6 1.8 1.1 2.2-.4.4-1.8-.3-3.2-1.6-2.6-2.4-3.3-5.4-1.5-6.5.6-.3 1-1.2 1-1.8-.1-1.9-4 3.6-4 5.6 0 1.3-.5 1.6-2.4 1.1-1.7-.4-3.1.1-4.5 1.5-1.2 1.2-2.6 2.1-3.2 2.1-1.5 0-3.6-2.3-4.2-4.6-.4-1.6-.5-1.5-.6.5-.1 1.7-.5 2.2-1.7 1.7-1.2-.5-1.5-.2-1 1 .3.8.6 1.7.6 2 0 .2.7.1 1.6-.3 1.3-.5 1.5-.2.9 1.8-.4 1.3-1.3 2.7-1.9 3.1-1.2.8-3.8-1-3.1-2.2.2-.4-.8-1.3-2.3-2.1-1.5-.7-2.9-1.5-3.1-1.6-.2-.2.6-1.2 2-2.3 1.9-1.8 2.1-2.3.9-3-2.7-1.7-6-1.2-6 1 0 1.4-.9 2.1-3.5 2.6-1.9.3-3.8 1-4.1 1.5-.9 1.5-3.4 1-3.4-.6 0-.8-.7-1.5-1.6-1.5-.9 0-1.8-.9-2.1-2-.7-2.5-1.2-2.5-2.9-.3-1.1 1.6-1.6 1.6-3.5.4-1.7-1-2.4-1-2.7-.2-.2.6-.8.9-1.2.6-1.2-.7-3.3 3.2-2.5 4.5.3.6.1 1-.4 1-.6 0-1.1-1.3-1.1-2.9 0-1.7-.4-3.3-1-3.6-.5-.3-1 .1-1 .9 0 .9-.6 1.7-1.2 1.7-2.2.2-3.2.5-5.1 1.3-2.9 1.3-4.6-1-2.1-2.9 1-.8 1.3-1.5.7-1.5-1.7 0-6.4-4.1-5.8-5 .3-.4-.6-2.8-1.9-5.3-1.4-2.5-2.2-4.7-2-5 .6-.6-2.7-4.7-3.8-4.7-.5 0-.8.7-.8 1.5s-.8 1.5-1.7 1.5c-1.4 0-1.5.2-.5.9.8.4 1.6 2.7 1.9 5 .4 2.5 1.4 4.8 2.7 5.9 1.5 1.2 2.1 2.8 2 5.2 0 1.9.6 4.3 1.4 5.2.8.9 1.1 2.1.8 2.7-.3.5 0 1.1.6 1.4 1 .3 1.2 4.4 1 17.3-.3 16 .4 22.9 3.4 33.2.5 1.9.3 2.2-1.9 2.2-1.4 0-2.9.5-3.2 1-.4.7 41.3 1 130 1 82.4-.1 130.3-.4 130-1-.4-.6-.1-1 .4-1 .6 0 1.1-.7 1.1-1.5s-.6-1.4-1.2-1.2c-.7.1-1.3-.5-1.3-1.3 0-2.9-4.5-4.3-9.3-2.9-3.8 1.1-4.6 1-7-.8-1.5-1.1-3.6-2.3-4.6-2.7-1.1-.4-5.2-3-9.2-5.9-6.9-4.9-7.3-5.4-9.8-12.7-1.6-4.4-4.2-9.3-6.5-12-3-3.6-3.9-5.5-4.3-9.6-.5-5.4-3.5-12.3-6.9-16-2.7-2.9-4-17.1-2.2-24.6 1.4-6.2 1.6-11.8.4-13.6-1.1-1.8-5.9-4.2-8.2-4.2-2.3 0-2.4-.9-.3-3.8 1-1.5 1.1-2.2.3-2.2s-.8-.4.1-1.5c1-1.2.9-1.5-.4-1.5-1.4 0-1.5-.4-.6-2 .6-1.1 1.5-1.8 2.1-1.5.5.4.9.2.9-.4 0-.6-1.1-1.3-2.5-1.7-1.4-.3-2.2-1-1.9-1.5.3-.5 1-.7 1.5-.4.5.4 1.2-.1 1.5-.9.3-.9 1.1-1.6 1.6-1.6.6 0 .8.7.4 1.5-.3.8-.1 1.5.4 1.5.6 0 1-.6 1-1.3 0-.7.8-2.2 1.9-3.3 1-1.1 2.5-3.8 3.2-6 .8-2.1 3.5-6.1 6.1-8.7 4.3-4.4 5.8-6.7 4.3-6.7-.3 0-2.9 1.2-5.8 2.7-8.5 4.5-8.5 4.5-10.9 1.8-1.2-1.4-2.7-2.5-3.4-2.5-1.5 0-2.4-3.1-3-10.5-.3-3.3-.8-8.4-1.3-11.3-.4-2.9-.4-7.2 0-9.5s.8-6.6.9-9.5c0-2.9.4-5.1.9-4.8.5.4.7-.3.4-1.4-.8-3 1.6-2.4 2.8.7 2.5 6.5 6.2 13.2 7.5 13.7.8.3 1.2.2.9-.3-.3-.5-.1-1.3.5-1.6.6-.4 3.1 1.4 5.6 3.9 2.5 2.5 5 4.6 5.5 4.6 1.2 0 1-16.6-.2-19.1-.4-.8-3.3-2.8-6.5-4.3-4.5-2.2-5.8-2.5-6.5-1.4-.6.9-.9.5-.9-1.3 0-1.5.9-3.7 2.1-5l2-2.4-.4 2.7c-.4 2.4-.1 2.8 2 2.8 2 0 2.3-.4 1.8-2-.5-1.5 0-2.2 1.8-2.9 1.3-.5 2.7-1.9 3-3 .8-3.3 3.5-1.5 4.8 3.3.6 2.2 2 6.8 3 10 1.1 3.3 2 8.3 2 11 .2 5 .2 5 1.1-1.9 1.6-11.4 1.5-31.9-.1-33.8-2.2-2.7-4.8-2-8.7 2.3-2 2.2-4 4-4.5 4s-.9-1.5-.9-3.3c0-2.5.9-4.3 3.6-7.1 3.2-3.3 3.5-4.1 2.9-7.4-.3-2-.8-5.5-1-7.7-.9-10.9-3.3-20.7-4.8-19.8-.5.3-.7.1-.3-.5 1-1.7-2.7-15.3-4.1-14.7-.7.2-1.3 0-1.3-.4 0-.5.4-1.1 1-1.3.5-.2-.1-2.3-1.5-4.8-1.3-2.5-3.2-6-4.1-7.8-1.3-2.3-2-2.9-2.7-2-.5.8-.6.3-.3-1.5.6-2.6-.3-3.3-3.6-2.8-.4 0-1.2-.8-1.8-2-.9-1.5-.8-2.4.1-3.5.8-1 .8-1.4 0-1.4-.6 0-1.1-.7-1.1-1.5s-.4-1.5-1-1.5c-1.3 0-1.3 1.3 0 2.6.5.5.6 1.5.1 2.2-.6.9-1.8 0-4.4-3.2-2.1-2.4-3.7-4.9-3.7-5.5 0-.6-.4-1.1-.9-1.1s-1.8-2-3-4.5c-1.2-2.6-3.2-5.1-4.6-5.7-1.4-.6-2.5-1.5-2.5-2.1 0-.5-.6-2.3-1.4-4-.7-1.8-1.7-5-2.2-7.2-.8-3.2-1.3-3.9-2.9-3.7-1.1.2-2.1.8-2.3 1.3-.2.5-.8.9-1.3.9-.6 0-.7-1.5-.3-3.5.5-2.9.3-3.6-1.2-4.1-1.1-.3-4.4-1.6-7.4-2.9-6.6-2.8-14.4-3.9-18.5-2.7-1.8.5-6.5.5-11.4-.1-6.4-.8-8.6-.7-8.9.1-.2.7-1.1 1.2-2 1.3-1.4 0-1.3.2.3.9l2 .9-2 .1c-2 .1-2 .1-.1 1.5 1.1.8 2.8 1.5 3.9 1.5 1 0 2.5.6 3.3 1.4.9 1 3.1 1.4 6.3 1.2 3.4-.1 4.7.2 4.4 1-.5 1.2 2.7 2.4 6.8 2.4 1.4 0 3.3.8 4.2 1.8 1 1 4.7 3.4 8.5 5.2 3.7 1.8 7.2 3.7 7.8 4.2 1.5 1.1.7 4.5-1.3 5.2-1.3.6-17.2-6.7-18.3-8.3-1.3-2-16.7-7.5-28-10-3-.7-6.3-1.5-7.2-1.8-1-.2-1.8 0-1.8.6s1.2 1.4 2.7 1.7c3.1.8 9.5 4.3 10.5 5.8 1.2 1.8-.1 1.9-2.8.2-1.4-1-2.8-1.5-3-1.3-.3.3 1.5 1.8 4.1 3.3 4.1 2.6 23.7 16 29.4 20.1l2.4 1.8-2.4.6c-2.1.5-1.9.6 1.4 1.3 2 .4 3.7 1.1 3.7 1.6 0 1.4-1.4 1.2-2.8-.2-.9-.9-1.5-.9-2.4 0-.9.9-.9 1.2.3 1.2.8 0 2.4.7 3.5 1.5 1.7 1.4 1.7 1.4-1.1.3-1.6-.6-3.4-1.5-3.9-2-.6-.4-1.8-.8-2.8-.8-2.2 0-2.3-.8-.2-3.1 1.5-1.6 1.4-1.7-.7-1.2-1.5.4-2 .3-1.5-.6.5-.7-.4-1.3-2.4-1.7-1.8-.4-2.9-1.2-2.6-1.9.3-.8-.4-1-1.8-.8-1.4.3-3-.3-4.1-1.3-1-1-2.3-1.9-2.9-2-.6 0-1.7-.2-2.3-.2-.7-.1-1.3-.7-1.3-1.3 0-.7 1.1-.9 2.7-.6 2.6.5 2.6.4.8-.9-2.3-1.7-5.2-1.8-5.8-.2-.4 1-.8.9-1.6-.2-.5-.8-1.4-1.1-1.8-.6-.4.5-.2 1.1.5 1.3.6.3 1.2 1.1 1.2 1.9 0 .8.6 1.4 1.3 1.4.8 0 .8.3-.2.9-1 .6-2.6.2-5-1.3-2-1.3-4.2-2.1-4.9-1.9-.6.3-1.2-.2-1.2-1 0-1.1-1-1.5-3.4-1.4-3.2.2-4.1 1.7-1 1.7 2.5 0 1.5 1.5-1.8 2.8-2.9 1-3.1 1-1.4-.3 1.8-1.4 1.8-1.5-.8-2.5-3.6-1.3-5.3-1.3-5.9.2-.2.8-8.9-7.2-19.8-18.1-35.7-35.8-44.9-42.9-61.3-47.6-6.2-1.8-25.1-2.7-28.5-1.4zM254.4 68c.6 0 2.7 1.1 4.6 2.5 1.8 1.3 3.7 2.2 4.1 1.9.5-.3.9-.1.9.5s1.4 1.8 3.1 2.6c1.7.9 2.9 1.9 2.6 2.2-.5.5-4.1-1.2-6.1-2.8-2.9-2.4-8.8-5.9-10-5.9-1.7 0-3.8-2.5-2.9-3.4.4-.3 1.1 0 1.5.9.5.8 1.5 1.5 2.2 1.5zm42.2 2.5c.6 1.5 2.9 1.6 5 .2 1.6-.9 2.4 1.5 2.4 7.4 0 4.7-.1 4.8-2.4 3.9-2.5-.9-4.6.3-4.6 2.6 0 2.1-2 6.7-2.6 6.1-.3-.3-.1-2.2.6-4.1 1.1-3.5.7-7.1-1.6-15.4-.5-1.6-.2-2.2 1-2.2.9 0 1.9.7 2.2 1.5zm-23.1 10.3c-.3.3-1.1 0-1.8-.7-.9-1-.8-1.1.6-.5 1 .3 1.5.9 1.2 1.2zm41 10.2c2.3 1.3 4 3.8 3.1 4.7-.8.8-5.3-3-7-5.8-.8-1.4-1.2-2.9-.8-3.3.3-.4 1.1.1 1.5 1.2.5 1.1 2 2.5 3.2 3.2zM295 93c0 .5-.4 1-1 1-.5 0-1-.5-1-1 0-.6.5-1 1-1 .6 0 1 .4 1 1zm-9.5 1c.3.5.1 1-.4 1-.6 0-1.1-.5-1.1-1 0-.6.2-1 .4-1 .3 0 .8.4 1.1 1zm35.5 5.8c0 1.5-.2 1.5-1 .2-1.3-2-1.3-3.3 0-2.5.6.3 1 1.4 1 2.3zM163 127c0 .5-.7 1-1.6 1-.8 0-1.2-.5-.9-1 .3-.6 1-1 1.6-1 .5 0 .9.4.9 1zm29 5c0 .5-.4 1-.9 1-.6 0-1.3-.5-1.6-1-.3-.6.1-1 .9-1 .9 0 1.6.4 1.6 1zm48 25c0 .5-.9 1-2 1s-2-.5-2-1c0-.6.9-1 2-1s2 .4 2 1zm4.5 2c.3.5-.1 1-.9 1-.9 0-1.6-.5-1.6-1 0-.6.4-1 .9-1 .6 0 1.3.4 1.6 1zm-41.6 16.9c1.2.8.9 1.1-1.2 1.6-3.4.9-10-.3-9.2-1.6.8-1.2 8.5-1.2 10.4 0zm110.6 49.9c-.3.3-1.1 0-1.8-.7-.9-1-.8-1.1.6-.5 1 .3 1.5.9 1.2 1.2zm11.5 9c0 2.6-2.5.5-2.8-2.4-.2-2.8-.2-2.8 1.3-1 .8 1.1 1.5 2.6 1.5 3.4zm-6.4-1.4c1.5 1.6 1.9 3.6.6 3.6-1.2 0-3.2-2.3-3.2-3.7 0-1.7.8-1.6 2.6.1zm-.8 10.5c-1.3 4.2-2.4 4.7-4.1 1.9-.7-1.1-.3-2.4 1.3-4.6 3.1-4.1 4.5-2.7 2.8 2.7zm-7.8 11.2c0 .5-.7.9-1.5.9-1.5 0-2-1.2-.9-2.3.8-.8 2.4.1 2.4 1.4zm-22 23.5c0 .8-.5 1.2-1 .9-.6-.4-.8-1.1-.5-1.6.9-1.4 1.5-1.1 1.5.7zm21 5.3c0 .6-.5 1.3-1.1 1.6-.6.4-.8 1.3-.5 2.1.6 1.6-.3 1.8-2.2.5-1.2-.7-1.2-1.2-.1-3 1.4-2.1 3.9-2.9 3.9-1.2zm-4.5 10c.1 2.6-.1 2.8-1.7 1.8-2.1-1.4-2.3-2.8-.6-4.5 1.5-1.5 2.1-.8 2.3 2.7zm27.5-1.4c0 .9-.9 1.5-2.2 1.4-2-.1-2-.2-.4-.6 1.5-.4 1.6-.7.5-1.4s-1.1-.9.4-.9c.9 0 1.7.7 1.7 1.5zm-4.4 6.2c-1.1 1.1-1.7-.4-.9-2.3.7-1.8.8-1.8 1.1-.1.2 1 .1 2.1-.2 2.4zm-26.6-.9c0 1-4.1 3.5-4.7 2.8-.7-.7 2-3.5 3.5-3.6.6 0 1.2.3 1.2.8zm-9.5 1.1c.3.5.1 1.2-.5 1.6-1.4.9-1.2 3.5.3 3.5.7 0 1.8-.5 2.5-1.2.6-.6 2.6-1.2 4.4-1.4 1.8-.1 2.7 0 1.9.3-.8.3-2.7 1.9-4.2 3.4-1.7 1.8-3.4 2.6-4.4 2.3-.8-.3-1.5-.1-1.5.5s.5 1.1 1 1.1c1.5 0 1.2 2.6-.4 3.9-.7.6-2.1.8-3.1.5-1.2-.5-1.3-.9-.5-1.4.7-.4 1-1.6.8-2.6-.3-1.8-.5-1.7-2.6.4-2.3 2.3-4.2 2.9-4.2 1.3 0-.5-.9-.7-2-.4-2.4.6-2.8-1.8-.5-3.7.8-.7 1.3-1.6 1-2-.3-.5 1.1-.3 3 .3 3.7 1.1 5.9.2 3.5-1.4-1.3-.8-1.3-1.1.3-2.3.9-.7 1.7-1.8 1.7-2.5 0-1.3 2.6-1.5 3.5-.2zm-9.5 2.5c0 .3-.4.8-1 1.1-.5.3-1 .1-1-.4 0-.6.5-1.1 1-1.1.6 0 1 .2 1 .4zm-2.1 15.7c-2.6 2.3-3.9 2.4-3.9.5 0-1.5 1.1-2.1 4.2-2.3 1.8-.2 1.8-.1-.3 1.8z"/><path d="M298.6 78.4c.7 1.9 3.8 2.2 3.2.3-.3-.6-1.2-1.3-2.1-1.5-1.2-.2-1.5.1-1.1 1.2zM238.8 52.7c.7.3 1.6.2 1.9-.1.4-.3-.2-.6-1.3-.5-1.1 0-1.4.3-.6.6zM220.5 65c.3.5 1.3 1 2.1 1s1.4-.5 1.4-1c0-.6-.9-1-2.1-1-1.1 0-1.7.4-1.4 1zM226.3 70c.4 1.7 0 2-2.9 2-1.9 0-3.4-.5-3.4-1.1 0-.5-.5-.7-1-.4-1.7 1.1-.2 2.2 3.7 2.8 2.4.4 4 .2 4.5-.6 1.1-1.8 1-4.7-.3-4.7-.6 0-.9.9-.6 2zM231.3 70.9c-1 1.5-.9 2 .1 2.4.9.4 1.4-.3 1.4-1.9 0-2.9 0-2.9-1.5-.5zM284 71c.8.5 2.2.9 3 .9 1 0 .8-.3-.5-.9-2.7-1.2-4.3-1.2-2.5 0zM289.5 73c.3.5.8 1 1.1 1 .2 0 .4-.5.4-1 0-.6-.5-1-1.1-1-.5 0-.7.4-.4 1zM166 139.2c1.1 1.8 2 4.3 2 5.5 0 1.3.5 2.3 1 2.3.6 0 1-.7 1-1.7 0-2.7-3.3-9.3-4.7-9.3-.9 0-.7.9.7 3.2zM282.5 149c.3.5.8 1 1.1 1 .2 0 .4-.5.4-1 0-.6-.5-1-1.1-1-.5 0-.7.4-.4 1zM186 192.4c0 1.9 3 2.9 4.6 1.5 2.2-1.8 1.6-2.9-1.6-2.9-1.9 0-3 .5-3 1.4zM353.1 230.5c-1.8 2-2.6 3.5-1.8 3.5 1.3 0 4.6-3.1 6.1-5.8 1.4-2.5-1.2-1.1-4.3 2.3zM46.3 230.5c0 .8.4 1.5.8 1.5s.9-.7 1.3-1.5c.3-.9 0-1.5-.8-1.5-.7 0-1.3.7-1.3 1.5zM40.7 231.7c-1.3 1.2-.7 4.3.6 3.7.7-.2 1.3-1.3 1.3-2.4 0-2-.7-2.5-1.9-1.3zM50.8 231.7c.6.2 1.8.2 2.5 0 .6-.3.1-.5-1.3-.5-1.4 0-1.9.2-1.2.5zM303.7 232.1c.7.7 1.5 1 1.8.7.3-.3-.2-.9-1.2-1.2-1.4-.6-1.5-.5-.6.5zM291.6 234.7c-1.2 1.2-.6 3.3.9 3.3.8 0 1.5-.6 1.5-1.4 0-1.7-1.4-2.8-2.4-1.9zM164.1 236.6c-1.4.6-4.4 2.8-6.5 4.8-3.9 3.6-6.9 4.4-14.3 3.7-3-.2-2.9 1.3.3 5.4 2.4 3.2 2.5 3.6 1 5.1-.9.9-1.5 2.1-1.3 2.7.3 1-6 7.7-7.4 7.7-.4 0-1.1-.5-1.4-1-.3-.6-1.1-1-1.6-1-.6 0-.8.4-.4.9.3.5-.4 1.2-1.5 1.6-1.1.3-2.3 1.7-2.6 3.1-.3 1.3-1 2.4-1.5 2.4-1.4 0-1 2.6.6 4 .8.7 1.5 2 1.5 2.9 0 1 .9 3.5 2 5.8 1.8 3.9 2 4 6.7 3.8 3.8-.1 5.2.3 6.9 2.2 2.1 2.3 2.2 2.3 22 1.7 10.9-.3 23.1-.5 26.9-.4 5.7.1 8.9-.6 17-3.4 5.5-2 11-3.6 12.2-3.6 1.2 0 3.8-1.1 5.8-2.4 2-1.4 4.3-2.2 5.2-1.9 1.1.5 1.4.1.9-1.3-.7-2.3.2-3.8 2.7-4.7 2.1-.8 1.9-2.7-.4-3.7-.8-.4-2.9-1.5-4.6-2.4-1.8-.9-4.1-1.6-5-1.4-1.1.2-2.2-.6-2.8-2-1.1-2.5-1.4-2.6-3.5-1.2-1.2.8-1.2 1.1.3 2.8.9 1 1.7 2.3 1.7 2.9 0 .6.7 1.4 1.6 1.7 2.6 1 1.1 1.6-5.1 2.1-4.6.3-5.6.1-5.1-1 .3-.8-.1-1.8-.9-2.2-.7-.5-1.5-2.3-1.7-4.2-.2-2.1-1.1-3.9-2.6-4.9-2.1-1.4-2.2-1.3-2 .9.2 1.3-.2 2.4-.9 2.4-.6 0-1.4.3-1.8.7-.4.4-1.4.4-2.2.1-1.2-.5-1.3.2-.9 3.3.6 3.4.5 3.6-.5 1.6-.7-1.2-1.5-2.2-1.8-2.2-.9 0-.6 4 .4 6.3s.9 2.4-4.7 3.2c-4 .6-4.8.4-5.7-1.3-1-1.9-.9-2 2.4-1.5l3.5.6v-4.2c0-3.8-.3-4.3-3-5.2-1.6-.6-3-1.8-3-2.6 0-.9-.6-1.2-1.9-.8-3.1.9-4.4-1.8-2.8-5.7 1.8-4.4 4.3-6.8 6.9-6.8 1.2 0 3.6-1.1 5.5-2.6 3.6-2.7 4.2-5.7 1.9-9-1.4-1.8-1.5-1.8-2.1-.1-.5 1.1-1.2 1.4-1.9.9-3.7-2.9-25.5-4.7-30.5-2.6zm17.3 19.9c-.4.8-1 1.2-1.5.9-1.4-.8-1-2.4.6-2.4.9 0 1.2.6.9 1.5zM228 270c0 .5-.4 1-1 1-.5 0-1-.5-1-1 0-.6.5-1 1-1 .6 0 1 .4 1 1zm-18.6 3.5c.3.8.1 1.5-.4 1.5-.6 0-1-.7-1-1.5s.2-1.5.4-1.5.6.7 1 1.5zm-30.6 3.3c.5 1.7-2.5 1.5-3.1-.2-.4-.9 0-1.3 1.1-1.2.9.2 1.8.8 2 1.4zm-36.8.2c0 .5-.4 1-1 1-.5 0-1-.5-1-1 0-.6.5-1 1-1 .6 0 1 .4 1 1zM293.2 240.6c-1.7 1.1-2.2 1.2-2.2.2 0-.7-.7 0-1.5 1.6-2 3.7-1.9 3.9 1 3.2 1.8-.5 2.5-.2 2.5.9 0 .8.7 1.5 1.5 1.5.9 0 1.5-.9 1.5-2.5 0-1.4.5-2.5 1-2.5.6 0 1-.5 1-1.1 0-.6-.7-.8-1.6-.5-1.2.4-1.5.2-1-.9.7-1.9.6-1.9-2.2.1zM274.7 241.5c-.4.9-.1 1.8.9 2.2 2.2.8 3-.5 1.2-2.3-1.4-1.4-1.6-1.4-2.1.1zM257.6 248c-1.1 1.1-2.5 2-3.2 2-2.1 0-2.4 2.9-.5 3.9 1 .6 2.1.8 2.4.5 1.1-1.2 4.4 2 3.9 3.8-.3 1.3.1 1.8 1.8 1.8 1.3 0 2.4.8 2.7 2 .4 1.3 1.4 2 3 2 1.4 0 2.1-.4 1.8-1-.8-1.3.4-5 1.6-5 .5 0 .9.7.9 1.6 0 .9.8 2.3 1.8 3 1.6 1.3 1.6 1.3-.1 1.4-1 0-1.5.4-1.2 1 .4.6 1.3.5 2.5-.2 1.6-1.1 2.2-.9 3.4.7 1.5 2 1.5 2 1.6-.2 0-1.6.7-2.2 2.8-2.5 1.9-.2 2.8-.9 3-2.6.2-1.2.7-2.2 1.1-2.2.4 0 .8-1.4.9-3 .1-3-2.1-4.3-3.1-1.8-.4.9-.6.7-.6-.3-.2-4.3-8.1-9.6-8.1-5.4 0 .8-.9 1.9-2 2.5-1.6.9-2 .8-2.1-.7 0-1.6-.1-1.6-.8.1-.5 1.4-1 1.6-1.5.8-.4-.7-.4-1.7-.1-2.2.3-.6-.1-1-1-1-.8 0-1.8.6-2.1 1.4-.3.8-1.2 1.7-2 2-1.1.4-1.4 0-1.2-1.7.4-2.9-3-3.3-5.6-.7zm6.9 7.9c-.3 1.2-1.1 1.9-1.6 1.6-.5-.4-.5-1.4.2-2.6 1.3-2.6 2.3-1.8 1.4 1zm19.5 2.5c0 .3-.4.8-1 1.1-.5.3-1 .1-1-.4 0-.6.5-1.1 1-1.1.6 0 1 .2 1 .4z"/><path d="M284 249.5c0 .8.2 1.5.4 1.5s.6-.7 1-1.5c.3-.8.1-1.5-.4-1.5-.6 0-1 .7-1 1.5zM109.8 254.7c-1.5.4-1.5.8-.2 5.2 1.7 5.8 5.3 14.1 6.1 14.1.5 0-.1-3-1.3-7.3-.4-1.1 0-1.7 1-1.7s1.3-.6 1-1.5c-.4-.9-.1-1.5.7-1.5.8 0 2.5-.3 3.8-.7 1.8-.4 2.2-.2 1.9.8-.3.8-1 1.5-1.6 1.5-2.4.3-2.7.4-1.7 1.2.6.4 1.5 1.8 2.1 3.2 1.1 2.4 1.1 2.4 2.4-1.5.7-2.2 1.6-4.4 2.1-5 1.2-1.3 1.1-6.2-.2-7-1.9-1.3-5.9.4-5.9 2.5 0 2.4-2.2 2.6-4.1.4-.7-.8-2.1-1.3-3.2-1-1.3.3-1.7 0-1.3-1 .3-.8.4-1.3.3-1.3-.1.1-1 .3-1.9.6zM185 258.2c0 .4.9 1.2 2 1.8 1.7.9 2 .8 2-.9 0-1.4-.6-1.9-2-1.8-1.1.1-2 .5-2 .9zM214.7 262.7c-.4.3-.2 1.2.3 1.9.6.6 1 1.6.9 2-.4 2.6.3 3.6 1.2 1.6.9-2.4-1-6.9-2.4-5.5zM266.5 266.1c-1 1.5.3 2.5 1.6 1.2.7-.7.7-1.3.1-1.7-.6-.3-1.4-.1-1.7.5zM281.6 268.9c-.3.5 0 1.1.8 1.4 1.5.6 2.6-.1 2.6-1.5 0-1.1-2.7-1-3.4.1zM273 293.9c0 1.2.5 2.1 1 2.1.6 0 1-.6 1-1.4 0-.8-.4-1.8-1-2.1-.5-.3-1 .3-1 1.4zM159.7 303.1c.4 1.6.8 1.7 1.4.7 1.3-1.9 1.1-2.8-.5-2.8-.9 0-1.2.7-.9 2.1zM165 306.7c0 1.2-.4 3.3-1 4.7-.8 2.1-.6 2.7.9 3.5 1 .6 2.6.8 3.7.6 1-.2 3.6-.7 5.7-1 2.8-.4 3.7-1.1 3.7-2.5 0-1.2-.9-2.2-2.4-2.6-1.4-.3-2.7-1.2-3-2-.3-.8-1.6-1.4-2.8-1.4-1.7 0-2-.2-.9-.9 1-.7.7-.9-1.2-.8-2.1.2-2.7.7-2.7 2.4zm6.3 5c-.7.2-1.9.2-2.5 0-.7-.3-.2-.5 1.2-.5s1.9.2 1.3.5zM128 311c0 .5.5 1 1 1 .6 0 1-.5 1-1 0-.6-.4-1-1-1-.5 0-1 .4-1 1zM33.5 318.1c-5.7 1.3-6.7 1.8-6.1 2.8.4.5 2.6.3 5.3-.5 2.5-.8 6.3-1.4 8.5-1.4 2.1 0 3.8-.5 3.8-1 0-1.2-6-1.1-11.5.1zM228 324.9c0 .6.5 1.3 1 1.6.6.3 1-.1 1-.9 0-.9-.4-1.6-1-1.6-.5 0-1 .4-1 .9zM257 325.4c0 .9.7 1.6 1.6 1.6 1.7 0 1.4-2.2-.4-2.8-.7-.2-1.2.3-1.2 1.2zM254.6 327.9c-.3.5.1 1.1.9 1.4.9.4 1.2.1.8-.9-.6-1.6-1-1.7-1.7-.5zM216.5 335c-.3.5.1 1 .9 1 .9 0 1.6-.5 1.6-1 0-.6-.4-1-.9-1-.6 0-1.3.4-1.6 1zM44 359.1c0 .5.5.7 1 .4.6-.3 1-.8 1-1.1 0-.2-.4-.4-1-.4-.5 0-1 .5-1 1.1zM107.5 397.1c-.4.6-.5 1.2-.2 1.5.7.7 3.7-.7 3.7-1.7 0-1.3-2.7-1.1-3.5.2z"/></svg>