<svg viewBox="0 0 88 31" xmlns="http://www.w3.org/2000/svg" xmlns:xlink="http://www.w3.org/1999/xlink"><mask id="a" fill="#fff"><path d="m0 0h83v1h-83z" fill="#fff" fill-rule="evenodd"/></mask><mask id="b" fill="#fff"><path d="m0 0h1v31h-1z" fill="#fff" fill-rule="evenodd"/></mask><mask id="c" fill="#fff"><path d="m0 0h83v1h-83z" fill="#fff" fill-rule="evenodd"/></mask><mask id="d" fill="#fff"><path d="m.16.01h80v1h-80z" fill="#fff" fill-rule="evenodd"/></mask><mask id="e" fill="#fff"><path d="m0 0h83v1h-83z" fill="#fff" fill-rule="evenodd"/></mask><mask id="f" fill="#fff"><path d="m0 0h1v31h-1z" fill="#fff" fill-rule="evenodd"/></mask><mask id="g" fill="#fff"><path d="m0 0h83v1h-83z" fill="#fff" fill-rule="evenodd"/></mask><mask id="h" fill="#fff"><path d="m.81 0h1v30h-1z" fill="#fff" fill-rule="evenodd"/></mask><mask id="i" fill="#fff"><path d="m0 0h83v1h-83z" fill="#fff" fill-rule="evenodd"/></mask><mask id="j" fill="#fff"><path d="m.16.01h80v1h-80z" fill="#fff" fill-rule="evenodd"/></mask><mask id="k" fill="#fff"><path d="m0 0h83v1h-83z" fill="#fff" fill-rule="evenodd"/></mask><mask id="l" fill="#fff"><path d="m0 0h1v31h-1z" fill="#fff" fill-rule="evenodd"/></mask><mask id="m" fill="#fff"><path d="m0 0h83v1h-83z" fill="#fff" fill-rule="evenodd"/></mask><g fill="none" fill-rule="evenodd"><path d="m0 0h88v31h-88z"/><path d="m0 0h83v31h-83z" fill="#fc6"/><path d="m.36 0h36.44v31h-36.44z" fill="#fff"/><path d="m4.69 2.29h40v24.61h-40z"/><path d="m0 30h83v1h-83z" fill="#504d4c"/><g mask="url(#a)" transform="translate(0 30)"><path d="m0-30h88v31h-88z"/><path d="m0-30h83v31h-83z" fill="#4e4b3f"/><path d="m.36-30h36.44v31h-36.44z" fill="#4f4f4f"/></g><path d="m82 0h1v31h-1z" fill="#504d4c"/><g mask="url(#b)" transform="translate(82)"><path d="m-82 0h88v31h-88z"/><path d="m-82 0h83v31h-83z" fill="#4e4b3f"/><path d="m-82 30h83v1h-83z" fill="#191919"/><g mask="url(#c)" transform="translate(-82 30)"><path d="m0-30h88v31h-88z"/><path d="m0-30h83v31h-83z" fill="#191917"/><path d="m.37-30h36.44v31h-36.44z" fill="#191919"/></g></g><path d="m0 0h1v31h-1z" fill="#ccc"/><path d="m2.16 29.01h80v1h-80z" fill="#9e9c9c"/><g mask="url(#d)" transform="translate(2 29)"><path d="m-2-29h88v31h-88z"/><path d="m-2-29h83v31h-83z" fill="#b39f67"/><path d="m-1.64-29h36.44v31h-36.44z" fill="#b5b5b5"/><path d="m-2 1h83v1h-83z" fill="#383838"/><g mask="url(#e)" transform="translate(-2 1)"><path d="m0-30h88v31h-88z"/><path d="m0-30h83v31h-83z" fill="#383530"/><path d="m.37-30h36.44v31h-36.44z" fill="#383838"/></g><path d="m80-29h1v31h-1z" fill="#383838"/><g mask="url(#f)" transform="translate(80 -29)"><path d="m-82 0h88v31h-88z"/><path d="m-82 0h83v31h-83z" fill="#383530"/><path d="m-82 30h83v1h-83z" fill="#131313"/><g mask="url(#g)" transform="translate(-82 30)"><path d="m0-30h88v31h-88z"/><g fill="#131313"><path d="m0-30h83v31h-83z"/><path d="m.37-30h36.44v31h-36.44z"/></g></g></g></g><path d="m80.81 1h1v30h-1z" fill="#9e9c9c"/><g mask="url(#h)" transform="translate(80 1)"><path d="m-80-1h88v31h-88z"/><path d="m-80-1h83v31h-83z" fill="#b39f67"/><path d="m-80 29h83v1h-83z" fill="#383838"/><g mask="url(#i)" transform="translate(-80 29)"><path d="m0-30h88v31h-88z"/><path d="m0-30h83v31h-83z" fill="#383530"/><path d="m.37-30h36.44v31h-36.44z" fill="#383838"/></g><path d="m-77.84 28.01h80v1h-80z" fill="#818181"/><g mask="url(#j)" transform="translate(-78 28)"><path d="m-2-29h88v31h-88z"/><path d="m-2-29h83v31h-83z" fill="#807659"/><path d="m-1.64-29h36.44v31h-36.44z" fill="#818181"/><path d="m-2 1h83v1h-83z" fill="#272727"/><g mask="url(#k)" transform="translate(-2 1)"><path d="m0-30h88v31h-88z"/><path d="m0-30h83v31h-83z" fill="#272623"/><path d="m.37-30h36.44v31h-36.44z" fill="#272727"/></g><path d="m80-29h1v31h-1z" fill="#272727"/><g mask="url(#l)" transform="translate(80 -29)"><path d="m-82 0h88v31h-88z"/><path d="m-82 0h83v31h-83z" fill="#272623"/><path d="m-82 30h83v1h-83z" fill="#101010"/><g mask="url(#m)" transform="translate(-82 30)"><path d="m0-30h88v31h-88z"/><g fill="#101010"><path d="m0-30h83v31h-83z"/><path d="m.37-30h36.44v31h-36.44z"/></g></g></g></g></g><path d="m0 0h83v1h-83z" fill="#ccc"/><path d="m68.27 18.84 6.02 5.5 11.71-11.69" stroke="#900" stroke-width="4.81"/><g fill-rule="nonzero"><path d="m40 5.82h1.87v2.78h2.77v-2.78h1.88v7.3h-1.88v-3.1h-2.77v3.1h-1.87zm7.09 0h6.72v1.42h-2.42v5.87h-1.88v-5.87h-2.41zm7.29 0h2.4l1.65 3.9 1.67-3.9h2.4v7.3h-1.8v-5.35l-1.68 3.93h-1.19l-1.68-3.93v5.33h-1.78zm9.55 0h1.88v5.87h3.3v1.42h-5.18zm11.62 4.9c0 .38-.07.72-.2 1.04-.14.32-.35.59-.61.82-.3.24-.63.42-1.02.53-.38.12-.81.18-1.3.18-.58 0-1.06-.05-1.45-.14-.4-.08-.72-.18-.97-.3v-1.57h.2c.3.17.6.32.94.43a3.08 3.08 0 0 0 1.66.1c.23-.04.42-.13.56-.25.1-.1.19-.2.24-.3.06-.1.09-.26.09-.47a.8.8 0 0 0 -.11-.43.9.9 0 0 0 -.3-.3 1.6 1.6 0 0 0 -.62-.2 4.87 4.87 0 0 0 -2.18.17h-.21v-4.03h5.08v1.37h-3.35v1.16a11.86 11.86 0 0 1 .78-.02c.39 0 .74.04 1.05.11.3.08.57.18.8.32.29.17.52.4.68.7.16.28.24.65.24 1.08z" fill="#000"/><path d="m33.08 7.04.33 2.03-1.18 2.27s-.46-.96-1.21-1.5c-.64-.44-1.06-.54-1.7-.4-.84.16-1.78 1.16-2.2 2.39-.49 1.47-.49 2.18-.5 2.83-.04 1.05.13 1.66.13 1.66s-.72-1.33-.71-3.28c0-1.39.22-2.65.87-3.9.56-1.09 1.4-1.74 2.15-1.82.77-.08 1.38.3 1.85.7.5.42 1 1.34 1 1.34zm.14 11.51s-.52.93-.85 1.3c-.32.35-.9.99-1.63 1.3-.72.32-1.1.38-1.8.31a3.58 3.58 0 0 1 -1.61-.65 6.28 6.28 0 0 1 -1.16-1.15c-.34-.47-.86-1.41-.86-1.41s.3.94.47 1.34c.1.23.43.94.89 1.56.43.57 1.26 1.56 2.52 1.78s2.13-.34 2.34-.48a6.47 6.47 0 0 0 1.7-1.8l.3-.53-.3-1.57z" fill="#000"/><g fill="#005a9c"><path d="m11.44 7.13 2.85 9.7 2.85-9.7h2.07l-4.73 15.93h-.2l-2.94-9.88-2.95 9.88h-.2l-4.72-15.93h2.06l2.86 9.7 1.93-6.54-.95-3.16z"/><path d="m25.07 17.95c0 1.44-.38 2.65-1.15 3.63a3.61 3.61 0 0 1 -2.98 1.48c-.92 0-1.72-.3-2.4-.87a5.15 5.15 0 0 1 -1.51-2.38l1.6-.66c.25.6.56 1.08.94 1.42.4.35.85.52 1.37.52.55 0 1.02-.3 1.4-.92s.57-1.36.57-2.22c0-.96-.2-1.7-.61-2.23-.47-.61-1.21-.92-2.22-.92h-.8v-.94l2.76-4.77h-3.32l-.93 1.58h-.59v-3.54h7.68v.96l-2.92 5.02c1.03.33 1.8.92 2.32 1.79.53.86.8 1.88.8 3.05z"/></g></g></g></svg>